<?xml version="1.0" encoding="UTF-8" standalone="no"?>
<!DOCTYPE svg PUBLIC "-//W3C//DTD SVG 1.1//EN" "http://www.w3.org/Graphics/SVG/1.1/DTD/svg11.dtd">
<svg width="100%" height="100%" viewBox="0 0 512 512" version="1.1" xmlns="http://www.w3.org/2000/svg" xmlns:xlink="http://www.w3.org/1999/xlink" xml:space="preserve" xmlns:serif="http://www.serif.com/" style="fill-rule:evenodd;clip-rule:evenodd;stroke-linejoin:round;stroke-miterlimit:2;">
    <path d="M280.85,15.574C287.348,16.644 297.667,18.708 312.955,21.918C323.733,24.211 345.441,31.779 353.467,35.983C354.767,36.671 356.066,37.206 356.449,37.206C357.595,37.206 379.228,48.29 383.814,51.194C386.183,52.8 388.477,54.023 388.859,54.023C389.165,54.023 390.846,55.169 392.528,56.622C394.21,58.074 396.961,59.756 398.567,60.52C400.248,61.208 403.535,63.195 405.828,65.03C408.122,66.864 410.797,68.699 411.791,69.234C416.224,71.604 437.856,90.331 444.43,97.516C446.112,99.427 448.864,102.332 450.622,104.014C456.278,109.67 467.056,124.423 472.483,133.902C479.974,146.973 487.236,164.783 490.676,178.619C494.574,194.136 497.097,209.576 499.619,232.508C501.301,248.331 501.53,297.023 500.001,307.036C496.638,328.363 487.542,350.301 475.847,365.436C473.095,369.105 470.802,372.316 470.802,372.621C470.802,372.927 468.967,375.144 466.827,377.513C452.303,392.801 444.659,400.98 443.207,402.891C442.29,404.114 439.385,406.637 436.863,408.471C434.264,410.382 430.671,413.363 428.76,415.121C426.849,416.88 422.721,420.396 419.587,422.842C416.453,425.364 413.549,427.81 413.09,428.345C412.708,428.881 410.415,430.104 408.045,431.174C405.752,432.167 402.847,433.849 401.548,434.843C396.885,438.741 355.226,458.386 351.633,458.386C350.945,458.386 348.346,459.303 345.824,460.374C337.492,463.89 332.905,465.495 324.421,467.635C319.834,468.782 314.101,470.311 311.808,470.922C300.572,474.056 279.169,477.572 262.887,479.025C246.988,480.401 210.22,479.636 192.563,477.496C186.371,476.732 171.924,473.521 161.223,470.54C158.471,469.776 153.426,468.476 149.986,467.559C140.584,465.266 133.246,462.667 126.367,459.227C122.927,457.545 117.882,455.329 115.206,454.335C108.633,451.812 91.434,440.882 85.242,435.225C83.561,433.62 81.267,431.862 80.197,431.327C79.127,430.715 77.293,429.033 75.993,427.505C74.541,425.747 73.241,424.906 72.477,425.135C71.025,425.594 69.037,423.606 70.26,422.842C71.483,422.077 71.177,421.16 69.649,420.778C68.808,420.549 67.203,418.943 65.98,417.262C60.094,409.083 57.648,406.255 55.66,405.184C54.437,404.573 53.52,403.808 53.596,403.503C53.826,402.738 51.838,399.299 50.692,398.381C50.157,397.923 47.634,393.566 45.188,388.674C42.666,383.705 39.914,378.736 39.149,377.59C37.238,374.762 31.276,362.455 31.276,361.308C31.276,360.85 30.588,358.862 29.824,356.875C26.231,348.008 20.651,329.892 19.428,323.089C17.364,312.081 15.912,289.685 16.218,274.168C16.523,258.65 17.746,243.286 18.969,238.394C20.116,233.961 21.186,228.992 21.721,225.629C22.027,223.947 23.326,218.443 24.702,213.398C26.078,208.353 27.836,201.627 28.524,198.493C29.977,192.378 33.034,182.746 34.716,179.001C36.245,175.485 38.92,168.681 40.22,164.859C41.672,160.579 51.303,141.775 53.673,138.794C54.59,137.571 56.195,135.507 57.189,134.207C58.183,132.908 59.941,130.232 61.011,128.245C63.228,124.27 67.279,118.461 70.413,114.792C71.56,113.416 73.165,110.817 74.006,108.982C75.458,105.543 78.21,102.485 82.414,99.275C83.713,98.281 84.784,97.134 84.784,96.676C84.784,96.293 85.93,94.459 87.306,92.777C90.975,88.038 110.62,68.775 115.054,65.488C117.194,63.883 120.557,61.131 122.545,59.45C124.532,57.692 126.443,56.316 126.749,56.316C127.054,56.316 129.348,54.558 131.717,52.494C134.087,50.353 136.533,48.672 137.068,48.672C137.603,48.672 140.278,47.067 142.954,45.003C145.629,43.015 152.662,39.04 158.547,36.212C164.433,33.308 169.86,30.632 170.625,30.25C174.065,28.415 190.652,22.759 197.914,20.924C222.374,14.886 226.273,14.427 252.186,14.427C267.703,14.427 275.958,14.809 280.85,15.574Z" style="fill:white;"/>
    <g transform="matrix(0.0764392,-3.01533e-33,-3.01533e-33,-0.0764392,-98.6706,699.934)">
        <path d="M4380,9119C4242,9109 4020,9078 3920,9054C3884,9045 3830,9033 3800,9025C3770,9018 3716,9001 3680,8987C3644,8973 3595,8955 3570,8947C3498,8923 3346,8859 3330,8845C3322,8839 3296,8826 3274,8817C3251,8808 3198,8781 3155,8756C3113,8731 3076,8710 3073,8710C3069,8710 3051,8698 3031,8683C3012,8667 2970,8639 2939,8620C2856,8568 2740,8476 2560,8317C2482,8249 2252,8016 2205,7958C2178,7924 2134,7874 2109,7846C2033,7763 1813,7450 1755,7342C1743,7321 1722,7288 1708,7269C1670,7218 1470,6784 1470,6752C1470,6745 1459,6708 1446,6668C1432,6628 1416,6568 1410,6535C1404,6502 1394,6461 1389,6445C1310,6188 1272,5668 1300,5225C1325,4835 1415,4439 1563,4075C1597,3990 1661,3856 1674,3840C1681,3832 1692,3812 1697,3795C1703,3779 1726,3736 1749,3700C1772,3664 1803,3615 1818,3591C1833,3567 1862,3527 1883,3503C1903,3479 1920,3456 1920,3452C1920,3448 1946,3418 1977,3385C2009,3352 2041,3316 2050,3304C2058,3292 2105,3248 2155,3205C2204,3162 2251,3119 2260,3109C2280,3086 2483,2950 2568,2903C2928,2704 3267,2589 3635,2539C3674,2534 3730,2526 3760,2520C3909,2494 4370,2478 4540,2493C4587,2498 4652,2503 4685,2506C4718,2508 4810,2522 4890,2536C4970,2550 5058,2565 5085,2570C5220,2594 5304,2615 5515,2679C5672,2726 5945,2836 6055,2897C6137,2942 6195,2970 6205,2970C6211,2970 6229,2983 6245,3000C6261,3017 6279,3030 6285,3030C6314,3030 6493,3150 6529,3194C6537,3204 6569,3224 6599,3240C6630,3255 6669,3283 6685,3300C6702,3318 6742,3353 6774,3378C6920,3491 7313,3885 7485,4090C7515,4126 7553,4169 7570,4186C7586,4202 7600,4220 7600,4224C7600,4229 7625,4268 7656,4312C7791,4505 7880,4706 7926,4925C7935,4969 7949,5032 7956,5065C7986,5191 7993,5322 7987,5640C7978,6145 7911,6650 7813,6960C7762,7121 7675,7347 7656,7370C7649,7378 7628,7414 7611,7450C7593,7486 7557,7545 7532,7583C7506,7620 7476,7666 7464,7686C7392,7806 7034,8168 6889,8267C6864,8284 6837,8306 6829,8316C6821,8325 6772,8362 6720,8396C6668,8431 6607,8473 6585,8488C6483,8562 6174,8732 6048,8786C6016,8799 5966,8821 5938,8834C5909,8847 5851,8869 5810,8883C5769,8897 5690,8924 5635,8943C5498,8991 5444,9007 5380,9019C5350,9025 5300,9037 5270,9045C5137,9082 4717,9131 4560,9128C4530,9128 4449,9123 4380,9119ZM4965,8953C5050,8939 5185,8912 5385,8870C5526,8840 5810,8741 5915,8686C5932,8677 5949,8670 5954,8670C5969,8670 6252,8525 6312,8487C6343,8466 6373,8450 6378,8450C6382,8450 6404,8435 6426,8416C6448,8397 6484,8375 6505,8365C6527,8356 6570,8330 6600,8306C6630,8282 6665,8258 6678,8251C6736,8220 7019,7975 7105,7881C7127,7856 7163,7818 7186,7796C7260,7722 7401,7529 7472,7405C7570,7234 7665,7001 7710,6820C7761,6617 7794,6415 7827,6115C7849,5908 7852,5271 7832,5140C7788,4861 7669,4574 7516,4376C7480,4328 7450,4286 7450,4282C7450,4278 7426,4249 7398,4218C7208,4018 7108,3911 7089,3886C7077,3870 7039,3837 7006,3813C6972,3788 6925,3749 6900,3726C6875,3703 6821,3657 6780,3625C6739,3592 6701,3560 6695,3553C6690,3546 6660,3530 6629,3516C6599,3503 6561,3481 6544,3468C6483,3417 5938,3160 5891,3160C5882,3160 5848,3148 5815,3134C5706,3088 5646,3067 5535,3039C5475,3024 5400,3004 5370,2996C5223,2955 4943,2909 4730,2890C4522,2872 4041,2882 3810,2910C3729,2920 3540,2962 3400,3001C3364,3011 3298,3028 3253,3040C3130,3070 3034,3104 2944,3149C2899,3171 2833,3200 2798,3213C2712,3246 2487,3389 2406,3463C2384,3484 2354,3507 2340,3514C2326,3522 2302,3544 2285,3564C2266,3587 2249,3598 2239,3595C2220,3589 2194,3615 2210,3625C2226,3635 2222,3647 2202,3652C2191,3655 2170,3676 2154,3698C2077,3805 2045,3842 2019,3856C2003,3864 1991,3874 1992,3878C1995,3888 1969,3933 1954,3945C1947,3951 1914,4008 1882,4072C1849,4137 1813,4202 1803,4217C1778,4254 1700,4415 1700,4430C1700,4436 1691,4462 1681,4488C1634,4604 1561,4841 1545,4930C1518,5074 1499,5367 1503,5570C1507,5773 1523,5974 1539,6038C1554,6096 1568,6161 1575,6205C1579,6227 1596,6299 1614,6365C1632,6431 1655,6519 1664,6560C1683,6640 1723,6766 1745,6815C1765,6861 1800,6950 1817,7000C1836,7056 1962,7302 1993,7341C2005,7357 2026,7384 2039,7401C2052,7418 2075,7453 2089,7479C2118,7531 2171,7607 2212,7655C2227,7673 2248,7707 2259,7731C2278,7776 2314,7816 2369,7858C2386,7871 2400,7886 2400,7892C2400,7897 2415,7921 2433,7943C2481,8005 2738,8257 2796,8300C2824,8321 2868,8357 2894,8379C2920,8402 2945,8420 2949,8420C2953,8420 2983,8443 3014,8470C3045,8498 3077,8520 3084,8520C3091,8520 3126,8541 3161,8568C3196,8594 3288,8646 3365,8683C3442,8721 3513,8756 3523,8761C3568,8785 3785,8859 3880,8883C4200,8962 4251,8968 4590,8968C4793,8968 4901,8963 4965,8953ZM1874,7171C1882,7159 1856,7127 1836,7124C1816,7121 1816,7129 1836,7158C1852,7181 1865,7186 1874,7171ZM1820,7057C1808,7031 1794,7010 1788,7010C1783,7010 1781,7003 1784,6994C1788,6985 1786,6972 1781,6966C1745,6921 1675,6772 1656,6697C1633,6610 1620,6580 1620,6616C1620,6656 1670,6809 1710,6895C1750,6980 1830,7113 1837,7106C1839,7105 1831,7082 1820,7057ZM1619,6563C1619,6558 1615,6546 1610,6535C1602,6517 1601,6518 1601,6543C1600,6558 1605,6570 1610,6570C1616,6570 1620,6567 1619,6563ZM1586,6423C1575,6412 1569,6427 1577,6446C1584,6464 1585,6464 1588,6447C1590,6437 1589,6426 1586,6423ZM1580,6386C1580,6378 1576,6368 1570,6365C1565,6362 1560,6368 1560,6379C1560,6391 1565,6400 1570,6400C1576,6400 1580,6394 1580,6386ZM1562,6298C1560,6271 1554,6250 1549,6250C1537,6250 1538,6266 1551,6313C1564,6362 1568,6358 1562,6298ZM1490,5835C1490,5790 1477,5774 1467,5809C1461,5834 1470,5880 1481,5880C1486,5880 1490,5860 1490,5835ZM1430,5285C1430,5277 1426,5270 1420,5270C1415,5270 1413,5277 1416,5285C1420,5293 1424,5300 1426,5300C1428,5300 1430,5293 1430,5285ZM1590,4630C1590,4625 1588,4620 1586,4620C1583,4620 1578,4625 1575,4630C1572,4636 1574,4640 1579,4640C1585,4640 1590,4636 1590,4630ZM1689,4263C1696,4247 1722,4205 1746,4169C1770,4132 1790,4100 1790,4096C1790,4093 1806,4068 1824,4042C1866,3984 1881,3948 1885,3895C1887,3873 1889,3852 1889,3848C1890,3845 1899,3844 1910,3847C1940,3855 1962,3833 1949,3808C1940,3791 1941,3789 1957,3794C1984,3803 2042,3743 2020,3730C2008,3722 2007,3716 2017,3689C2027,3664 2027,3659 2018,3668C2011,3675 2001,3680 1996,3680C1990,3680 1991,3675 1998,3668C2014,3652 2013,3617 1998,3622C1986,3626 1929,3722 1894,3800C1885,3819 1874,3842 1869,3850C1864,3858 1853,3879 1845,3896C1838,3913 1825,3932 1817,3938C1795,3957 1723,4109 1692,4203C1664,4286 1663,4321 1689,4263ZM1965,3920C1968,3915 1967,3910 1961,3910C1956,3910 1948,3915 1945,3920C1942,3926 1943,3930 1949,3930C1954,3930 1962,3926 1965,3920ZM2155,3609C2166,3592 2154,3588 2140,3605C2132,3614 2132,3620 2138,3620C2144,3620 2152,3615 2155,3609ZM2208,3429C2221,3424 2253,3420 2280,3420C2320,3420 2330,3416 2335,3399C2339,3388 2354,3364 2369,3347C2393,3320 2460,3177 2460,3154C2460,3150 2450,3156 2438,3167C2425,3178 2402,3195 2385,3203C2353,3220 2202,3371 2130,3459L2085,3514L2135,3476C2162,3455 2195,3434 2208,3429ZM6520,3374C6520,3358 6456,3326 6437,3333C6430,3336 6442,3345 6462,3354C6482,3363 6501,3374 6505,3380C6514,3394 6520,3392 6520,3374ZM2660,3203C2707,3179 2756,3153 2770,3146C2839,3109 2907,3080 2926,3080C2953,3080 2982,3037 2979,3002C2978,2987 2980,2968 2983,2960C2995,2930 2995,2887 2982,2883C2975,2880 2970,2882 2971,2887C2975,2901 2958,3014 2951,3028C2946,3036 2943,3027 2942,3008C2941,2990 2940,2956 2939,2933C2938,2909 2934,2890 2929,2890C2924,2890 2895,2924 2864,2965C2810,3037 2807,3040 2793,3020C2785,3009 2781,2996 2784,2991C2787,2986 2779,2983 2766,2984C2747,2985 2740,2992 2735,3015C2729,3044 2728,3045 2719,3022C2708,2994 2690,3002 2690,3036C2690,3063 2687,3065 2660,3048C2632,3030 2604,3060 2585,3129C2576,3160 2563,3194 2556,3205C2550,3216 2539,3238 2532,3254L2519,3283L2547,3264C2562,3254 2613,3226 2660,3203ZM6343,3236C6333,3222 6320,3210 6314,3210C6307,3210 6314,3223 6329,3239C6360,3274 6369,3272 6343,3236ZM6237,3203C6228,3194 6217,3190 6213,3194C6209,3198 6212,3205 6220,3210C6245,3226 6255,3221 6237,3203ZM6180,3182C6180,3172 6188,3169 6203,3172C6223,3176 6226,3173 6222,3154C6216,3123 6194,3116 6185,3143C6179,3162 6177,3163 6173,3147C6167,3124 6150,3135 6150,3162C6150,3179 6148,3180 6135,3170C6115,3153 6105,3163 6123,3182C6141,3200 6180,3200 6180,3182ZM6070,3180C6070,3175 6065,3170 6059,3170C6054,3170 6052,3175 6055,3180C6058,3186 6063,3190 6066,3190C6068,3190 6070,3186 6070,3180ZM6010,3146C6010,3144 6003,3139 5994,3136C5986,3133 5982,3134 5985,3140C5991,3150 6010,3154 6010,3146ZM6140,3130C6140,3125 6135,3120 6129,3120C6124,3120 6122,3125 6125,3130C6128,3136 6133,3140 6136,3140C6138,3140 6140,3136 6140,3130ZM6041,3120C6053,3120 6090,3083 6090,3071C6090,3055 5958,3029 5910,3035C5834,3044 5800,3052 5800,3060C5800,3075 5882,3102 5893,3091C5900,3084 5898,3079 5887,3074C5860,3064 5867,3050 5900,3050C5922,3050 5940,3061 5967,3090C5988,3112 6011,3128 6018,3125C6026,3122 6036,3120 6041,3120ZM3140,3010C3235,2982 3280,2964 3280,2955C3280,2944 3244,2874 3235,2868C3230,2864 3229,2858 3233,2854C3242,2844 3200,2799 3189,2806C3176,2814 3178,2854 3192,2868C3201,2877 3201,2880 3192,2880C3185,2880 3180,2876 3180,2871C3180,2867 3168,2851 3154,2837C3136,2819 3121,2813 3102,2816C3058,2823 3052,2828 3048,2852C3046,2867 3039,2874 3028,2872C3008,2869 3004,2880 3020,2896C3026,2902 3023,2919 3010,2943C2990,2980 2991,3007 3012,2994C3019,2989 3021,2996 3018,3014C3011,3047 3016,3047 3140,3010ZM5733,3024C5731,3017 5738,3009 5749,3005C5776,2997 5779,2950 5752,2950C5743,2950 5730,2940 5725,2928C5712,2898 5620,2867 5584,2880C5566,2887 5560,2897 5560,2919C5560,2935 5557,2956 5554,2965C5549,2976 5554,2983 5568,2987C5580,2990 5586,2998 5584,3005C5580,3014 5594,3021 5632,3027C5709,3040 5739,3039 5733,3024ZM5870,2980C5870,2967 5825,2956 5804,2964C5796,2967 5792,2974 5795,2980C5803,2993 5870,2993 5870,2980ZM5543,2921C5547,2889 5552,2856 5556,2847C5560,2835 5553,2827 5528,2817C5499,2804 5493,2805 5478,2818C5468,2826 5460,2841 5460,2850C5460,2860 5451,2879 5440,2893C5429,2907 5420,2930 5420,2943C5420,2970 5431,2975 5501,2977L5537,2979L5543,2921ZM5393,2932C5417,2905 5439,2824 5431,2793C5423,2762 5400,2750 5400,2776C5400,2789 5395,2787 5375,2766C5354,2743 5346,2740 5335,2750C5327,2757 5323,2766 5326,2771C5329,2776 5324,2777 5316,2774C5304,2769 5300,2775 5300,2798C5300,2815 5304,2831 5309,2835C5315,2838 5318,2859 5318,2882C5317,2942 5359,2970 5393,2932ZM3325,2920C3322,2909 3323,2900 3329,2900C3334,2900 3342,2909 3345,2921C3350,2936 3359,2940 3378,2938C3400,2936 3405,2930 3405,2908C3404,2892 3410,2880 3417,2880C3435,2880 3433,2870 3411,2846C3390,2822 3368,2762 3376,2749C3385,2734 3350,2727 3325,2738C3312,2744 3300,2759 3298,2771C3295,2793 3294,2793 3277,2775C3262,2761 3261,2755 3272,2749C3282,2742 3281,2740 3268,2740C3256,2740 3250,2748 3250,2761C3250,2779 3248,2780 3235,2770C3213,2751 3205,2766 3220,2797C3227,2813 3235,2820 3237,2813C3245,2791 3260,2799 3260,2824C3260,2854 3300,2887 3312,2867C3323,2850 3322,2864 3310,2895C3299,2923 3304,2940 3321,2940C3327,2940 3328,2931 3325,2920ZM3518,2908C3525,2899 3524,2880 3517,2848C3508,2811 3502,2801 3489,2805C3479,2809 3469,2801 3461,2784C3455,2769 3447,2760 3443,2763C3440,2767 3442,2776 3448,2783C3455,2791 3457,2799 3454,2802C3447,2810 3469,2891 3482,2908C3488,2914 3496,2920 3500,2920C3504,2920 3512,2914 3518,2908ZM3594,2890C3618,2881 3619,2878 3615,2818C3612,2783 3608,2741 3604,2723C3597,2688 3575,2673 3563,2694C3558,2702 3537,2715 3515,2725L3475,2741L3510,2773C3536,2797 3544,2812 3542,2832C3539,2856 3554,2900 3565,2900C3567,2900 3580,2896 3594,2890ZM5280,2876C5280,2868 5285,2860 5292,2858C5299,2855 5301,2846 5297,2836C5290,2819 5288,2818 5272,2834C5262,2843 5249,2850 5243,2850C5237,2850 5234,2859 5237,2870C5243,2893 5280,2898 5280,2876ZM5090,2860C5097,2848 5100,2849 5106,2863C5116,2890 5143,2885 5135,2858C5129,2839 5130,2837 5141,2848C5172,2877 5178,2856 5154,2804L5138,2770L5119,2793L5101,2815L5100,2793C5100,2781 5095,2768 5089,2765C5084,2761 5075,2747 5070,2734C5063,2718 5053,2710 5036,2710C5023,2710 5005,2707 4997,2704C4979,2698 4967,2739 4976,2774C4980,2792 4987,2797 4998,2793C5012,2788 5013,2790 5003,2801C4985,2819 4987,2833 5005,2826C5013,2823 5020,2825 5020,2830C5020,2836 5027,2840 5035,2840C5043,2840 5050,2845 5050,2850C5050,2856 5045,2860 5039,2860C5034,2860 5031,2864 5034,2868C5042,2881 5081,2875 5090,2860ZM3761,2859C3791,2854 3834,2849 3857,2849C3881,2848 3902,2845 3904,2841C3908,2836 3877,2682 3865,2643C3862,2633 3854,2633 3833,2641C3809,2650 3776,2654 3690,2659C3670,2660 3668,2662 3680,2670C3688,2675 3707,2680 3723,2680C3738,2680 3750,2682 3750,2684C3750,2686 3753,2695 3756,2703C3760,2715 3754,2716 3716,2707C3691,2701 3668,2699 3664,2702C3660,2707 3673,2770 3696,2858C3700,2873 3695,2872 3761,2859ZM4905,2830C4928,2805 4927,2730 4904,2695C4882,2662 4839,2656 4818,2683C4794,2714 4803,2809 4833,2832C4862,2855 4883,2854 4905,2830ZM4773,2803C4775,2793 4776,2758 4776,2725C4775,2674 4772,2665 4758,2666C4748,2667 4740,2662 4740,2656C4740,2648 4728,2645 4706,2648L4673,2652L4677,2728C4681,2823 4683,2828 4712,2832C4742,2837 4768,2825 4773,2803ZM3982,2788C3976,2724 3965,2698 3932,2672L3899,2647L3910,2674C3915,2689 3920,2716 3920,2734C3920,2790 3939,2832 3964,2828C3982,2825 3985,2819 3982,2788ZM4161,2820C4176,2812 4178,2805 4171,2791C4159,2769 4150,2700 4159,2700C4162,2701 4176,2724 4190,2753C4204,2781 4220,2806 4227,2808C4244,2813 4250,2688 4233,2674C4226,2668 4223,2660 4227,2657C4230,2653 4228,2644 4221,2636C4212,2625 4212,2621 4222,2617C4229,2614 4221,2611 4203,2611C4177,2610 4173,2613 4177,2630C4181,2645 4177,2650 4161,2650C4146,2650 4140,2644 4140,2628C4140,2611 4137,2609 4131,2619C4126,2627 4117,2629 4110,2625C4102,2620 4099,2621 4103,2627C4111,2639 4051,2651 4021,2643C4009,2640 4000,2633 4000,2626C4000,2620 3995,2622 3990,2630C3985,2638 3980,2640 3980,2634C3980,2628 3974,2623 3967,2623C3958,2623 3955,2632 3958,2647C3962,2666 3968,2670 4000,2670C4038,2670 4038,2671 4049,2721C4063,2785 4076,2809 4103,2820C4133,2832 4138,2832 4161,2820ZM4652,2740C4645,2666 4645,2665 4610,2652L4575,2639L4608,2644C4625,2647 4640,2646 4640,2641C4640,2627 4601,2620 4528,2620C4461,2620 4444,2630 4470,2656C4475,2661 4480,2699 4482,2740L4485,2815L4538,2818C4584,2821 4590,2819 4590,2801C4590,2782 4592,2783 4616,2807C4652,2843 4661,2827 4652,2740ZM4420,2800C4420,2795 4415,2790 4409,2790C4404,2790 4402,2795 4405,2800C4408,2806 4413,2810 4416,2810C4418,2810 4420,2806 4420,2800ZM4410,2703C4410,2687 4412,2687 4421,2700C4429,2712 4431,2711 4428,2695C4426,2683 4417,2675 4405,2674C4394,2674 4377,2670 4367,2666C4336,2651 4335,2670 4365,2695C4401,2724 4410,2726 4410,2703Z" style="fill-rule:nonzero;"/>
    </g>
    <g transform="matrix(0.0756382,-2.98373e-33,-2.98373e-33,-0.0756382,-90.0215,690.949)">
        <path d="M4335,7604C4262,7588 4235,7577 4155,7530C4103,7500 4087,7481 4044,7392C4007,7316 4000,7239 4016,7070C4050,6723 4055,6492 4034,6380C4024,6328 3973,6233 3947,6215C3905,6188 3821,6180 3521,6175C3358,6173 3201,6166 3171,6160C3142,6155 3101,6150 3082,6150C3005,6150 2942,6120 2865,6045C2780,5963 2749,5906 2725,5790C2696,5646 2728,5493 2804,5412C2824,5392 2840,5372 2840,5369C2840,5353 2950,5291 2990,5285C3015,5281 3044,5273 3055,5267C3086,5251 3287,5258 3407,5280C3535,5304 3850,5332 3900,5324C3926,5320 4016,5262 4021,5247C4028,5222 4042,5052 4046,4950C4061,4488 4085,4351 4189,4129C4233,4033 4251,4015 4348,3969C4412,3939 4418,3938 4515,3943C4570,3946 4629,3951 4645,3954C4662,3957 4690,3963 4709,3966C4744,3972 4870,4038 4903,4068C4933,4095 5020,4246 5035,4297C5062,4389 5069,4507 5072,4880C5074,5251 5078,5312 5100,5334C5107,5341 5214,5349 5398,5357C5799,5374 5883,5383 6049,5425C6194,5462 6277,5493 6317,5527C6361,5564 6413,5646 6427,5699C6469,5860 6340,6072 6162,6137C6073,6170 6047,6175 5825,6200C5670,6218 5574,6223 5306,6224C4978,6226 4977,6226 4969,6247C4965,6259 4958,6414 4955,6592C4951,6770 4945,7023 4941,7155C4934,7389 4933,7396 4906,7453C4874,7519 4867,7524 4715,7575C4582,7619 4449,7630 4335,7604ZM4524,7475C4553,7448 4591,7450 4568,7477C4558,7489 4561,7491 4586,7488C4604,7486 4619,7477 4625,7463C4630,7450 4640,7440 4647,7440C4663,7440 4683,7403 4674,7389C4671,7383 4667,7346 4665,7307C4663,7267 4664,7244 4667,7255C4676,7290 4687,7292 4709,7262C4731,7230 4729,7205 4701,7183C4692,7176 4680,7172 4673,7175C4656,7181 4645,7161 4659,7147C4667,7139 4670,7139 4670,7147C4670,7153 4682,7157 4698,7157C4713,7157 4719,7155 4713,7153C4696,7147 4696,7133 4713,7127C4721,7124 4727,7131 4728,7147C4732,7201 4755,7205 4776,7155C4791,7118 4796,6940 4782,6940C4778,6940 4768,6946 4760,6953C4748,6963 4748,6962 4759,6947C4767,6938 4770,6926 4766,6923C4762,6919 4755,6922 4750,6930C4742,6942 4740,6941 4740,6924C4740,6912 4733,6900 4725,6896C4717,6893 4710,6885 4710,6879C4710,6871 4715,6872 4727,6881C4741,6893 4744,6893 4748,6881C4752,6870 4754,6870 4761,6881C4767,6892 4772,6892 4781,6883C4795,6869 4794,6752 4780,6734C4774,6727 4776,6716 4785,6704C4801,6683 4805,6640 4791,6640C4779,6640 4740,6694 4740,6709C4740,6716 4733,6723 4725,6726C4713,6731 4714,6735 4730,6753C4751,6775 4759,6803 4739,6783C4733,6777 4721,6774 4714,6777C4697,6783 4694,6720 4710,6704C4716,6698 4717,6677 4711,6648C4704,6607 4705,6601 4722,6597C4745,6591 4759,6618 4740,6630C4733,6634 4730,6645 4733,6654C4739,6668 4745,6666 4774,6639C4802,6614 4807,6604 4800,6587C4796,6574 4785,6566 4775,6568C4759,6571 4759,6570 4774,6548C4791,6524 4795,6506 4781,6514C4777,6517 4782,6502 4792,6480C4810,6444 4811,6439 4796,6425C4777,6406 4776,6399 4792,6403C4798,6404 4806,6397 4808,6388C4814,6360 4796,6367 4739,6413C4682,6459 4587,6530 4582,6530C4572,6530 4619,6480 4637,6471C4649,6465 4679,6443 4702,6421C4726,6400 4758,6371 4773,6358C4793,6342 4803,6323 4807,6292C4813,6250 4800,6235 4783,6264C4771,6286 4700,6358 4626,6425C4590,6458 4560,6492 4560,6502C4560,6511 4551,6521 4540,6525C4529,6528 4511,6546 4498,6563C4486,6581 4470,6599 4463,6603C4456,6607 4450,6617 4450,6624C4450,6632 4444,6643 4436,6650C4428,6656 4423,6667 4426,6675C4429,6682 4427,6691 4421,6695C4415,6698 4410,6696 4410,6690C4410,6684 4389,6695 4364,6715C4338,6734 4313,6750 4309,6750C4304,6750 4300,6759 4300,6770C4300,6781 4295,6790 4290,6790C4274,6790 4185,6878 4193,6886C4197,6890 4215,6879 4233,6862C4251,6844 4275,6830 4287,6830C4307,6830 4400,6740 4400,6720C4400,6715 4406,6710 4414,6710C4422,6710 4435,6702 4442,6693C4449,6683 4475,6662 4500,6645C4525,6629 4547,6612 4550,6608C4553,6604 4567,6610 4580,6620C4600,6635 4603,6641 4593,6651C4582,6662 4580,6661 4580,6648C4580,6619 4561,6618 4534,6645C4520,6659 4505,6669 4502,6665C4499,6662 4482,6674 4464,6691C4436,6718 4434,6725 4443,6749C4450,6768 4450,6791 4442,6826L4431,6875L4435,6813C4438,6769 4436,6750 4428,6750C4414,6750 4370,6790 4370,6802C4370,6814 4326,6880 4318,6880C4308,6880 4315,6854 4330,6834C4344,6816 4344,6816 4316,6834C4300,6844 4274,6866 4259,6881C4243,6897 4219,6915 4205,6920C4187,6927 4180,6937 4179,6957C4178,7006 4171,7103 4165,7158C4159,7213 4171,7226 4191,7188C4198,7175 4220,7144 4241,7119C4263,7093 4280,7068 4280,7062C4280,7057 4287,7047 4295,7040C4303,7033 4307,7024 4304,7019C4301,7014 4301,6996 4305,6980C4311,6954 4314,6952 4331,6961C4346,6968 4354,6967 4366,6955C4384,6937 4400,6935 4400,6952C4400,6958 4407,6955 4415,6944C4428,6926 4429,6926 4430,6943C4430,6957 4435,6960 4450,6955C4461,6951 4470,6952 4469,6957C4466,6977 4471,6980 4486,6966C4494,6957 4506,6950 4511,6950C4517,6950 4509,6961 4493,6974C4472,6992 4468,7001 4476,7011C4482,7019 4490,7034 4493,7045C4499,7061 4495,7060 4476,7038C4463,7023 4449,7014 4446,7017C4443,7021 4440,7044 4440,7070C4440,7104 4433,7128 4415,7154C4402,7174 4393,7190 4397,7190C4400,7190 4386,7210 4366,7235C4345,7260 4332,7280 4335,7280C4348,7280 4419,7207 4414,7199C4408,7189 4450,7150 4466,7150C4473,7150 4482,7156 4486,7163C4490,7169 4489,7172 4485,7167C4472,7156 4440,7191 4440,7217C4440,7231 4444,7239 4450,7235C4456,7231 4458,7220 4455,7209C4450,7193 4454,7190 4479,7190C4499,7190 4514,7182 4525,7168C4533,7155 4536,7144 4531,7142C4526,7140 4528,7127 4536,7112C4552,7082 4553,6963 4538,6943C4531,6934 4535,6927 4555,6920C4590,6907 4599,6908 4578,6923C4565,6934 4562,6953 4563,7030L4565,7125L4590,7122C4624,7117 4639,7102 4620,7090C4611,7084 4610,7080 4617,7080C4623,7080 4632,7085 4635,7090C4649,7113 4660,7097 4660,7050C4660,7010 4663,7002 4675,7006C4683,7010 4690,7007 4690,6999C4690,6992 4693,6989 4696,6993C4699,6996 4695,7013 4686,7031C4677,7049 4670,7079 4670,7099C4670,7126 4667,7131 4660,7120C4652,7108 4647,7107 4633,7118C4623,7124 4605,7135 4593,7141C4562,7157 4557,7177 4575,7213C4593,7248 4593,7253 4580,7245C4574,7241 4570,7272 4570,7331C4570,7409 4568,7421 4557,7406C4550,7396 4529,7387 4510,7386C4460,7382 4458,7381 4465,7370C4470,7362 4476,7363 4486,7371C4498,7381 4506,7378 4531,7354C4559,7327 4561,7322 4558,7256C4555,7181 4545,7169 4515,7198C4444,7266 4441,7272 4441,7374C4441,7427 4445,7470 4449,7470C4454,7470 4465,7459 4473,7446C4485,7429 4486,7420 4477,7411C4469,7403 4469,7400 4478,7400C4499,7400 4503,7430 4485,7450C4468,7469 4470,7500 4488,7500C4493,7500 4509,7489 4524,7475ZM4343,7468C4358,7461 4370,7446 4371,7435C4373,7417 4373,7417 4377,7437C4379,7449 4388,7464 4396,7471C4418,7489 4432,7469 4428,7424C4425,7388 4423,7385 4395,7385C4357,7385 4341,7396 4347,7419C4353,7444 4332,7456 4313,7437C4291,7416 4305,7380 4335,7380C4348,7380 4362,7375 4365,7370C4369,7364 4379,7362 4389,7365C4401,7369 4409,7361 4418,7337C4430,7305 4425,7240 4411,7240C4396,7240 4229,7411 4235,7420C4239,7426 4246,7428 4251,7424C4256,7421 4258,7414 4255,7409C4251,7404 4251,7400 4254,7400C4256,7400 4266,7397 4275,7394C4288,7389 4290,7392 4285,7413C4278,7438 4293,7480 4308,7480C4313,7480 4328,7474 4343,7468ZM4719,7446C4728,7435 4728,7427 4718,7411C4699,7381 4690,7385 4690,7425C4690,7462 4700,7469 4719,7446ZM4796,7410C4822,7399 4823,7397 4808,7386C4795,7376 4789,7355 4787,7306C4785,7269 4779,7235 4773,7229C4767,7223 4748,7236 4719,7267C4677,7311 4674,7317 4684,7342C4702,7384 4731,7412 4746,7399C4756,7391 4757,7394 4753,7411C4749,7425 4751,7431 4757,7427C4763,7423 4780,7416 4796,7410ZM4850,7378C4850,7359 4848,7358 4840,7370C4827,7389 4827,7400 4840,7400C4846,7400 4850,7390 4850,7378ZM4262,7336C4289,7311 4321,7270 4334,7243C4348,7217 4372,7182 4389,7166C4422,7134 4440,7069 4420,7046C4414,7038 4413,7029 4418,7026C4425,7022 4426,6999 4421,6971C4420,6968 4406,6979 4389,6996C4365,7019 4360,7021 4365,7005C4371,6987 4370,6987 4352,7008C4341,7020 4327,7030 4321,7030C4315,7030 4307,7044 4304,7060C4300,7077 4294,7090 4290,7090C4286,7090 4267,7115 4249,7145C4230,7176 4205,7212 4193,7226C4166,7256 4164,7270 4186,7270C4200,7270 4202,7278 4197,7325C4190,7393 4199,7394 4262,7336ZM4336,6982C4327,6974 4310,6992 4310,7008C4311,7023 4312,7023 4325,7006C4333,6995 4338,6985 4336,6982ZM4230,6779C4230,6775 4236,6770 4244,6768C4258,6765 4428,6600 4482,6537C4498,6519 4522,6491 4537,6474C4553,6457 4572,6434 4580,6424C4589,6413 4613,6386 4635,6362C4667,6326 4671,6317 4659,6308C4648,6301 4650,6299 4668,6303C4684,6307 4694,6302 4702,6287C4708,6275 4723,6255 4735,6242C4747,6230 4770,6201 4786,6177C4801,6154 4826,6122 4841,6105C4857,6089 4874,6055 4879,6030C4892,5973 4893,5843 4880,5835C4875,5832 4873,5824 4876,5816C4879,5809 4877,5793 4872,5779C4867,5766 4866,5746 4871,5735C4877,5719 4879,5723 4879,5752C4880,5793 4900,5816 4900,5777C4900,5763 4906,5752 4913,5753C4990,5756 4999,5751 5026,5699C5044,5662 5048,5645 5040,5640C5032,5635 5033,5631 5044,5627C5053,5623 5065,5609 5070,5595C5075,5581 5084,5570 5089,5570C5095,5570 5097,5563 5094,5555C5089,5544 5092,5542 5104,5546C5113,5550 5120,5547 5120,5540C5120,5532 5107,5530 5078,5534C5006,5543 4837,5541 4803,5531C4775,5523 4770,5524 4770,5538C4769,5554 4769,5554 4759,5538C4754,5528 4743,5523 4734,5527C4722,5531 4719,5528 4722,5514C4726,5492 4773,5487 4806,5506C4823,5516 5009,5520 5030,5510C5033,5509 5050,5507 5067,5507C5108,5505 5111,5490 5074,5469C5033,5447 4992,5438 4985,5450C4980,5458 4974,5458 4965,5450C4957,5444 4943,5439 4933,5440C4896,5444 4889,5440 4895,5420C4898,5409 4897,5400 4893,5400C4888,5400 4885,5385 4887,5368C4897,5260 4899,5017 4890,5000C4883,4988 4883,4979 4890,4975C4895,4972 4900,4944 4900,4914C4900,4880 4896,4861 4890,4865C4876,4874 4877,4857 4892,4842C4910,4824 4907,4631 4889,4620C4878,4613 4878,4607 4888,4588C4897,4573 4899,4543 4894,4500C4891,4464 4888,4425 4887,4412C4886,4399 4877,4384 4866,4378C4852,4370 4851,4366 4861,4360C4871,4353 4870,4346 4856,4325C4846,4310 4841,4292 4844,4285C4846,4278 4823,4241 4791,4203C4747,4150 4728,4135 4707,4135C4688,4136 4684,4133 4691,4124C4704,4108 4669,4088 4637,4091C4625,4092 4608,4090 4600,4087C4560,4072 4532,4071 4514,4085C4504,4093 4487,4100 4477,4100C4439,4100 4301,4257 4316,4282C4319,4287 4317,4296 4312,4303C4292,4329 4261,4460 4255,4548C4250,4627 4251,4640 4265,4640C4273,4640 4280,4645 4280,4650C4280,4656 4276,4660 4271,4660C4266,4660 4264,4669 4267,4680C4271,4694 4267,4700 4257,4700C4245,4700 4241,4708 4243,4729C4244,4745 4249,4756 4253,4753C4258,4750 4259,4742 4256,4734C4253,4726 4257,4720 4265,4720C4273,4720 4283,4714 4287,4706C4292,4697 4305,4694 4323,4697C4343,4701 4350,4708 4350,4726C4350,4741 4344,4750 4334,4750C4324,4750 4320,4756 4323,4764C4327,4774 4320,4781 4300,4785C4241,4798 4223,4857 4267,4897C4281,4910 4290,4924 4286,4927C4283,4930 4271,4925 4260,4915C4249,4905 4237,4900 4233,4903C4229,4907 4225,4961 4224,5023C4220,5197 4219,5226 4213,5213C4205,5192 4187,5198 4193,5220C4196,5233 4193,5240 4183,5240C4173,5240 4170,5234 4175,5223C4189,5186 4195,5123 4189,5065C4184,5008 4183,5007 4182,5051C4179,5120 4150,5250 4129,5290C4065,5409 4052,5424 3993,5450C3959,5465 3885,5515 3860,5540C3857,5543 3835,5556 3810,5569C3766,5593 3691,5647 3679,5663C3676,5667 3660,5674 3644,5679C3627,5683 3613,5694 3611,5706C3609,5716 3599,5731 3589,5738C3577,5746 3570,5763 3570,5783C3570,5801 3566,5820 3562,5827C3552,5842 3496,5883 3449,5909C3429,5920 3399,5945 3382,5964C3365,5983 3340,6002 3326,6006C3312,6009 3300,6016 3300,6020C3300,6033 3337,6042 3360,6036C3371,6033 3389,6027 3400,6024C3414,6020 3420,6023 3420,6034C3420,6043 3429,6050 3440,6050C3451,6050 3460,6043 3460,6035C3460,6024 3467,6021 3485,6026C3528,6037 3559,6024 3556,5995C3554,5982 3557,5973 3562,5976C3567,5979 3608,5944 3653,5898C3760,5790 3867,5697 3878,5704C3883,5707 3901,5693 3919,5675C3950,5641 3980,5629 3980,5650C3980,5656 3974,5660 3968,5660C3961,5660 3931,5686 3902,5717C3861,5762 3850,5769 3855,5750C3861,5730 3860,5727 3849,5737C3842,5744 3836,5758 3835,5769C3833,5795 3774,5861 3758,5855C3744,5849 3690,5894 3690,5911C3690,5917 3695,5918 3700,5915C3706,5912 3710,5913 3710,5918C3710,5928 3662,5973 3620,6002C3595,6019 3595,6019 3617,6019C3629,6020 3641,6016 3645,6010C3648,6005 3658,6004 3667,6007C3676,6011 3681,6009 3678,6004C3675,5999 3683,5987 3695,5977C3721,5958 3739,5970 3715,5990C3707,5997 3700,6008 3700,6015C3700,6032 3754,6042 3785,6030C3804,6023 3808,6024 3803,6036C3799,6048 3802,6049 3826,6040C3841,6034 3856,6033 3859,6037C3862,6041 3872,6047 3880,6049C3949,6066 3969,6070 3997,6070C4014,6070 4035,6064 4042,6058C4050,6051 4067,6039 4080,6031L4105,6017L4086,6039C4060,6068 4057,6091 4079,6097C4089,6100 4103,6113 4110,6126C4125,6153 4139,6156 4160,6138C4168,6131 4164,6137 4152,6151C4130,6177 4129,6179 4144,6208C4153,6225 4160,6250 4160,6265C4160,6295 4189,6300 4197,6270C4200,6259 4211,6250 4221,6250C4234,6250 4238,6255 4233,6267C4228,6281 4232,6280 4258,6261C4299,6232 4300,6247 4259,6283C4225,6313 4214,6316 4207,6298C4204,6288 4199,6289 4186,6300C4170,6315 4174,6360 4191,6360C4196,6360 4196,6370 4191,6382C4187,6394 4187,6420 4192,6440C4196,6459 4200,6525 4199,6585C4198,6817 4199,6827 4215,6806C4223,6795 4230,6783 4230,6779ZM3110,6090C3110,6085 3101,6080 3089,6080C3078,6080 3072,6085 3075,6090C3078,6096 3088,6100 3096,6100C3104,6100 3110,6096 3110,6090ZM5359,6041C5365,6031 5367,6020 5364,6018C5362,6015 5367,5991 5376,5964C5385,5938 5393,5899 5394,5877C5395,5854 5404,5829 5416,5816C5443,5788 5453,5760 5436,5760C5429,5760 5417,5767 5409,5776C5401,5785 5388,5789 5374,5786C5361,5782 5348,5785 5345,5790C5341,5796 5335,5798 5330,5795C5326,5792 5317,5797 5310,5805C5303,5813 5292,5820 5285,5820C5267,5820 5238,5879 5246,5902C5249,5912 5246,5920 5240,5920C5233,5920 5230,5926 5233,5934C5236,5942 5232,5951 5223,5954C5211,5959 5210,5963 5220,5975C5227,5983 5237,5987 5243,5983C5250,5979 5251,5983 5247,5994C5243,6004 5240,6014 5240,6016C5240,6019 5236,6019 5231,6016C5226,6013 5217,6017 5210,6025C5203,6033 5199,6040 5201,6041C5238,6048 5273,6042 5281,6027C5287,6018 5288,6005 5285,6000C5282,5994 5284,5990 5289,5990C5295,5990 5300,5995 5300,6001C5300,6006 5305,6008 5310,6005C5316,6002 5320,6003 5320,6009C5320,6014 5316,6022 5310,6025C5305,6028 5300,6038 5300,6046C5300,6067 5347,6064 5359,6041ZM5445,6050C5448,6055 5467,6060 5485,6060C5513,6060 5522,6054 5535,6030C5544,6014 5547,6000 5544,6000C5540,6000 5545,5991 5555,5980C5564,5970 5576,5940 5581,5916C5586,5891 5598,5851 5609,5827C5628,5785 5629,5710 5610,5710C5600,5710 5576,5739 5547,5790C5532,5815 5520,5832 5520,5828C5520,5820 5565,5733 5578,5716C5597,5692 5599,5669 5584,5663C5567,5657 5548,5678 5554,5696C5560,5713 5523,5750 5500,5750C5480,5750 5459,5786 5441,5850C5436,5869 5431,5879 5431,5873C5429,5852 5410,5859 5410,5880C5410,5891 5415,5900 5421,5900C5428,5900 5429,5907 5425,5918C5421,5927 5416,5963 5415,5998C5412,6049 5414,6059 5425,6050C5434,6042 5440,6042 5445,6050ZM5037,6028C5046,6021 5048,6014 5041,6007C5034,6000 5026,6001 5017,6009C5006,6018 5000,6017 4991,6006C4982,5995 4983,5991 4997,5985C5007,5980 5019,5976 5023,5976C5027,5975 5035,5968 5040,5960C5047,5950 5050,5949 5050,5958C5050,5966 5060,5969 5082,5965C5121,5958 5127,5953 5113,5939C5106,5932 5105,5917 5110,5899C5116,5878 5115,5866 5104,5855C5095,5847 5093,5840 5098,5840C5103,5840 5115,5849 5125,5860C5135,5871 5146,5877 5151,5874C5163,5867 5150,5840 5133,5840C5125,5840 5121,5836 5124,5832C5126,5828 5125,5818 5121,5811C5110,5793 5067,5807 5074,5826C5077,5834 5076,5840 5071,5840C5066,5840 5063,5863 5063,5890C5064,5927 5067,5939 5077,5936C5084,5933 5090,5935 5090,5939C5090,5954 5063,5959 5051,5947C5042,5938 5037,5939 5029,5950C5021,5961 5021,5958 5027,5940C5031,5926 5035,5891 5034,5862C5033,5820 5036,5810 5048,5815C5056,5818 5064,5812 5067,5800C5070,5789 5076,5783 5081,5786C5086,5789 5090,5786 5090,5781C5090,5775 5088,5770 5086,5770C5084,5770 5075,5767 5066,5764C5055,5760 5050,5763 5050,5775C5050,5784 5045,5788 5039,5785C5034,5781 5006,5777 4979,5776C4911,5772 4901,5787 4911,5877C4916,5914 4919,5956 4919,5969C4920,5987 4924,5991 4938,5985C4992,5962 4996,5965 4968,6003C4952,6022 4940,6042 4940,6046C4940,6056 5022,6041 5037,6028ZM5832,6025C5830,6014 5821,5994 5811,5980C5801,5966 5790,5943 5787,5929C5783,5914 5771,5892 5760,5879L5741,5855L5739,5895C5736,5945 5737,5951 5742,5970C5745,5978 5745,5982 5743,5978C5734,5963 5720,5970 5720,5990C5720,6001 5713,6010 5705,6010C5688,6010 5687,6012 5696,6035C5701,6048 5715,6050 5769,6048C5829,6045 5835,6043 5832,6025ZM5983,6030C6058,6020 6143,5993 6180,5967C6214,5943 6278,5854 6285,5819C6305,5729 6248,5633 6160,5610C6135,5604 6097,5593 6075,5585C6017,5565 5972,5559 5965,5570C5962,5576 5948,5580 5935,5580C5922,5580 5904,5589 5896,5601C5888,5613 5877,5619 5871,5615C5865,5612 5860,5614 5860,5619C5860,5625 5867,5630 5875,5630C5894,5630 5895,5656 5875,5663C5861,5669 5845,5655 5845,5635C5845,5615 5815,5626 5812,5648C5810,5664 5814,5670 5827,5671C5837,5671 5840,5674 5833,5677C5826,5679 5820,5698 5820,5717C5820,5765 5808,5752 5803,5698C5798,5648 5794,5642 5778,5658C5770,5666 5770,5673 5780,5685C5790,5697 5790,5700 5776,5700C5759,5700 5740,5737 5740,5772C5740,5783 5764,5843 5794,5904C5824,5965 5851,6023 5854,6034C5859,6048 5866,6051 5886,6046C5899,6042 5943,6035 5983,6030ZM4934,6019C4931,6014 4924,6012 4919,6016C4914,6019 4912,6026 4916,6031C4919,6036 4926,6038 4931,6034C4936,6031 4938,6024 4934,6019ZM5144,6025C5147,6017 5147,6003 5143,5994C5132,5965 5050,5998 5050,6032C5050,6047 5138,6041 5144,6025ZM5180,6010C5180,5999 5176,5990 5170,5990C5165,5990 5160,5999 5160,6010C5160,6021 5165,6030 5170,6030C5176,6030 5180,6021 5180,6010ZM3160,5995C3152,5985 3154,5978 3168,5968C3178,5961 3186,5947 3184,5938C3183,5928 3188,5920 3196,5920C3215,5920 3233,5882 3226,5854C3221,5836 3223,5832 3234,5836C3244,5840 3251,5828 3259,5790C3274,5722 3273,5721 3248,5728C3234,5731 3229,5730 3234,5722C3238,5715 3250,5710 3260,5710C3274,5710 3282,5699 3290,5670C3296,5648 3303,5630 3306,5630C3310,5630 3310,5637 3306,5645C3303,5653 3304,5660 3309,5660C3314,5660 3323,5640 3330,5614C3340,5580 3340,5566 3331,5557C3323,5549 3320,5555 3320,5583C3320,5622 3310,5629 3290,5605C3283,5597 3282,5590 3287,5590C3302,5590 3313,5494 3301,5471C3287,5446 3231,5435 3211,5454C3200,5466 3199,5472 3209,5484C3216,5492 3219,5508 3215,5520C3210,5537 3214,5541 3239,5546C3274,5553 3280,5569 3251,5577C3231,5582 3220,5607 3220,5648C3220,5662 3214,5670 3203,5671C3153,5675 3138,5679 3114,5695C3089,5711 3087,5711 3093,5695C3097,5686 3100,5674 3100,5669C3100,5663 3104,5661 3109,5664C3122,5672 3181,5620 3174,5608C3171,5603 3159,5601 3148,5603C3137,5606 3119,5604 3109,5597C3097,5590 3087,5589 3082,5595C3071,5607 3029,5725 3031,5737C3034,5750 3006,5810 2998,5810C2994,5810 2990,5799 2990,5785C2990,5771 2985,5760 2979,5760C2972,5760 2970,5771 2973,5788L2978,5815L2956,5788C2943,5770 2934,5744 2933,5718C2932,5696 2927,5673 2922,5668C2910,5656 2918,5620 2932,5620C2937,5620 2939,5611 2935,5601C2928,5578 2965,5550 2973,5573C2976,5582 2982,5581 2996,5569C3006,5560 3023,5550 3033,5547C3054,5539 3068,5508 3053,5503C3047,5501 3044,5490 3047,5480C3050,5469 3050,5453 3046,5445C3041,5432 3036,5431 3019,5440C2972,5466 2920,5522 2914,5556C2911,5575 2904,5593 2899,5596C2894,5599 2890,5616 2890,5635C2890,5654 2885,5672 2879,5675C2869,5682 2872,5767 2886,5840C2894,5879 2943,5934 3004,5970L3043,5994L3036,5964L3029,5935L3050,5960C3061,5974 3070,5989 3070,5993C3070,5998 3076,6000 3083,5997C3089,5995 3108,5999 3125,6006C3159,6020 3176,6015 3160,5995ZM3297,5936C3339,5895 3373,5872 3402,5863C3426,5856 3457,5839 3469,5826L3493,5801L3459,5811C3440,5817 3414,5824 3400,5827L3375,5832L3398,5815C3411,5806 3424,5800 3427,5804C3430,5807 3444,5803 3459,5795C3478,5785 3486,5773 3488,5749C3489,5731 3495,5711 3500,5705C3506,5698 3507,5679 3504,5661C3498,5633 3500,5629 3529,5619C3552,5611 3560,5602 3560,5585C3560,5562 3577,5550 3610,5550C3632,5550 3700,5486 3700,5466C3700,5458 3682,5450 3654,5446C3583,5437 3452,5439 3445,5450C3442,5455 3433,5457 3425,5453C3417,5450 3410,5453 3410,5459C3410,5465 3403,5470 3395,5470C3387,5470 3380,5476 3379,5483C3379,5489 3376,5504 3373,5515C3370,5526 3367,5553 3367,5575C3366,5600 3358,5620 3348,5628C3338,5635 3330,5647 3330,5653C3330,5660 3334,5659 3341,5650C3349,5639 3350,5641 3344,5660C3320,5744 3312,5784 3316,5792C3319,5797 3314,5810 3305,5820C3296,5830 3291,5844 3295,5850C3303,5863 3254,5950 3228,5968C3208,5983 3202,6016 3223,6004C3229,6000 3263,5969 3297,5936ZM5684,5937C5684,5928 5683,5899 5682,5873C5680,5830 5679,5828 5665,5846C5650,5866 5646,5900 5656,5938C5663,5964 5685,5963 5684,5937ZM5153,5910C5156,5899 5155,5890 5150,5890C5136,5890 5118,5919 5125,5930C5134,5944 5146,5935 5153,5910ZM5724,5871C5730,5814 5724,5770 5709,5770C5705,5770 5701,5809 5701,5857C5701,5950 5715,5959 5724,5871ZM5224,5877C5232,5865 5231,5857 5223,5849C5207,5833 5190,5847 5190,5876C5190,5904 5207,5904 5224,5877ZM5180,5810C5180,5805 5175,5800 5169,5800C5164,5800 5162,5805 5165,5810C5168,5816 5173,5820 5176,5820C5178,5820 5180,5816 5180,5810ZM3809,5797C3815,5789 3817,5780 3813,5777C3806,5769 3780,5788 3780,5801C3780,5814 3796,5812 3809,5797ZM5263,5757C5284,5749 5285,5730 5266,5704C5252,5685 5235,5690 5235,5713C5235,5734 5203,5732 5197,5710C5191,5685 5160,5683 5160,5708C5160,5727 5189,5773 5190,5755C5190,5750 5197,5756 5207,5769C5221,5789 5225,5791 5234,5778C5240,5770 5253,5761 5263,5757ZM5365,5735C5379,5735 5384,5729 5382,5715C5376,5685 5373,5685 5344,5713C5329,5729 5321,5744 5326,5751C5332,5761 5335,5760 5339,5749C5342,5741 5354,5735 5365,5735ZM5077,5734C5087,5707 5063,5694 5040,5715C5029,5725 5020,5737 5020,5742C5020,5757 5070,5750 5077,5734ZM5515,5709C5511,5696 5513,5690 5523,5690C5537,5690 5560,5650 5560,5625C5560,5602 5538,5596 5524,5615C5513,5630 5513,5636 5523,5648C5533,5661 5532,5662 5514,5652C5486,5637 5470,5654 5470,5698C5470,5724 5473,5731 5485,5726C5493,5723 5500,5725 5500,5731C5500,5737 5505,5738 5510,5735C5516,5731 5518,5720 5515,5709ZM5340,5689C5340,5684 5333,5683 5325,5686C5317,5690 5310,5699 5310,5707C5310,5720 5313,5720 5325,5710C5333,5703 5340,5694 5340,5689ZM5284,5695C5280,5687 5273,5680 5268,5680C5262,5680 5263,5686 5270,5695C5277,5703 5284,5710 5286,5710C5288,5710 5287,5703 5284,5695ZM5660,5665C5660,5640 5643,5640 5627,5664C5618,5677 5614,5690 5617,5694C5626,5703 5660,5681 5660,5665ZM5250,5670C5250,5665 5243,5660 5235,5660C5227,5660 5220,5665 5220,5670C5220,5676 5227,5680 5235,5680C5243,5680 5250,5676 5250,5670ZM5385,5670C5388,5665 5388,5655 5384,5649C5378,5638 5361,5655 5360,5673C5360,5683 5378,5682 5385,5670ZM3606,5661C3611,5656 3632,5647 3653,5640C3673,5634 3702,5619 3716,5607C3755,5574 3840,5487 3840,5479C3840,5465 3798,5483 3787,5502C3770,5530 3672,5601 3668,5589C3662,5572 3632,5590 3626,5615C3623,5627 3611,5640 3600,5643C3589,5646 3580,5653 3580,5659C3580,5672 3592,5673 3606,5661ZM3050,5609C3050,5593 3031,5600 3016,5622C2995,5652 3009,5669 3032,5641C3042,5628 3050,5614 3050,5609ZM5267,5643C5267,5614 5250,5598 5233,5612C5221,5622 5222,5626 5242,5642C5255,5651 5265,5660 5266,5660C5266,5660 5267,5652 5267,5643ZM5330,5646C5330,5643 5326,5638 5320,5635C5315,5632 5310,5634 5310,5639C5310,5645 5315,5650 5320,5650C5326,5650 5330,5648 5330,5646ZM5170,5614C5170,5592 5148,5586 5134,5605C5127,5615 5123,5626 5125,5631C5133,5643 5170,5629 5170,5614ZM5480,5631C5480,5626 5474,5620 5468,5617C5458,5614 5458,5608 5468,5591C5481,5568 5474,5565 5436,5580C5411,5589 5401,5618 5417,5633C5427,5643 5480,5641 5480,5631ZM5636,5614C5641,5595 5638,5585 5626,5578C5617,5573 5610,5560 5610,5550C5610,5539 5604,5530 5596,5530C5573,5530 5565,5552 5583,5565C5593,5572 5600,5591 5600,5609C5600,5648 5627,5652 5636,5614ZM5721,5615C5722,5598 5703,5598 5696,5615C5692,5626 5695,5630 5706,5628C5714,5626 5721,5621 5721,5615ZM5324,5604C5334,5577 5331,5548 5318,5552C5303,5557 5294,5620 5308,5620C5314,5620 5321,5613 5324,5604ZM3044,5568C3041,5563 3032,5564 3024,5571C3017,5577 3013,5586 3016,5592C3019,5597 3028,5596 3036,5589C3043,5583 3047,5574 3044,5568ZM5246,5581C5243,5576 5247,5567 5255,5560C5277,5542 5273,5533 5245,5533C5220,5533 5212,5544 5230,5555C5235,5558 5237,5567 5233,5575C5230,5583 5233,5590 5240,5590C5246,5590 5249,5586 5246,5581ZM5692,5575C5692,5570 5687,5564 5681,5562C5675,5560 5670,5566 5670,5575C5670,5584 5675,5590 5681,5588C5687,5586 5692,5580 5692,5575ZM3165,5550C3168,5545 3166,5540 3161,5540C3155,5540 3150,5545 3150,5550C3150,5556 3152,5560 3154,5560C3157,5560 3162,5556 3165,5550ZM5905,5550C5908,5545 5906,5540 5901,5540C5895,5540 5890,5545 5890,5550C5890,5556 5892,5560 5894,5560C5897,5560 5902,5556 5905,5550ZM5955,5550C5958,5545 5956,5540 5951,5540C5945,5540 5940,5545 5940,5550C5940,5556 5942,5560 5944,5560C5947,5560 5952,5556 5955,5550ZM5310,5540C5310,5535 5306,5530 5300,5530C5295,5530 5290,5535 5290,5540C5290,5546 5295,5550 5300,5550C5306,5550 5310,5546 5310,5540ZM3765,5520C3768,5515 3762,5510 3750,5510C3738,5510 3732,5515 3735,5520C3738,5526 3745,5530 3750,5530C3755,5530 3762,5526 3765,5520ZM5468,5518C5475,5509 5473,5499 5460,5483C5439,5457 5410,5453 5410,5475C5410,5483 5404,5489 5398,5488C5391,5486 5384,5495 5382,5508C5379,5528 5383,5530 5418,5530C5440,5530 5462,5524 5468,5518ZM5210,5510C5210,5505 5208,5500 5206,5500C5203,5500 5198,5505 5195,5510C5192,5516 5194,5520 5199,5520C5205,5520 5210,5516 5210,5510ZM5278,5500C5281,5493 5278,5490 5271,5494C5265,5498 5260,5497 5260,5491C5260,5486 5265,5478 5270,5475C5285,5466 5282,5450 5265,5450C5251,5450 5230,5487 5230,5511C5230,5525 5273,5515 5278,5500ZM5315,5510C5318,5505 5316,5500 5311,5500C5305,5500 5300,5505 5300,5510C5300,5516 5302,5520 5304,5520C5307,5520 5312,5516 5315,5510ZM5741,5497C5752,5500 5760,5497 5760,5491C5760,5485 5744,5480 5725,5480C5700,5480 5690,5484 5690,5495C5690,5507 5694,5509 5706,5502C5715,5497 5731,5495 5741,5497ZM5805,5490C5808,5485 5806,5480 5801,5480C5795,5480 5790,5485 5790,5490C5790,5496 5792,5500 5794,5500C5797,5500 5802,5496 5805,5490ZM5330,5469C5330,5464 5326,5460 5320,5460C5315,5460 5310,5467 5310,5476C5310,5484 5315,5488 5320,5485C5326,5482 5330,5475 5330,5469ZM5541,5477C5540,5465 5526,5468 5522,5481C5519,5487 5523,5491 5530,5489C5536,5486 5541,5481 5541,5477ZM5220,5470C5220,5465 5215,5460 5209,5460C5204,5460 5202,5465 5205,5470C5208,5476 5213,5480 5216,5480C5218,5480 5220,5476 5220,5470ZM5160,5460C5160,5455 5156,5450 5150,5450C5145,5450 5140,5455 5140,5460C5140,5466 5145,5470 5150,5470C5156,5470 5160,5466 5160,5460ZM3088,5434C3097,5439 3127,5413 3119,5406C3109,5398 3050,5431 3056,5441C3060,5449 3065,5448 3070,5440C3074,5433 3082,5430 3088,5434ZM3194,5431C3197,5427 3191,5415 3180,5405C3161,5388 3161,5388 3173,5414C3187,5443 3187,5443 3194,5431ZM4970,5269C4970,5263 4966,5262 4960,5265C4955,5268 4950,5276 4950,5281C4950,5287 4955,5288 4960,5285C4966,5282 4970,5274 4970,5269ZM5050,5200C5050,5195 5046,5190 5040,5190C5035,5190 5030,5195 5030,5200C5030,5206 5035,5210 5040,5210C5046,5210 5050,5206 5050,5200ZM4100,5000C4100,4978 4096,4960 4090,4960C4085,4960 4080,4978 4080,5000C4080,5022 4085,5040 4090,5040C4096,5040 4100,5022 4100,5000ZM4351,4173C4364,4158 4363,4158 4343,4169C4319,4181 4314,4190 4329,4190C4334,4190 4344,4183 4351,4173ZM4402,4069C4417,4059 4438,4050 4450,4050C4461,4050 4470,4045 4470,4039C4470,4032 4456,4031 4428,4035C4381,4043 4345,4063 4336,4086C4328,4106 4363,4097 4402,4069Z" style="fill-rule:nonzero;"/>
    </g>
    <g transform="matrix(0.0756382,-2.98373e-33,-2.98373e-33,-0.0756382,-90.0215,690.949)">
        <path d="M4626,7392C4622,7379 4621,7366 4624,7363C4634,7352 4642,7367 4638,7392L4634,7415L4626,7392Z" style="fill-rule:nonzero;"/>
    </g>
    <g transform="matrix(0.0756382,-2.98373e-33,-2.98373e-33,-0.0756382,-90.0215,690.949)">
        <path d="M4586,7091C4582,7084 4581,7076 4584,7073C4593,7064 4603,7077 4598,7091C4594,7102 4592,7102 4586,7091Z" style="fill-rule:nonzero;"/>
    </g>
    <g transform="matrix(0.0756382,-2.98373e-33,-2.98373e-33,-0.0756382,-90.0215,690.949)">
        <path d="M4190,7016C4190,7010 4250,6950 4256,6950C4259,6950 4248,6966 4233,6985C4208,7016 4190,7029 4190,7016Z" style="fill-rule:nonzero;"/>
    </g>
    <g transform="matrix(0.0756382,-2.98373e-33,-2.98373e-33,-0.0756382,-90.0215,690.949)">
        <path d="M4726,6989C4747,6966 4747,6966 4752,6988C4756,7000 4750,7005 4733,7006C4710,7008 4709,7007 4726,6989Z" style="fill-rule:nonzero;"/>
    </g>
    <g transform="matrix(0.0756382,-2.98373e-33,-2.98373e-33,-0.0756382,-90.0215,690.949)">
        <path d="M4648,6950C4645,6934 4647,6920 4652,6920C4656,6920 4660,6934 4660,6950C4660,6967 4658,6980 4656,6980C4654,6980 4650,6967 4648,6950Z" style="fill-rule:nonzero;"/>
    </g>
    <g transform="matrix(0.0756382,-2.98373e-33,-2.98373e-33,-0.0756382,-90.0215,690.949)">
        <path d="M4721,6954C4721,6943 4724,6940 4727,6948C4730,6955 4729,6964 4726,6967C4723,6971 4720,6965 4721,6954Z" style="fill-rule:nonzero;"/>
    </g>
    <g transform="matrix(0.0756382,-2.98373e-33,-2.98373e-33,-0.0756382,-90.0215,690.949)">
        <path d="M4471,6934C4470,6919 4499,6862 4511,6855C4516,6851 4520,6838 4520,6824C4520,6806 4515,6800 4498,6800C4475,6799 4475,6799 4495,6784C4510,6773 4516,6772 4519,6782C4528,6813 4542,6821 4559,6806C4568,6799 4586,6789 4598,6785C4621,6778 4621,6778 4605,6804C4595,6818 4581,6830 4574,6830C4566,6830 4557,6837 4554,6845C4550,6853 4540,6860 4531,6860C4521,6860 4505,6878 4493,6903C4481,6926 4471,6940 4471,6934Z" style="fill-rule:nonzero;"/>
    </g>
    <g transform="matrix(0.0756382,-2.98373e-33,-2.98373e-33,-0.0756382,-90.0215,690.949)">
        <path d="M4270,6920C4270,6915 4275,6910 4281,6910C4286,6910 4288,6915 4285,6920C4282,6926 4277,6930 4274,6930C4272,6930 4270,6926 4270,6920Z" style="fill-rule:nonzero;"/>
    </g>
    <g transform="matrix(0.0756382,-2.98373e-33,-2.98373e-33,-0.0756382,-90.0215,690.949)">
        <path d="M4420,6906C4420,6898 4425,6888 4430,6885C4436,6882 4440,6886 4440,6894C4440,6902 4436,6912 4430,6915C4425,6918 4420,6914 4420,6906Z" style="fill-rule:nonzero;"/>
    </g>
    <g transform="matrix(0.0756382,-2.98373e-33,-2.98373e-33,-0.0756382,-90.0215,690.949)">
        <path d="M4620,6865C4620,6857 4624,6850 4630,6850C4635,6850 4637,6857 4634,6865C4630,6873 4626,6880 4624,6880C4622,6880 4620,6873 4620,6865Z" style="fill-rule:nonzero;"/>
    </g>
    <g transform="matrix(0.0756382,-2.98373e-33,-2.98373e-33,-0.0756382,-90.0215,690.949)">
        <path d="M4651,6819C4659,6804 4659,6795 4651,6787C4635,6771 4637,6764 4667,6744L4695,6727L4676,6755C4661,6778 4660,6782 4673,6777C4686,6772 4685,6778 4668,6806C4646,6843 4632,6854 4651,6819Z" style="fill-rule:nonzero;"/>
    </g>
    <g transform="matrix(0.0756382,-2.98373e-33,-2.98373e-33,-0.0756382,-90.0215,690.949)">
        <path d="M4660,6669C4672,6653 4684,6641 4687,6644C4694,6650 4660,6700 4648,6700C4643,6700 4648,6686 4660,6669Z" style="fill-rule:nonzero;"/>
    </g>
    <g transform="matrix(0.0756382,-2.98373e-33,-2.98373e-33,-0.0756382,-90.0215,690.949)">
        <path d="M4435,6660C4438,6655 4451,6645 4463,6639C4485,6627 4485,6627 4466,6649C4447,6670 4423,6679 4435,6660Z" style="fill-rule:nonzero;"/>
    </g>
    <g transform="matrix(0.0756382,-2.98373e-33,-2.98373e-33,-0.0756382,-90.0215,690.949)">
        <path d="M4582,6568C4588,6550 4610,6547 4610,6564C4610,6573 4603,6580 4594,6580C4585,6580 4580,6575 4582,6568Z" style="fill-rule:nonzero;"/>
    </g>
    <g transform="matrix(0.0756382,-2.98373e-33,-2.98373e-33,-0.0756382,-90.0215,690.949)">
        <path d="M4690,6506C4690,6504 4697,6497 4705,6490C4718,6479 4719,6480 4714,6494C4709,6508 4690,6517 4690,6506Z" style="fill-rule:nonzero;"/>
    </g>
    <g transform="matrix(0.0756382,-2.98373e-33,-2.98373e-33,-0.0756382,-90.0215,690.949)">
        <path d="M4766,6435C4770,6427 4774,6420 4776,6420C4778,6420 4780,6427 4780,6435C4780,6443 4776,6450 4770,6450C4765,6450 4763,6443 4766,6435Z" style="fill-rule:nonzero;"/>
    </g>
    <g transform="matrix(0.0756382,-2.98373e-33,-2.98373e-33,-0.0756382,-90.0215,690.949)">
        <path d="M4280,7169C4280,7160 4299,7136 4322,7116C4365,7081 4386,7076 4358,7107C4349,7117 4345,7131 4347,7138C4350,7144 4346,7150 4340,7150C4330,7150 4330,7154 4340,7165C4353,7181 4351,7182 4308,7185C4287,7187 4280,7182 4280,7169Z" style="fill-rule:nonzero;"/>
    </g>
    <g transform="matrix(0.0756382,-2.98373e-33,-2.98373e-33,-0.0756382,-90.0215,690.949)">
        <path d="M4385,7060C4388,7055 4393,7050 4396,7050C4398,7050 4400,7055 4400,7060C4400,7066 4395,7070 4389,7070C4384,7070 4382,7066 4385,7060Z" style="fill-rule:nonzero;"/>
    </g>
    <g transform="matrix(0.0756382,-2.98373e-33,-2.98373e-33,-0.0756382,-90.0215,690.949)">
        <path d="M4365,6555C4362,6524 4360,6496 4363,6494C4366,6491 4371,6514 4375,6545C4378,6576 4380,6604 4377,6606C4374,6609 4369,6586 4365,6555Z" style="fill-rule:nonzero;"/>
    </g>
    <g transform="matrix(0.0756382,-2.98373e-33,-2.98373e-33,-0.0756382,-90.0215,690.949)">
        <path d="M4356,6438C4351,6411 4352,6379 4357,6364C4371,6323 4376,6346 4370,6420L4364,6485L4356,6438Z" style="fill-rule:nonzero;"/>
    </g>
    <g transform="matrix(0.0756382,-2.98373e-33,-2.98373e-33,-0.0756382,-90.0215,690.949)">
        <path d="M4395,6370C4398,6365 4406,6360 4411,6360C4417,6360 4418,6365 4415,6370C4412,6376 4404,6380 4399,6380C4393,6380 4392,6376 4395,6370Z" style="fill-rule:nonzero;"/>
    </g>
    <g transform="matrix(0.0756382,-2.98373e-33,-2.98373e-33,-0.0756382,-90.0215,690.949)">
        <path d="M4540,6310C4540,6301 4621,6287 4628,6295C4631,6298 4624,6300 4613,6300C4602,6300 4590,6303 4586,6307C4577,6316 4540,6318 4540,6310Z" style="fill-rule:nonzero;"/>
    </g>
    <g transform="matrix(0.0756382,-2.98373e-33,-2.98373e-33,-0.0756382,-90.0215,690.949)">
        <path d="M4260,6233C4260,6228 4282,6209 4307,6190C4401,6120 4473,6052 4592,5920C4678,5826 4779,5692 4780,5673C4780,5666 4785,5660 4790,5660C4796,5660 4800,5670 4800,5682C4800,5694 4797,5700 4793,5697C4788,5691 4750,5742 4695,5828C4690,5836 4664,5866 4638,5894C4612,5922 4590,5951 4590,5958C4590,5964 4585,5970 4579,5970C4574,5970 4534,6005 4492,6048C4450,6091 4399,6138 4380,6152C4361,6166 4336,6186 4324,6196C4297,6221 4260,6242 4260,6233Z" style="fill-rule:nonzero;"/>
    </g>
    <g transform="matrix(0.0756382,-2.98373e-33,-2.98373e-33,-0.0756382,-90.0215,690.949)">
        <path d="M4640,6238C4640,6236 4665,6207 4696,6175C4731,6137 4745,6126 4733,6146C4717,6172 4640,6249 4640,6238Z" style="fill-rule:nonzero;"/>
    </g>
    <g transform="matrix(0.0756382,-2.98373e-33,-2.98373e-33,-0.0756382,-90.0215,690.949)">
        <path d="M4440,6155C4440,6153 4454,6142 4470,6130C4487,6118 4500,6113 4500,6119C4500,6124 4487,6135 4470,6144C4454,6152 4440,6157 4440,6155Z" style="fill-rule:nonzero;"/>
    </g>
    <g transform="matrix(0.0756382,-2.98373e-33,-2.98373e-33,-0.0756382,-90.0215,690.949)">
        <path d="M4561,6157C4563,6156 4574,6148 4585,6140C4604,6126 4604,6126 4591,6143C4584,6152 4573,6160 4567,6160C4561,6160 4559,6159 4561,6157Z" style="fill-rule:nonzero;"/>
    </g>
    <g transform="matrix(0.0756382,-2.98373e-33,-2.98373e-33,-0.0756382,-90.0215,690.949)">
        <path d="M4660,6123C4660,6119 4665,6108 4670,6100C4678,6087 4680,6087 4680,6102C4680,6111 4676,6122 4670,6125C4665,6128 4660,6128 4660,6123Z" style="fill-rule:nonzero;"/>
    </g>
    <g transform="matrix(0.0756382,-2.98373e-33,-2.98373e-33,-0.0756382,-90.0215,690.949)">
        <path d="M4187,6096C4208,6068 4211,6068 4203,6098C4200,6110 4191,6120 4183,6120C4172,6120 4173,6115 4187,6096Z" style="fill-rule:nonzero;"/>
    </g>
    <g transform="matrix(0.0756382,-2.98373e-33,-2.98373e-33,-0.0756382,-90.0215,690.949)">
        <path d="M4515,6100C4518,6095 4528,6090 4536,6090C4544,6090 4548,6085 4545,6079C4536,6065 4578,6021 4615,6005C4661,5987 4760,5890 4800,5826C4819,5795 4839,5770 4844,5770C4848,5770 4844,5782 4834,5798C4824,5813 4810,5836 4803,5850C4796,5864 4777,5889 4760,5905C4744,5921 4730,5940 4730,5947C4730,5954 4724,5960 4718,5960C4711,5960 4689,5975 4670,5993C4650,6010 4625,6033 4613,6043C4592,6062 4591,6061 4597,6038L4602,6015L4582,6040C4570,6054 4565,6067 4571,6071C4577,6074 4570,6084 4556,6093C4528,6112 4505,6115 4515,6100Z" style="fill-rule:nonzero;"/>
    </g>
    <g transform="matrix(0.0756382,-2.98373e-33,-2.98373e-33,-0.0756382,-90.0215,690.949)">
        <path d="M4763,6100C4766,6092 4779,6055 4790,6017C4802,5980 4816,5947 4821,5944C4833,5937 4821,5991 4809,6005C4804,6010 4800,6027 4800,6042C4800,6058 4790,6081 4779,6093C4767,6105 4760,6108 4763,6100Z" style="fill-rule:nonzero;"/>
    </g>
    <g transform="matrix(0.0756382,-2.98373e-33,-2.98373e-33,-0.0756382,-90.0215,690.949)">
        <path d="M4226,6037C4229,6027 4235,6022 4238,6025C4241,6028 4238,6036 4231,6043C4221,6052 4220,6051 4226,6037Z" style="fill-rule:nonzero;"/>
    </g>
    <g transform="matrix(0.0756382,-2.98373e-33,-2.98373e-33,-0.0756382,-90.0215,690.949)">
        <path d="M3865,6019C3861,6013 3866,6003 3875,5996C3885,5989 3890,5977 3888,5969C3881,5950 3898,5920 3915,5920C3926,5920 3928,5925 3921,5938C3916,5947 3904,5972 3895,5993C3878,6033 3875,6036 3865,6019Z" style="fill-rule:nonzero;"/>
    </g>
    <g transform="matrix(0.0756382,-2.98373e-33,-2.98373e-33,-0.0756382,-90.0215,690.949)">
        <path d="M4848,6023C4855,6020 4864,6021 4867,6024C4871,6027 4865,6030 4854,6029C4843,6029 4840,6026 4848,6023Z" style="fill-rule:nonzero;"/>
    </g>
    <g transform="matrix(0.0756382,-2.98373e-33,-2.98373e-33,-0.0756382,-90.0215,690.949)">
        <path d="M4110,6001C4110,5996 4125,5981 4143,5967C4160,5954 4186,5933 4199,5921C4225,5898 4240,5894 4240,5910C4240,5916 4236,5920 4230,5920C4225,5920 4196,5940 4165,5965C4135,5990 4110,6006 4110,6001Z" style="fill-rule:nonzero;"/>
    </g>
    <g transform="matrix(0.0756382,-2.98373e-33,-2.98373e-33,-0.0756382,-90.0215,690.949)">
        <path d="M3830,5980C3830,5975 3839,5970 3851,5970C3862,5970 3868,5975 3865,5980C3862,5986 3852,5990 3844,5990C3836,5990 3830,5986 3830,5980Z" style="fill-rule:nonzero;"/>
    </g>
    <g transform="matrix(0.0756382,-2.98373e-33,-2.98373e-33,-0.0756382,-90.0215,690.949)">
        <path d="M4285,5960C4295,5949 4305,5940 4307,5940C4309,5940 4305,5949 4298,5960C4291,5971 4281,5980 4276,5980C4271,5980 4275,5971 4285,5960Z" style="fill-rule:nonzero;"/>
    </g>
    <g transform="matrix(0.0756382,-2.98373e-33,-2.98373e-33,-0.0756382,-90.0215,690.949)">
        <path d="M3730,5941C3730,5936 3739,5928 3750,5925C3761,5922 3770,5915 3770,5910C3770,5893 3749,5888 3733,5902C3718,5914 3718,5913 3729,5893C3739,5874 3744,5872 3760,5882C3770,5889 3781,5902 3783,5912C3786,5922 3785,5928 3780,5925C3776,5922 3767,5927 3760,5935C3746,5952 3730,5955 3730,5941Z" style="fill-rule:nonzero;"/>
    </g>
    <g transform="matrix(0.0756382,-2.98373e-33,-2.98373e-33,-0.0756382,-90.0215,690.949)">
        <path d="M4830,5917C4830,5907 4837,5892 4845,5884C4864,5865 4864,5877 4845,5910C4834,5930 4831,5931 4830,5917Z" style="fill-rule:nonzero;"/>
    </g>
    <g transform="matrix(0.0756382,-2.98373e-33,-2.98373e-33,-0.0756382,-90.0215,690.949)">
        <path d="M4027,5903C4032,5891 4029,5888 4017,5893C3979,5907 4000,5872 4070,5803C4148,5725 4180,5701 4180,5720C4180,5725 4173,5730 4165,5730C4157,5730 4150,5733 4150,5738C4150,5742 4132,5764 4111,5787C4089,5810 4062,5850 4050,5875C4029,5919 4014,5937 4027,5903Z" style="fill-rule:nonzero;"/>
    </g>
    <g transform="matrix(0.0756382,-2.98373e-33,-2.98373e-33,-0.0756382,-90.0215,690.949)">
        <path d="M3860,5894C3860,5892 3869,5886 3880,5880C3891,5874 3900,5873 3900,5878C3900,5884 3891,5890 3880,5893C3869,5896 3860,5896 3860,5894Z" style="fill-rule:nonzero;"/>
    </g>
    <g transform="matrix(0.0756382,-2.98373e-33,-2.98373e-33,-0.0756382,-90.0215,690.949)">
        <path d="M4250,5896C4250,5894 4258,5886 4268,5879C4283,5866 4284,5867 4271,5883C4258,5899 4250,5904 4250,5896Z" style="fill-rule:nonzero;"/>
    </g>
    <g transform="matrix(0.0756382,-2.98373e-33,-2.98373e-33,-0.0756382,-90.0215,690.949)">
        <path d="M3790,5880C3790,5875 3795,5870 3801,5870C3806,5870 3808,5875 3805,5880C3802,5886 3797,5890 3794,5890C3792,5890 3790,5886 3790,5880Z" style="fill-rule:nonzero;"/>
    </g>
    <g transform="matrix(0.0756382,-2.98373e-33,-2.98373e-33,-0.0756382,-90.0215,690.949)">
        <path d="M3834,5844C3837,5835 3840,5824 3840,5819C3840,5814 3844,5810 3849,5810C3853,5810 3855,5821 3852,5835C3850,5849 3843,5860 3838,5860C3832,5860 3831,5853 3834,5844Z" style="fill-rule:nonzero;"/>
    </g>
    <g transform="matrix(0.0756382,-2.98373e-33,-2.98373e-33,-0.0756382,-90.0215,690.949)">
        <path d="M3650,5832C3650,5822 3671,5800 3682,5800C3698,5800 3690,5819 3670,5830C3659,5836 3650,5837 3650,5832Z" style="fill-rule:nonzero;"/>
    </g>
    <g transform="matrix(0.0756382,-2.98373e-33,-2.98373e-33,-0.0756382,-90.0215,690.949)">
        <path d="M4446,5785C4450,5777 4457,5770 4462,5770C4468,5770 4467,5776 4460,5785C4453,5793 4446,5800 4444,5800C4442,5800 4443,5793 4446,5785Z" style="fill-rule:nonzero;"/>
    </g>
    <g transform="matrix(0.0756382,-2.98373e-33,-2.98373e-33,-0.0756382,-90.0215,690.949)">
        <path d="M3680,5770C3666,5766 3657,5761 3660,5760C3683,5752 3699,5754 3704,5766C3707,5774 3708,5780 3707,5779C3706,5778 3694,5774 3680,5770Z" style="fill-rule:nonzero;"/>
    </g>
    <g transform="matrix(0.0756382,-2.98373e-33,-2.98373e-33,-0.0756382,-90.0215,690.949)">
        <path d="M4780,5773C4780,5760 4807,5724 4813,5730C4816,5733 4810,5746 4799,5759C4789,5772 4780,5778 4780,5773Z" style="fill-rule:nonzero;"/>
    </g>
    <g transform="matrix(0.0756382,-2.98373e-33,-2.98373e-33,-0.0756382,-90.0215,690.949)">
        <path d="M4453,5754C4498,5714 4576,5664 4582,5673C4586,5680 4593,5680 4604,5671C4625,5653 4624,5636 4604,5644C4589,5650 4589,5648 4601,5634C4610,5623 4616,5622 4618,5629C4621,5638 4625,5638 4636,5629C4662,5607 4650,5635 4619,5668C4596,5692 4585,5698 4580,5690C4574,5681 4560,5689 4530,5718C4507,5740 4479,5758 4469,5757C4459,5756 4452,5755 4453,5754Z" style="fill-rule:nonzero;"/>
    </g>
    <g transform="matrix(0.0756382,-2.98373e-33,-2.98373e-33,-0.0756382,-90.0215,690.949)">
        <path d="M3820,5698C3820,5686 3823,5681 3828,5686C3832,5691 3839,5698 3843,5701C3848,5704 3845,5710 3836,5713C3824,5718 3820,5713 3820,5698Z" style="fill-rule:nonzero;"/>
    </g>
    <g transform="matrix(0.0756382,-2.98373e-33,-2.98373e-33,-0.0756382,-90.0215,690.949)">
        <path d="M3983,5693C3992,5682 4000,5668 4000,5662C4000,5647 4026,5646 4035,5660C4038,5666 4034,5670 4026,5670C4017,5670 4010,5674 4010,5680C4010,5685 4000,5695 3988,5701C3966,5713 3966,5712 3983,5693Z" style="fill-rule:nonzero;"/>
    </g>
    <g transform="matrix(0.0756382,-2.98373e-33,-2.98373e-33,-0.0756382,-90.0215,690.949)">
        <path d="M4200,5690C4188,5682 4189,5680 4208,5680C4220,5680 4230,5685 4230,5690C4230,5703 4219,5703 4200,5690Z" style="fill-rule:nonzero;"/>
    </g>
    <g transform="matrix(0.0756382,-2.98373e-33,-2.98373e-33,-0.0756382,-90.0215,690.949)">
        <path d="M4903,5687C4907,5677 4910,5664 4910,5659C4910,5654 4916,5650 4923,5650C4929,5650 4951,5630 4970,5605C4989,5581 5011,5561 5018,5560C5025,5560 5015,5577 4996,5597C4970,5625 4964,5638 4972,5647C4982,5659 4976,5664 4956,5661C4951,5660 4936,5669 4922,5682C4901,5701 4898,5702 4903,5687Z" style="fill-rule:nonzero;"/>
    </g>
    <g transform="matrix(0.0756382,-2.98373e-33,-2.98373e-33,-0.0756382,-90.0215,690.949)">
        <path d="M3835,5661C3829,5650 3877,5634 3887,5644C3895,5652 3890,5656 3863,5664C3851,5668 3839,5666 3835,5661Z" style="fill-rule:nonzero;"/>
    </g>
    <g transform="matrix(0.0756382,-2.98373e-33,-2.98373e-33,-0.0756382,-90.0215,690.949)">
        <path d="M4232,5640C4239,5629 4249,5620 4254,5620C4259,5620 4255,5629 4245,5640C4235,5651 4225,5660 4223,5660C4221,5660 4225,5651 4232,5640Z" style="fill-rule:nonzero;"/>
    </g>
    <g transform="matrix(0.0756382,-2.98373e-33,-2.98373e-33,-0.0756382,-90.0215,690.949)">
        <path d="M4260,5656C4260,5653 4269,5646 4280,5640C4291,5634 4300,5632 4300,5634C4300,5637 4291,5644 4280,5650C4269,5656 4260,5658 4260,5656Z" style="fill-rule:nonzero;"/>
    </g>
    <g transform="matrix(0.0756382,-2.98373e-33,-2.98373e-33,-0.0756382,-90.0215,690.949)">
        <path d="M4755,5610C4745,5588 4733,5573 4728,5576C4722,5580 4724,5572 4731,5559C4743,5536 4744,5536 4748,5555C4750,5566 4759,5590 4767,5608C4776,5626 4780,5643 4778,5645C4775,5648 4765,5632 4755,5610Z" style="fill-rule:nonzero;"/>
    </g>
    <g transform="matrix(0.0756382,-2.98373e-33,-2.98373e-33,-0.0756382,-90.0215,690.949)">
        <path d="M3897,5625C3893,5617 3894,5609 3898,5606C3902,5603 3907,5610 3907,5621C3909,5644 3904,5646 3897,5625Z" style="fill-rule:nonzero;"/>
    </g>
    <g transform="matrix(0.0756382,-2.98373e-33,-2.98373e-33,-0.0756382,-90.0215,690.949)">
        <path d="M3828,5618C3847,5599 3842,5588 3820,5600C3806,5607 3800,5607 3800,5600C3800,5595 3807,5590 3815,5590C3823,5590 3830,5586 3830,5580C3830,5575 3835,5570 3842,5570C3848,5570 3850,5573 3847,5577C3843,5580 3845,5590 3852,5597C3861,5608 3861,5614 3849,5621C3829,5634 3814,5632 3828,5618Z" style="fill-rule:nonzero;"/>
    </g>
    <g transform="matrix(0.0756382,-2.98373e-33,-2.98373e-33,-0.0756382,-90.0215,690.949)">
        <path d="M3970,5612C3970,5599 3993,5580 4010,5580C4023,5580 4023,5581 4010,5590C4002,5595 4000,5600 4005,5600C4011,5600 4008,5605 4000,5610C3982,5622 3970,5623 3970,5612Z" style="fill-rule:nonzero;"/>
    </g>
    <g transform="matrix(0.0756382,-2.98373e-33,-2.98373e-33,-0.0756382,-90.0215,690.949)">
        <path d="M4341,5598C4343,5596 4359,5584 4375,5570L4405,5545L4381,5573C4367,5588 4352,5600 4347,5600C4341,5600 4339,5599 4341,5598Z" style="fill-rule:nonzero;"/>
    </g>
    <g transform="matrix(0.0756382,-2.98373e-33,-2.98373e-33,-0.0756382,-90.0215,690.949)">
        <path d="M4656,5593C4653,5590 4657,5581 4665,5573C4673,5565 4684,5551 4689,5542C4696,5530 4702,5528 4709,5535C4717,5543 4711,5554 4690,5572C4674,5586 4659,5595 4656,5593Z" style="fill-rule:nonzero;"/>
    </g>
    <g transform="matrix(0.0756382,-2.98373e-33,-2.98373e-33,-0.0756382,-90.0215,690.949)">
        <path d="M4037,5576C4033,5567 4036,5558 4042,5554C4049,5550 4050,5551 4046,5558C4042,5565 4044,5570 4049,5570C4055,5570 4060,5565 4060,5559C4060,5552 4076,5532 4096,5514C4115,5495 4128,5480 4123,5480C4118,5480 4109,5485 4102,5492C4096,5498 4088,5502 4086,5499C4084,5497 4095,5483 4111,5468C4137,5445 4140,5444 4134,5462C4130,5476 4132,5480 4139,5476C4164,5460 4147,5485 4096,5536C4056,5577 4041,5587 4037,5576Z" style="fill-rule:nonzero;"/>
    </g>
    <g transform="matrix(0.0756382,-2.98373e-33,-2.98373e-33,-0.0756382,-90.0215,690.949)">
        <path d="M4600,5534C4600,5528 4622,5505 4648,5483L4696,5442L4708,5468C4722,5497 4714,5514 4698,5487C4689,5470 4686,5471 4652,5496C4632,5512 4612,5529 4608,5534C4603,5542 4600,5542 4600,5534Z" style="fill-rule:nonzero;"/>
    </g>
    <g transform="matrix(0.0756382,-2.98373e-33,-2.98373e-33,-0.0756382,-90.0215,690.949)">
        <path d="M4445,5497C4460,5476 4475,5462 4478,5465C4481,5468 4469,5485 4451,5503L4417,5535L4445,5497Z" style="fill-rule:nonzero;"/>
    </g>
    <g transform="matrix(0.0756382,-2.98373e-33,-2.98373e-33,-0.0756382,-90.0215,690.949)">
        <path d="M4760,5466C4760,5464 4767,5457 4775,5450C4788,5439 4789,5440 4784,5454C4779,5468 4760,5477 4760,5466Z" style="fill-rule:nonzero;"/>
    </g>
    <g transform="matrix(0.0756382,-2.98373e-33,-2.98373e-33,-0.0756382,-90.0215,690.949)">
        <path d="M4160,5457C4160,5453 4175,5435 4193,5417C4251,5355 4292,5300 4278,5300C4271,5300 4274,5294 4285,5288C4296,5282 4313,5268 4322,5256C4339,5235 4339,5235 4336,5265C4334,5281 4327,5296 4321,5298C4315,5300 4310,5308 4310,5316C4310,5325 4306,5329 4302,5326C4297,5323 4280,5334 4264,5351C4240,5376 4238,5383 4250,5391C4263,5400 4262,5401 4248,5396C4237,5393 4224,5399 4213,5413C4192,5439 4160,5465 4160,5457Z" style="fill-rule:nonzero;"/>
    </g>
    <g transform="matrix(0.0756382,-2.98373e-33,-2.98373e-33,-0.0756382,-90.0215,690.949)">
        <path d="M4516,5417C4519,5407 4525,5402 4528,5405C4531,5408 4528,5416 4521,5423C4511,5432 4510,5431 4516,5417Z" style="fill-rule:nonzero;"/>
    </g>
    <g transform="matrix(0.0756382,-2.98373e-33,-2.98373e-33,-0.0756382,-90.0215,690.949)">
        <path d="M4420,5400C4420,5395 4425,5390 4431,5390C4436,5390 4438,5395 4435,5400C4432,5406 4427,5410 4424,5410C4422,5410 4420,5406 4420,5400Z" style="fill-rule:nonzero;"/>
    </g>
    <g transform="matrix(0.0756382,-2.98373e-33,-2.98373e-33,-0.0756382,-90.0215,690.949)">
        <path d="M4653,5390C4650,5379 4643,5370 4637,5370C4630,5370 4630,5366 4638,5358C4648,5348 4653,5348 4660,5360C4671,5377 4673,5410 4664,5410C4661,5410 4656,5401 4653,5390Z" style="fill-rule:nonzero;"/>
    </g>
    <g transform="matrix(0.0756382,-2.98373e-33,-2.98373e-33,-0.0756382,-90.0215,690.949)">
        <path d="M4545,5380C4548,5375 4556,5370 4561,5370C4567,5370 4568,5375 4565,5380C4562,5386 4554,5390 4549,5390C4543,5390 4542,5386 4545,5380Z" style="fill-rule:nonzero;"/>
    </g>
    <g transform="matrix(0.0756382,-2.98373e-33,-2.98373e-33,-0.0756382,-90.0215,690.949)">
        <path d="M4597,5328C4615,5310 4632,5299 4636,5302C4643,5310 4591,5359 4575,5360C4570,5360 4580,5346 4597,5328Z" style="fill-rule:nonzero;"/>
    </g>
    <g transform="matrix(0.0756382,-2.98373e-33,-2.98373e-33,-0.0756382,-90.0215,690.949)">
        <path d="M4485,5320C4495,5309 4508,5300 4513,5300C4519,5300 4515,5309 4505,5320C4495,5331 4482,5340 4477,5340C4471,5340 4475,5331 4485,5320Z" style="fill-rule:nonzero;"/>
    </g>
    <g transform="matrix(0.0756382,-2.98373e-33,-2.98373e-33,-0.0756382,-90.0215,690.949)">
        <path d="M4537,5270C4540,5259 4547,5250 4554,5250C4560,5250 4579,5236 4597,5220C4615,5203 4633,5190 4637,5190C4641,5191 4634,5200 4621,5211C4598,5229 4597,5234 4608,5263L4619,5295L4600,5272C4580,5248 4560,5250 4560,5276C4560,5284 4554,5290 4546,5290C4537,5290 4534,5283 4537,5270Z" style="fill-rule:nonzero;"/>
    </g>
    <g transform="matrix(0.0756382,-2.98373e-33,-2.98373e-33,-0.0756382,-90.0215,690.949)">
        <path d="M4352,5233C4351,5214 4353,5209 4359,5218C4365,5229 4376,5225 4404,5199C4442,5166 4478,5110 4461,5110C4456,5110 4450,5115 4448,5122C4446,5128 4438,5130 4432,5126C4415,5116 4427,5100 4451,5100C4461,5100 4470,5093 4470,5085C4470,5077 4473,5071 4478,5071C4497,5074 4511,5068 4532,5047C4545,5035 4562,5026 4570,5027C4590,5031 4649,4994 4657,4972C4666,4948 4696,4920 4715,4920C4745,4920 4734,4936 4652,5011C4634,5027 4614,5037 4607,5034C4600,5030 4598,5030 4602,5035C4610,5044 4593,5070 4579,5070C4574,5070 4573,5063 4577,5055C4582,5041 4578,5042 4546,5056C4524,5067 4510,5081 4510,5092C4510,5104 4514,5108 4522,5104C4530,5099 4531,5102 4527,5114C4523,5124 4525,5141 4531,5153C4538,5168 4532,5165 4511,5142L4480,5110L4479,5137C4478,5153 4478,5168 4479,5172C4479,5176 4474,5177 4467,5175C4461,5172 4435,5190 4411,5215C4387,5240 4365,5260 4361,5260C4357,5260 4353,5248 4352,5233Z" style="fill-rule:nonzero;"/>
    </g>
    <g transform="matrix(0.0756382,-2.98373e-33,-2.98373e-33,-0.0756382,-90.0215,690.949)">
        <path d="M4780,5223C4780,5211 4808,5185 4814,5191C4816,5193 4809,5204 4799,5214C4788,5225 4780,5229 4780,5223Z" style="fill-rule:nonzero;"/>
    </g>
    <g transform="matrix(0.0756382,-2.98373e-33,-2.98373e-33,-0.0756382,-90.0215,690.949)">
        <path d="M4267,5209C4274,5202 4282,5199 4285,5202C4288,5205 4283,5211 4273,5214C4259,5220 4258,5219 4267,5209Z" style="fill-rule:nonzero;"/>
    </g>
    <g transform="matrix(0.0756382,-2.98373e-33,-2.98373e-33,-0.0756382,-90.0215,690.949)">
        <path d="M4391,5174C4404,5157 4417,5144 4419,5147C4422,5149 4411,5163 4395,5178L4367,5205L4391,5174Z" style="fill-rule:nonzero;"/>
    </g>
    <g transform="matrix(0.0756382,-2.98373e-33,-2.98373e-33,-0.0756382,-90.0215,690.949)">
        <path d="M4675,5160C4672,5155 4674,5150 4679,5150C4685,5150 4690,5155 4690,5160C4690,5166 4688,5170 4686,5170C4683,5170 4678,5166 4675,5160Z" style="fill-rule:nonzero;"/>
    </g>
    <g transform="matrix(0.0756382,-2.98373e-33,-2.98373e-33,-0.0756382,-90.0215,690.949)">
        <path d="M4800,5136C4800,5134 4808,5126 4818,5119C4833,5106 4834,5107 4821,5123C4808,5139 4800,5144 4800,5136Z" style="fill-rule:nonzero;"/>
    </g>
    <g transform="matrix(0.0756382,-2.98373e-33,-2.98373e-33,-0.0756382,-90.0215,690.949)">
        <path d="M4735,5105C4752,5091 4769,5080 4774,5080C4780,5080 4769,5091 4750,5105C4707,5137 4696,5137 4735,5105Z" style="fill-rule:nonzero;"/>
    </g>
    <g transform="matrix(0.0756382,-2.98373e-33,-2.98373e-33,-0.0756382,-90.0215,690.949)">
        <path d="M4790,5070C4790,5065 4793,5060 4798,5060C4802,5060 4820,5046 4839,5030C4858,5013 4876,5002 4879,5006C4882,5009 4874,5020 4860,5030C4846,5041 4840,5050 4845,5050C4854,5050 4803,5080 4794,5080C4792,5080 4790,5076 4790,5070Z" style="fill-rule:nonzero;"/>
    </g>
    <g transform="matrix(0.0756382,-2.98373e-33,-2.98373e-33,-0.0756382,-90.0215,690.949)">
        <path d="M4240,5040C4246,5029 4255,5020 4260,5020C4266,5020 4265,5029 4258,5040C4251,5051 4242,5060 4237,5060C4233,5060 4234,5051 4240,5040Z" style="fill-rule:nonzero;"/>
    </g>
    <g transform="matrix(0.0756382,-2.98373e-33,-2.98373e-33,-0.0756382,-90.0215,690.949)">
        <path d="M4375,5030C4353,5020 4327,4998 4317,4981C4300,4952 4300,4951 4320,4953C4331,4954 4340,4960 4340,4966C4340,4973 4359,4994 4383,5014C4431,5055 4430,5056 4375,5030Z" style="fill-rule:nonzero;"/>
    </g>
    <g transform="matrix(0.0756382,-2.98373e-33,-2.98373e-33,-0.0756382,-90.0215,690.949)">
        <path d="M4455,5040C4458,5035 4463,5030 4466,5030C4468,5030 4470,5035 4470,5040C4470,5046 4465,5050 4459,5050C4454,5050 4452,5046 4455,5040Z" style="fill-rule:nonzero;"/>
    </g>
    <g transform="matrix(0.0756382,-2.98373e-33,-2.98373e-33,-0.0756382,-90.0215,690.949)">
        <path d="M4618,4933C4638,4908 4648,4886 4644,4876C4640,4865 4643,4860 4654,4860C4689,4860 4662,4916 4605,4960C4594,4968 4600,4956 4618,4933Z" style="fill-rule:nonzero;"/>
    </g>
    <g transform="matrix(0.0756382,-2.98373e-33,-2.98373e-33,-0.0756382,-90.0215,690.949)">
        <path d="M4550,4956C4550,4954 4557,4950 4565,4946C4573,4943 4580,4945 4580,4950C4580,4956 4573,4960 4565,4960C4557,4960 4550,4958 4550,4956Z" style="fill-rule:nonzero;"/>
    </g>
    <g transform="matrix(0.0756382,-2.98373e-33,-2.98373e-33,-0.0756382,-90.0215,690.949)">
        <path d="M4536,4924C4525,4916 4520,4910 4526,4910C4539,4910 4565,4928 4560,4934C4557,4936 4546,4932 4536,4924Z" style="fill-rule:nonzero;"/>
    </g>
    <g transform="matrix(0.0756382,-2.98373e-33,-2.98373e-33,-0.0756382,-90.0215,690.949)">
        <path d="M4375,4920C4378,4915 4383,4910 4386,4910C4388,4910 4390,4915 4390,4920C4390,4926 4385,4930 4379,4930C4374,4930 4372,4926 4375,4920Z" style="fill-rule:nonzero;"/>
    </g>
    <g transform="matrix(0.0756382,-2.98373e-33,-2.98373e-33,-0.0756382,-90.0215,690.949)">
        <path d="M4740,4910C4740,4904 4747,4900 4755,4900C4763,4900 4770,4902 4770,4904C4770,4906 4763,4910 4755,4914C4747,4917 4740,4915 4740,4910Z" style="fill-rule:nonzero;"/>
    </g>
    <g transform="matrix(0.0756382,-2.98373e-33,-2.98373e-33,-0.0756382,-90.0215,690.949)">
        <path d="M4400,4902C4400,4896 4414,4878 4432,4861L4464,4832L4477,4857C4487,4876 4488,4886 4480,4894C4472,4902 4471,4900 4475,4889C4483,4867 4460,4853 4446,4871C4427,4895 4400,4913 4400,4902Z" style="fill-rule:nonzero;"/>
    </g>
    <g transform="matrix(0.0756382,-2.98373e-33,-2.98373e-33,-0.0756382,-90.0215,690.949)">
        <path d="M4810,4870C4849,4836 4860,4833 4860,4856C4860,4864 4856,4869 4852,4866C4847,4863 4828,4870 4809,4881L4775,4901L4810,4870Z" style="fill-rule:nonzero;"/>
    </g>
    <g transform="matrix(0.0756382,-2.98373e-33,-2.98373e-33,-0.0756382,-90.0215,690.949)">
        <path d="M4700,4865C4707,4857 4717,4850 4722,4850C4728,4850 4727,4857 4720,4865C4713,4873 4703,4880 4698,4880C4692,4880 4693,4873 4700,4865Z" style="fill-rule:nonzero;"/>
    </g>
    <g transform="matrix(0.0756382,-2.98373e-33,-2.98373e-33,-0.0756382,-90.0215,690.949)">
        <path d="M4660,4846C4660,4844 4668,4836 4678,4829C4693,4816 4694,4817 4681,4833C4668,4849 4660,4854 4660,4846Z" style="fill-rule:nonzero;"/>
    </g>
    <g transform="matrix(0.0756382,-2.98373e-33,-2.98373e-33,-0.0756382,-90.0215,690.949)">
        <path d="M4753,4843C4746,4841 4740,4832 4740,4824C4740,4815 4736,4811 4732,4814C4728,4816 4723,4809 4723,4797C4721,4777 4722,4776 4734,4793C4741,4802 4752,4810 4759,4810C4765,4810 4770,4812 4770,4814C4770,4816 4773,4825 4776,4834C4782,4850 4776,4853 4753,4843Z" style="fill-rule:nonzero;"/>
    </g>
    <g transform="matrix(0.0756382,-2.98373e-33,-2.98373e-33,-0.0756382,-90.0215,690.949)">
        <path d="M4480,4816C4480,4811 4488,4798 4497,4788C4511,4773 4511,4767 4501,4761C4492,4755 4494,4751 4510,4747C4528,4743 4530,4745 4524,4763C4517,4786 4480,4831 4480,4816Z" style="fill-rule:nonzero;"/>
    </g>
    <g transform="matrix(0.0756382,-2.98373e-33,-2.98373e-33,-0.0756382,-90.0215,690.949)">
        <path d="M4806,4785C4820,4763 4840,4751 4840,4765C4840,4772 4801,4810 4795,4810C4792,4810 4797,4799 4806,4785Z" style="fill-rule:nonzero;"/>
    </g>
    <g transform="matrix(0.0756382,-2.98373e-33,-2.98373e-33,-0.0756382,-90.0215,690.949)">
        <path d="M4876,4757C4879,4747 4885,4742 4888,4745C4891,4748 4888,4756 4881,4763C4871,4772 4870,4771 4876,4757Z" style="fill-rule:nonzero;"/>
    </g>
    <g transform="matrix(0.0756382,-2.98373e-33,-2.98373e-33,-0.0756382,-90.0215,690.949)">
        <path d="M4765,4750C4768,4745 4773,4740 4776,4740C4778,4740 4780,4745 4780,4750C4780,4756 4775,4760 4769,4760C4764,4760 4762,4756 4765,4750Z" style="fill-rule:nonzero;"/>
    </g>
    <g transform="matrix(0.0756382,-2.98373e-33,-2.98373e-33,-0.0756382,-90.0215,690.949)">
        <path d="M4850,4741C4850,4736 4855,4728 4860,4725C4866,4722 4870,4723 4870,4729C4870,4734 4866,4742 4860,4745C4855,4748 4850,4747 4850,4741Z" style="fill-rule:nonzero;"/>
    </g>
    <g transform="matrix(0.0756382,-2.98373e-33,-2.98373e-33,-0.0756382,-90.0215,690.949)">
        <path d="M4520,4730C4507,4722 4507,4720 4522,4720C4543,4720 4582,4671 4576,4653C4573,4645 4578,4640 4590,4640C4614,4640 4616,4653 4594,4671C4586,4678 4572,4696 4564,4712C4548,4742 4543,4745 4520,4730Z" style="fill-rule:nonzero;"/>
    </g>
    <g transform="matrix(0.0756382,-2.98373e-33,-2.98373e-33,-0.0756382,-90.0215,690.949)">
        <path d="M4813,4691C4814,4680 4823,4670 4835,4667C4854,4664 4855,4666 4846,4687C4833,4715 4811,4717 4813,4691Z" style="fill-rule:nonzero;"/>
    </g>
    <g transform="matrix(0.0756382,-2.98373e-33,-2.98373e-33,-0.0756382,-90.0215,690.949)">
        <path d="M4335,4590C4332,4585 4333,4580 4339,4580C4344,4580 4352,4585 4355,4590C4358,4596 4357,4600 4351,4600C4346,4600 4338,4596 4335,4590Z" style="fill-rule:nonzero;"/>
    </g>
    <g transform="matrix(0.0756382,-2.98373e-33,-2.98373e-33,-0.0756382,-90.0215,690.949)">
        <path d="M4630,4597C4630,4586 4653,4549 4673,4526C4683,4514 4690,4511 4690,4519C4690,4544 4717,4512 4724,4480C4727,4463 4736,4450 4744,4450C4752,4450 4761,4442 4765,4431C4772,4409 4804,4370 4815,4370C4820,4370 4815,4379 4805,4390C4788,4409 4788,4410 4806,4417C4816,4421 4825,4419 4828,4412C4832,4398 4850,4396 4850,4409C4850,4414 4829,4433 4803,4450C4765,4474 4761,4476 4782,4456C4798,4442 4806,4429 4802,4426C4798,4423 4779,4435 4761,4452C4736,4475 4731,4485 4742,4491C4752,4498 4750,4503 4732,4516C4720,4524 4698,4543 4685,4556C4671,4570 4660,4577 4660,4573C4660,4569 4653,4574 4645,4584C4637,4595 4630,4601 4630,4597Z" style="fill-rule:nonzero;"/>
    </g>
    <g transform="matrix(0.0756382,-2.98373e-33,-2.98373e-33,-0.0756382,-90.0215,690.949)">
        <path d="M4390,4546C4390,4543 4397,4534 4406,4526C4423,4508 4450,4505 4450,4520C4450,4526 4443,4530 4435,4530C4427,4530 4420,4535 4420,4540C4420,4546 4413,4550 4405,4550C4397,4550 4390,4548 4390,4546Z" style="fill-rule:nonzero;"/>
    </g>
    <g transform="matrix(0.0756382,-2.98373e-33,-2.98373e-33,-0.0756382,-90.0215,690.949)">
        <path d="M4471,4487C4477,4474 4496,4458 4513,4452L4545,4440L4507,4475C4462,4516 4457,4518 4471,4487Z" style="fill-rule:nonzero;"/>
    </g>
    <g transform="matrix(0.0756382,-2.98373e-33,-2.98373e-33,-0.0756382,-90.0215,690.949)">
        <path d="M4588,4313C4595,4310 4604,4311 4607,4314C4611,4317 4605,4320 4594,4319C4583,4319 4580,4316 4588,4313Z" style="fill-rule:nonzero;"/>
    </g>
    <g transform="matrix(0.0756382,-2.98373e-33,-2.98373e-33,-0.0756382,-90.0215,690.949)">
        <path d="M4438,4265C4471,4250 4475,4226 4442,4237C4429,4241 4429,4239 4445,4227C4474,4203 4497,4206 4495,4233C4493,4256 4458,4280 4425,4279C4411,4279 4415,4275 4438,4265Z" style="fill-rule:nonzero;"/>
    </g>
    <g transform="matrix(0.0756382,-2.98373e-33,-2.98373e-33,-0.0756382,-90.0215,690.949)">
        <path d="M4656,4265C4660,4256 4671,4245 4681,4240C4712,4223 4714,4229 4686,4255C4655,4284 4648,4286 4656,4265Z" style="fill-rule:nonzero;"/>
    </g>
    <g transform="matrix(0.0756382,-2.98373e-33,-2.98373e-33,-0.0756382,-90.0215,690.949)">
        <path d="M4670,4170C4670,4165 4675,4160 4681,4160C4686,4160 4688,4165 4685,4170C4682,4176 4677,4180 4674,4180C4672,4180 4670,4176 4670,4170Z" style="fill-rule:nonzero;"/>
    </g>
    <g transform="matrix(0.0756382,-2.98373e-33,-2.98373e-33,-0.0756382,-90.0215,690.949)">
        <path d="M5294,5936C5294,5922 5300,5914 5307,5917C5316,5921 5317,5927 5309,5941C5296,5966 5292,5965 5294,5936Z" style="fill-rule:nonzero;"/>
    </g>
    <g transform="matrix(0.0756382,-2.98373e-33,-2.98373e-33,-0.0756382,-90.0215,690.949)">
        <path d="M5450,5985C5450,5977 5452,5970 5454,5970C5456,5970 5460,5977 5464,5985C5467,5993 5465,6000 5460,6000C5454,6000 5450,5993 5450,5985Z" style="fill-rule:nonzero;"/>
    </g>
    <g transform="matrix(0.0756382,-2.98373e-33,-2.98373e-33,-0.0756382,-90.0215,690.949)">
        <path d="M5475,5915C5498,5850 5503,5840 5511,5840C5525,5840 5521,5852 5494,5895C5479,5917 5471,5926 5475,5915Z" style="fill-rule:nonzero;"/>
    </g>
    <g transform="matrix(0.0756382,-2.98373e-33,-2.98373e-33,-0.0756382,-90.0215,690.949)">
        <path d="M4920,5849C4920,5841 4927,5839 4970,5836C4978,5835 4991,5831 4999,5826C5009,5820 5011,5820 5006,5828C5002,5835 5004,5840 5011,5840C5018,5840 5021,5842 5018,5846C5008,5855 4920,5859 4920,5849Z" style="fill-rule:nonzero;"/>
    </g>
    <g transform="matrix(0.0756382,-2.98373e-33,-2.98373e-33,-0.0756382,-90.0215,690.949)">
        <path d="M5868,5856L5832,5821L5847,5768C5863,5712 5881,5691 5944,5660C5992,5636 5991,5636 5984,5655C5980,5664 5983,5670 5991,5670C6000,5670 6001,5673 5994,5680C5987,5687 5996,5703 6022,5731C6046,5756 6060,5780 6058,5791C6053,5823 6037,5818 6028,5783C6023,5765 6014,5750 6008,5750C6002,5750 5989,5743 5979,5735C5965,5721 5961,5721 5948,5733C5940,5742 5921,5746 5902,5744C5871,5740 5868,5749 5889,5785C5892,5791 5895,5802 5895,5810C5895,5818 5914,5835 5938,5848C5961,5861 5980,5875 5980,5879C5980,5883 5963,5887 5943,5888C5912,5889 5898,5883 5868,5856ZM5940,5872C5940,5868 5926,5856 5909,5846C5878,5828 5878,5828 5889,5848C5902,5873 5940,5891 5940,5872Z" style="fill-rule:nonzero;"/>
    </g>
    <g transform="matrix(0.0756382,-2.98373e-33,-2.98373e-33,-0.0756382,-90.0215,690.949)">
        <path d="M6030,5840C6030,5835 6035,5830 6040,5830C6046,5830 6050,5835 6050,5840C6050,5846 6046,5850 6040,5850C6035,5850 6030,5846 6030,5840Z" style="fill-rule:nonzero;"/>
    </g>
    <g transform="matrix(0.0756382,-2.98373e-33,-2.98373e-33,-0.0756382,-90.0215,690.949)">
        <path d="M5905,5770C5909,5764 5916,5762 5921,5765C5935,5774 5932,5780 5914,5780C5906,5780 5902,5775 5905,5770Z" style="fill-rule:nonzero;"/>
    </g>
    <g transform="matrix(0.0756382,-2.98373e-33,-2.98373e-33,-0.0756382,-90.0215,690.949)">
        <path d="M6093,5685C6084,5660 6095,5658 6115,5680C6132,5698 6132,5700 6116,5700C6107,5700 6097,5693 6093,5685Z" style="fill-rule:nonzero;"/>
    </g>
    <g transform="matrix(0.0756382,-2.98373e-33,-2.98373e-33,-0.0756382,-90.0215,690.949)">
        <path d="M6016,5657C6000,5645 6000,5642 6013,5631C6026,5621 6029,5623 6035,5640C6044,5668 6038,5673 6016,5657Z" style="fill-rule:nonzero;"/>
    </g>
    <g transform="matrix(0.0756382,-2.98373e-33,-2.98373e-33,-0.0756382,-90.0215,690.949)">
        <path d="M3080,5905C3073,5896 3070,5887 3074,5883C3077,5880 3080,5882 3080,5888C3080,5895 3087,5900 3095,5900C3103,5900 3110,5905 3110,5910C3110,5925 3094,5922 3080,5905Z" style="fill-rule:nonzero;"/>
    </g>
    <g transform="matrix(0.0756382,-2.98373e-33,-2.98373e-33,-0.0756382,-90.0215,690.949)">
        <path d="M2986,5885C2983,5877 2985,5870 2990,5870C2996,5870 3000,5877 3000,5885C3000,5893 2998,5900 2996,5900C2994,5900 2990,5893 2986,5885Z" style="fill-rule:nonzero;"/>
    </g>
    <g transform="matrix(0.0756382,-2.98373e-33,-2.98373e-33,-0.0756382,-90.0215,690.949)">
        <path d="M3048,5857C3035,5826 3039,5811 3063,5799C3082,5789 3083,5789 3073,5801C3067,5809 3060,5829 3058,5845C3056,5869 3054,5872 3048,5857Z" style="fill-rule:nonzero;"/>
    </g>
    <g transform="matrix(0.0756382,-2.98373e-33,-2.98373e-33,-0.0756382,-90.0215,690.949)">
        <path d="M2986,5851C2982,5844 2981,5836 2984,5833C2993,5824 3003,5837 2998,5851C2994,5862 2992,5862 2986,5851Z" style="fill-rule:nonzero;"/>
    </g>
    <g transform="matrix(0.0756382,-2.98373e-33,-2.98373e-33,-0.0756382,-90.0215,690.949)">
        <path d="M3197,5776C3193,5766 3184,5763 3173,5766C3158,5771 3157,5770 3170,5761C3181,5754 3189,5755 3199,5765C3207,5773 3211,5782 3208,5785C3205,5788 3200,5784 3197,5776Z" style="fill-rule:nonzero;"/>
    </g>
    <g transform="matrix(0.0756382,-2.98373e-33,-2.98373e-33,-0.0756382,-90.0215,690.949)">
        <path d="M3316,5842C3314,5838 3325,5833 3341,5832C3360,5830 3369,5834 3365,5840C3358,5852 3323,5853 3316,5842Z" style="fill-rule:nonzero;"/>
    </g>
    <g transform="matrix(0.0756382,-2.98373e-33,-2.98373e-33,-0.0756382,-90.0215,690.949)">
        <path d="M3385,5760C3388,5755 3393,5750 3396,5750C3398,5750 3400,5755 3400,5760C3400,5766 3395,5770 3389,5770C3384,5770 3382,5766 3385,5760Z" style="fill-rule:nonzero;"/>
    </g>
    <g transform="matrix(0.0756382,-2.98373e-33,-2.98373e-33,-0.0756382,-90.0215,690.949)">
        <path d="M3378,5710C3390,5689 3396,5685 3398,5696C3402,5712 3383,5740 3369,5740C3365,5740 3369,5727 3378,5710Z" style="fill-rule:nonzero;"/>
    </g>
    <g transform="matrix(0.0756382,-2.98373e-33,-2.98373e-33,-0.0756382,-90.0215,690.949)">
        <path d="M3501,5504C3501,5493 3504,5490 3507,5498C3510,5505 3509,5514 3506,5517C3503,5521 3500,5515 3501,5504Z" style="fill-rule:nonzero;"/>
    </g>
</svg>
