<?xml version="1.0" encoding="UTF-8" standalone="no"?>
<!DOCTYPE svg PUBLIC "-//W3C//DTD SVG 1.1//EN" "http://www.w3.org/Graphics/SVG/1.1/DTD/svg11.dtd">
<svg width="100%" height="100%" viewBox="0 0 512 512" version="1.1" xmlns="http://www.w3.org/2000/svg" xmlns:xlink="http://www.w3.org/1999/xlink" xml:space="preserve" xmlns:serif="http://www.serif.com/" style="fill-rule:evenodd;clip-rule:evenodd;stroke-linejoin:round;stroke-miterlimit:2;">
    <g transform="matrix(0.101862,2.50226e-33,2.50226e-33,-0.101862,-19.7568,513.834)">
        <path d="M2160,5042C2142,5040 2128,5028 2115,5002C2104,4982 2065,4917 2028,4857C1916,4679 1886,4610 1871,4495C1866,4453 1861,4444 1843,4442C1830,4440 1811,4427 1799,4412L1778,4385L1804,4382C1837,4378 1838,4360 1806,4360C1775,4360 1766,4347 1746,4277C1737,4245 1721,4212 1711,4202C1700,4193 1681,4175 1667,4162C1648,4145 1636,4116 1620,4044C1600,3957 1594,3944 1556,3908C1516,3869 1515,3865 1515,3804C1515,3756 1512,3740 1500,3737C1492,3735 1476,3709 1466,3679C1391,3467 1310,3282 1229,3137C1183,3055 1180,3047 1193,3027C1242,2952 1335,2900 1421,2898C1519,2896 1517,2895 1546,2958C1636,3156 1661,3209 1723,3330C1791,3462 1877,3625 1910,3685C1979,3810 2084,4005 2145,4124C2167,4168 2190,4205 2196,4207C2209,4211 2238,4143 2278,4010C2305,3924 2317,3879 2349,3755C2354,3733 2386,3564 2420,3380C2454,3196 2497,2982 2517,2905C2562,2724 2567,2701 2590,2540C2601,2466 2621,2342 2635,2265C2712,1834 2747,1565 2753,1352C2757,1243 2761,1216 2775,1200C2789,1184 2793,1166 2791,1112C2789,1075 2787,872 2786,660C2784,351 2781,261 2768,202L2752,129L2794,103C2862,60 2935,30 2988,23L3037,18L3043,66C3085,415 3093,711 3071,1007C3062,1127 2970,1892 2955,1970C2953,1984 2939,2081 2925,2185C2911,2290 2898,2386 2895,2400C2893,2414 2884,2472 2875,2530C2849,2714 2803,2999 2780,3123C2775,3154 2766,3204 2761,3233C2744,3325 2710,3501 2684,3625C2670,3691 2657,3759 2654,3775C2651,3792 2642,3815 2634,3827C2627,3838 2611,3892 2600,3947C2579,4048 2554,4129 2521,4203C2493,4265 2470,4341 2475,4351C2478,4355 2465,4380 2446,4405C2412,4449 2371,4530 2369,4554C2369,4560 2350,4579 2327,4596C2291,4622 2285,4631 2286,4662C2287,4704 2325,4770 2347,4770C2378,4770 2497,4680 2580,4593C2627,4545 2702,4458 2747,4400C2792,4342 2841,4283 2855,4267C2869,4252 2917,4185 2962,4117C3007,4050 3151,3838 3283,3645C3637,3130 3793,2893 3856,2778C3887,2721 3922,2664 3933,2652C3985,2595 4101,2565 4174,2590C4247,2614 4246,2668 4171,2775C4143,2814 4057,2940 3979,3055C3901,3171 3804,3308 3765,3360C3726,3412 3672,3493 3645,3540C3533,3736 3310,4061 3075,4370C3010,4455 2926,4566 2888,4616C2840,4681 2801,4720 2757,4749C2723,4772 2681,4801 2665,4813C2414,4996 2277,5058 2160,5042Z" style="fill-rule:nonzero;"/>
    </g>
</svg>
