<?xml version="1.0" encoding="UTF-8" standalone="no"?>
<!DOCTYPE svg PUBLIC "-//W3C//DTD SVG 1.1//EN" "http://www.w3.org/Graphics/SVG/1.1/DTD/svg11.dtd">
<svg width="100%" height="100%" viewBox="0 0 512 512" version="1.1" xmlns="http://www.w3.org/2000/svg" xmlns:xlink="http://www.w3.org/1999/xlink" xml:space="preserve" xmlns:serif="http://www.serif.com/" style="fill-rule:evenodd;clip-rule:evenodd;stroke-linejoin:round;stroke-miterlimit:2;">
    <g transform="matrix(0.101265,0,0,-0.101265,-3.3769,515.086)">
        <path d="M2335,5075C2275,5068 2196,5059 2160,5055C2050,5043 1874,4976 1773,4907C1730,4878 1614,4765 1571,4711C1522,4648 1454,4506 1431,4415C1419,4371 1407,4292 1403,4238C1396,4126 1413,4138 1245,4120C1190,4114 1111,4105 1070,4100C1029,4095 921,4086 830,4080C628,4066 624,4065 605,4036C585,4006 527,3743 489,3513C461,3340 452,3268 430,3070C425,3023 413,2920 404,2840C373,2564 376,1544 410,880C417,738 420,719 448,652C495,543 597,393 692,296C707,279 720,263 720,258C720,254 737,232 758,208C854,100 897,57 922,44C974,17 1448,32 1905,75C2062,90 2347,111 2645,131C2986,153 3223,162 3755,170C4256,177 4327,180 4430,199C4493,210 4565,227 4589,236C4661,263 4730,311 4737,338C4747,378 4732,666 4715,770C4706,822 4695,890 4691,920C4686,950 4679,982 4676,990C4668,1010 4613,1464 4600,1620C4574,1927 4559,2117 4549,2275C4536,2489 4537,3396 4550,3805C4555,3976 4560,4124 4560,4136C4560,4156 4553,4157 4328,4168C4200,4175 4019,4182 3926,4185C3808,4188 3754,4193 3749,4202C3745,4208 3739,4230 3735,4249C3723,4317 3641,4513 3601,4574C3537,4671 3523,4689 3495,4720C3343,4885 3152,5003 2945,5061C2876,5080 2836,5083 2655,5086C2525,5088 2403,5084 2335,5075ZM2930,4912C3014,4882 3047,4867 3093,4836C3114,4822 3143,4804 3158,4796C3195,4777 3348,4622 3367,4585C3375,4569 3397,4533 3416,4505C3434,4478 3469,4403 3494,4340C3578,4123 3614,3884 3608,3588L3605,3431L3495,3481L3494,3733C3494,4055 3472,4236 3417,4385C3339,4597 3226,4716 3040,4781C2942,4816 2537,4831 2405,4806C2152,4757 1987,4659 1850,4474C1804,4413 1730,4230 1730,4178C1730,4162 1721,4160 1660,4160L1589,4160L1596,4223C1625,4486 1780,4722 1988,4821C2096,4873 2143,4887 2309,4915C2427,4936 2473,4938 2655,4936C2844,4934 2872,4932 2930,4912ZM2834,4624C2898,4532 2915,4468 2915,4323C2915,4256 2913,4200 2910,4197C2904,4191 2450,4170 2168,4163C1918,4157 1934,4149 1971,4255C2030,4423 2161,4560 2323,4622C2470,4678 2528,4688 2679,4686L2793,4685L2834,4624ZM3052,4634C3100,4609 3187,4531 3219,4484C3250,4440 3304,4308 3319,4241L3328,4200L3065,4200L3064,4328C3064,4441 3061,4464 3036,4534C3020,4578 2999,4622 2989,4634C2951,4674 2974,4674 3052,4634ZM3344,4068C3347,4055 3350,4030 3350,4013L3350,3980L3272,3980C3229,3980 3159,3976 3115,3970C3071,3965 2970,3956 2890,3950C2810,3944 2698,3936 2640,3930C2342,3904 2096,3886 2020,3886L1935,3885L1932,3968L1929,4050L2097,4050C2189,4050 2360,4054 2475,4060C2694,4071 3089,4086 3246,4088C3333,4090 3338,4089 3344,4068ZM3963,4044C4046,4040 4126,4034 4139,4031C4152,4027 4080,4019 3980,4012C3879,4006 3795,4001 3794,4003C3793,4004 3788,4018 3784,4034C3778,4059 3780,4062 3794,4057C3803,4053 3879,4047 3963,4044ZM1712,3953C1714,3904 1714,3863 1713,3862C1707,3850 1192,3834 1013,3840C1006,3840 1000,3846 1000,3854C1000,3861 970,3891 934,3919C893,3950 873,3972 881,3974C889,3977 1012,3991 1155,4004C1498,4038 1480,4036 1602,4038L1709,4040L1712,3953ZM4343,3628C4321,3027 4332,2311 4370,1855C4409,1377 4434,1157 4479,880C4514,661 4530,524 4530,441L4530,380L4485,380C4460,380 4398,376 4347,371C4296,366 4082,359 3870,355C3465,349 3089,337 2830,320C2745,315 2628,308 2570,305C2223,288 2069,278 1400,230C1320,225 1213,220 1163,220L1070,220L1070,288C1070,325 1074,425 1080,510C1109,973 1122,1820 1105,2070C1102,2117 1095,2297 1089,2470C1077,2859 1073,2961 1060,3170C1036,3582 1028,3741 1031,3743C1033,3745 1145,3743 1280,3740L1525,3735L1531,3580C1537,3436 1545,3349 1556,3308C1569,3262 1735,3190 1827,3190C1868,3190 1878,3195 1921,3239C1979,3296 1977,3284 1955,3550C1935,3792 1932,3770 1984,3770C2009,3770 2062,3774 2102,3779C2142,3784 2252,3794 2345,3800C2647,3819 3122,3849 3243,3856L3360,3863L3360,3430L3413,3397C3562,3303 3655,3296 3771,3372L3822,3405L3818,3647L3815,3889L3860,3895C3885,3898 3967,3905 4043,3910C4181,3920 4332,3938 4339,3946C4353,3960 4354,3908 4343,3628ZM787,3785C835,3766 840,3754 840,3655C840,3617 844,3515 850,3430C903,2589 922,1547 895,920C892,862 888,725 884,615C881,505 875,409 871,402C865,391 857,396 839,420C826,437 801,468 784,488C767,508 738,548 720,575C701,603 663,658 636,699C608,739 580,781 574,791C568,802 560,904 556,1032C552,1155 544,1336 539,1435C522,1754 516,2516 529,2688C556,3036 624,3586 665,3785C673,3823 680,3857 680,3859C680,3862 695,3850 713,3833C730,3816 764,3794 787,3785ZM1728,3715C1729,3693 1737,3609 1745,3527C1764,3340 1765,3350 1736,3350C1684,3350 1672,3374 1656,3524C1639,3675 1636,3743 1647,3754C1651,3758 1670,3760 1690,3758C1723,3755 1725,3753 1728,3715Z" style="fill-rule:nonzero;"/>
    </g>
    <g transform="matrix(0.101265,0,0,-0.101265,-3.3769,515.086)">
        <path d="M4116,870C4084,825 4045,783 4031,775C4016,768 3997,754 3990,745C3957,706 3902,689 3817,692L3735,695L3732,666C3726,618 3738,594 3780,565C3815,541 3826,538 3882,542C4008,550 4178,666 4240,787C4269,843 4271,852 4260,884C4248,921 4217,950 4190,950C4181,950 4148,914 4116,870Z" style="fill-rule:nonzero;"/>
    </g>
</svg>
