<?xml version="1.0" encoding="UTF-8" standalone="no"?>
<!DOCTYPE svg PUBLIC "-//W3C//DTD SVG 1.1//EN" "http://www.w3.org/Graphics/SVG/1.1/DTD/svg11.dtd">
<svg width="100%" height="100%" viewBox="0 0 512 512" version="1.1" xmlns="http://www.w3.org/2000/svg" xmlns:xlink="http://www.w3.org/1999/xlink" xml:space="preserve" xmlns:serif="http://www.serif.com/" style="fill-rule:evenodd;clip-rule:evenodd;stroke-linejoin:round;stroke-miterlimit:2;">
    <g transform="matrix(0.100746,1.96316e-33,1.96316e-33,-0.100746,-1.00746,514.425)">
        <path d="M4172,4990C4117,4956 4107,4919 4079,4630C4074,4572 4056,4446 4040,4350C4024,4254 4004,4128 3996,4070C3950,3750 3895,3392 3885,3343C3880,3324 3876,3322 3854,3330C3840,3336 3770,3340 3698,3340L3567,3340L3574,3443C3588,3669 3593,3719 3600,3730C3604,3737 3651,3743 3721,3746C3897,3754 3953,3779 3916,3835C3885,3882 3845,3894 3723,3893L3610,3893L3610,3934C3611,4027 3629,4363 3634,4367C3636,4370 3697,4375 3769,4379C3931,4388 3934,4389 3938,4498C3940,4540 3937,4588 3930,4604L3919,4633L3762,4627C3521,4617 2731,4557 2335,4519C2081,4495 1814,4470 1700,4461C1456,4440 1084,4399 795,4360C757,4355 642,4341 540,4330C141,4286 107,4279 47,4222L10,4186L10,4094C10,4042 16,3981 25,3954C70,3804 190,3430 246,3265C282,3161 327,3023 346,2960C365,2897 397,2795 415,2733C506,2436 610,2053 610,2015C610,1983 667,1901 697,1889C714,1882 890,1875 1140,1869C1687,1858 2424,1833 2785,1815C3064,1800 3143,1795 3460,1769C3561,1761 3619,1760 3653,1767L3700,1778L3700,1746C3700,1708 3677,1497 3654,1311C3637,1176 3635,1171 3611,1166C3596,1163 3502,1165 3400,1170C3298,1175 3026,1187 2795,1195C2360,1211 2205,1217 2060,1225C1802,1240 1228,1263 1120,1264C920,1265 795,1231 770,1170C754,1132 767,1095 806,1060L841,1030L1008,1030C1100,1029 1222,1025 1280,1020C1556,995 2753,952 3278,948L3682,945L3701,968C3718,990 3721,991 3742,976C3772,954 3812,956 3842,980C3873,1004 3884,1032 3904,1130C3919,1208 3926,1265 4010,1965C4038,2196 4067,2439 4075,2505C4107,2761 4160,3218 4190,3490C4207,3647 4230,3847 4241,3935C4252,4023 4268,4149 4276,4215C4299,4402 4331,4645 4334,4648C4336,4649 4375,4639 4421,4626C4644,4561 4831,4518 4912,4513C4998,4507 4999,4507 5028,4536C5064,4572 5094,4687 5092,4780C5091,4855 5079,4895 5053,4908C5029,4921 4924,4936 4687,4960C4579,4971 4442,4987 4383,4995C4243,5015 4212,5014 4172,4990ZM3570,4559C3570,4534 3553,4500 3540,4500C3534,4500 3530,4518 3530,4540C3530,4573 3533,4580 3550,4580C3564,4580 3570,4573 3570,4559ZM3497,4278C3493,4227 3487,4121 3484,4044L3477,3903L3411,3896C3289,3885 3080,3889 3080,3903C3080,3909 3087,4004 3097,4112C3106,4221 3111,4312 3109,4314C3106,4317 3079,4316 3047,4313C2999,4308 2989,4304 2985,4286C2983,4274 2978,4187 2975,4091C2971,3996 2966,3912 2964,3905C2960,3897 2916,3891 2817,3886C2739,3883 2631,3877 2578,3874L2480,3867L2480,4240L2380,4240L2379,4098C2379,4019 2379,3936 2380,3912C2381,3885 2377,3868 2368,3866C2361,3863 2301,3859 2235,3855C2169,3852 2079,3846 2035,3842C1991,3838 1935,3835 1910,3835L1865,3835L1863,3964C1862,4036 1859,4113 1855,4137C1849,4179 1848,4180 1809,4180L1770,4180L1770,3822L1658,3815C1596,3812 1498,3805 1440,3799C1382,3794 1309,3790 1278,3790C1211,3790 1217,3778 1201,3949C1195,4012 1186,4068 1181,4073C1177,4077 1157,4080 1139,4078L1105,4075L1108,3995C1110,3951 1115,3886 1120,3850C1125,3815 1127,3784 1125,3781C1118,3774 931,3762 663,3750C531,3745 410,3736 396,3730C381,3725 364,3707 357,3691C345,3662 342,3669 278,3858C242,3966 215,4059 219,4063C223,4067 305,4079 401,4090C497,4101 589,4112 607,4115C642,4121 911,4149 1235,4180C1513,4207 1661,4220 2030,4250C2093,4255 2240,4268 2355,4279C2471,4290 2610,4302 2665,4305C2720,4308 2846,4318 2945,4326C3044,4334 3206,4347 3305,4354C3404,4362 3489,4368 3494,4369C3499,4369 3500,4330 3497,4278ZM3456,3653C3446,3529 3428,3356 3425,3349C3423,3346 3335,3343 3229,3341L3037,3338L3043,3497C3046,3584 3054,3672 3060,3692L3071,3729L3163,3733C3214,3734 3302,3737 3359,3738L3462,3740L3456,3653ZM2957,3653C2949,3514 2928,3355 2916,3348C2910,3344 2814,3340 2703,3340L2501,3340L2496,3373C2493,3390 2488,3474 2485,3558L2480,3710L2527,3711C2554,3712 2625,3716 2685,3720C2746,3723 2833,3727 2878,3728L2962,3730L2957,3653ZM2374,3664C2377,3638 2380,3555 2380,3479L2380,3342L2343,3336C2322,3333 2209,3328 2093,3324L1880,3318L1880,3416C1880,3471 1877,3552 1874,3596L1867,3678L1951,3684C1997,3687 2105,3694 2190,3698C2275,3703 2350,3708 2356,3708C2362,3709 2370,3689 2374,3664ZM1778,3518C1779,3434 1783,3353 1786,3338C1791,3314 1788,3310 1768,3310C1755,3310 1648,3303 1530,3295C1412,3287 1301,3280 1283,3280L1252,3280L1245,3358C1242,3400 1235,3480 1230,3535C1223,3610 1224,3636 1233,3642C1240,3646 1290,3650 1345,3651C1400,3652 1488,3656 1540,3660C1592,3663 1667,3667 1705,3668L1775,3670L1778,3518ZM1144,3618C1149,3591 1170,3336 1170,3299L1170,3273L1050,3267C848,3256 668,3231 645,3210C634,3200 616,3190 605,3188C591,3186 584,3176 582,3154C576,3098 590,3095 788,3109C885,3117 1015,3125 1076,3127L1187,3132L1193,3024C1197,2965 1200,2891 1200,2859L1200,2802L1158,2794C1134,2790 1019,2787 901,2788C733,2789 681,2786 659,2775C632,2761 631,2761 625,2793C621,2810 560,3000 489,3213C418,3426 360,3603 360,3605C360,3608 413,3610 478,3611C577,3612 1110,3634 1132,3639C1136,3639 1142,3630 1144,3618ZM3865,3190C3861,3179 3852,3119 3845,3057C3837,2996 3824,2893 3816,2830C3808,2767 3794,2648 3786,2565C3745,2180 3728,2025 3725,2022C3724,2020 3696,2030 3663,2044C3611,2066 3598,2067 3559,2058C3514,2048 3352,2051 3015,2070C2805,2082 2005,2100 1305,2109L815,2115L772,2270C748,2355 722,2448 714,2475C693,2541 661,2672 660,2688C660,2694 665,2700 671,2700C676,2700 679,2696 675,2691C665,2674 783,2665 997,2667L1208,2669L1214,2597C1226,2444 1229,2371 1230,2273L1230,2170L1259,2170C1321,2170 1320,2168 1319,2334C1319,2417 1315,2528 1311,2580C1307,2632 1304,2676 1305,2677C1309,2684 1804,2700 1811,2693C1816,2688 1822,2569 1826,2426C1834,2155 1836,2140 1880,2140C1891,2140 1907,2151 1915,2164C1930,2186 1930,2216 1921,2446C1915,2588 1912,2706 1914,2708C1921,2714 2409,2744 2415,2738C2418,2735 2425,2639 2430,2524C2435,2409 2442,2281 2444,2240C2447,2199 2449,2155 2450,2143C2450,2124 2456,2120 2479,2120C2502,2120 2513,2128 2530,2158C2552,2194 2553,2199 2547,2430C2543,2559 2537,2682 2534,2702C2528,2738 2529,2739 2561,2744C2580,2747 2662,2752 2744,2755L2892,2761L2889,2446C2886,2222 2888,2128 2896,2120C2902,2114 2920,2110 2936,2112C2985,2117 2991,2145 3001,2428C3006,2569 3012,2702 3016,2723L3022,2760L3383,2760L3376,2657C3372,2600 3363,2518 3355,2474C3335,2361 3316,2120 3326,2110C3331,2105 3357,2100 3385,2099L3435,2096L3441,2140C3445,2165 3453,2239 3460,2305C3467,2371 3482,2499 3494,2590L3515,2755L3639,2755C3761,2755 3763,2756 3783,2781C3796,2799 3800,2815 3795,2829C3786,2860 3732,2890 3689,2890C3669,2890 3625,2893 3591,2897L3528,2903L3534,2959C3536,2990 3542,3052 3546,3098C3550,3143 3558,3184 3564,3188C3570,3192 3625,3198 3685,3201C3888,3211 3872,3212 3865,3190ZM3417,3157C3414,3133 3408,3066 3404,3008L3397,2903L3286,2897C3225,2893 3141,2887 3098,2884L3022,2877L3026,3001C3029,3069 3033,3140 3036,3157L3041,3189L3193,3193C3277,3194 3362,3197 3384,3198L3423,3200L3417,3157ZM2391,3152C2395,3134 2401,3063 2405,2995L2412,2872L2368,2866C2304,2859 2012,2840 1958,2840C1913,2840 1911,2841 1906,2873C1903,2890 1899,2965 1897,3038L1893,3170L1959,3171C1995,3172 2099,3176 2190,3180C2281,3183 2362,3186 2370,3186C2378,3185 2387,3170 2391,3152ZM2915,3083C2912,3023 2907,2956 2904,2933L2899,2891L2847,2886C2818,2883 2736,2879 2664,2877L2532,2873L2526,2944C2523,2983 2518,3054 2514,3103L2508,3190L2921,3190L2915,3083ZM1794,3098C1797,3058 1801,2981 1803,2928L1807,2832L1726,2826C1582,2816 1305,2803 1301,2806C1295,2811 1269,3133 1275,3138C1277,3141 1384,3148 1512,3155C1640,3162 1755,3168 1767,3169C1787,3170 1789,3164 1794,3098ZM3899,1726C3888,1717 3830,1711 3835,1720C3838,1726 3855,1730 3872,1730C3889,1730 3901,1728 3899,1726Z" style="fill-rule:nonzero;"/>
    </g>
    <g transform="matrix(0.100746,1.96316e-33,1.96316e-33,-0.100746,-1.00746,514.425)">
        <path d="M1066,934C947,911 839,844 790,765C765,724 761,646 782,579C799,521 894,424 1015,342C1091,290 1229,223 1301,204C1393,179 1587,179 1657,203C1752,236 1840,367 1840,473C1840,518 1806,617 1771,673C1735,732 1673,777 1528,849C1406,909 1371,922 1291,935C1180,953 1158,953 1066,934ZM1285,704C1355,680 1515,564 1515,537C1515,506 1463,496 1367,510C1266,525 1193,557 1099,630C1075,649 1053,665 1051,667C1049,669 1052,681 1058,695C1069,719 1074,720 1153,720C1204,720 1255,714 1285,704Z" style="fill-rule:nonzero;"/>
    </g>
    <g transform="matrix(0.100746,1.96316e-33,1.96316e-33,-0.100746,-1.00746,514.425)">
        <path d="M3215,906C3139,882 3055,831 3020,789C2954,708 2938,671 2932,588C2928,518 2930,506 2960,441C3009,335 3136,225 3270,173C3387,127 3437,118 3549,122C3647,125 3661,128 3732,163C3795,193 3818,211 3849,253C3906,330 3925,389 3925,490C3925,562 3921,583 3898,630C3839,750 3750,819 3593,868C3430,919 3298,932 3215,906ZM3458,629C3481,623 3502,609 3505,600C3511,582 3550,560 3578,560C3587,560 3610,551 3628,540C3654,524 3660,514 3660,486C3660,459 3652,445 3621,417C3549,352 3458,357 3328,430C3229,486 3209,506 3217,539C3226,577 3250,610 3285,632C3318,653 3382,652 3458,629Z" style="fill-rule:nonzero;"/>
    </g>
</svg>
