<?xml version="1.0" encoding="UTF-8" standalone="no"?>
<!DOCTYPE svg PUBLIC "-//W3C//DTD SVG 1.1//EN" "http://www.w3.org/Graphics/SVG/1.1/DTD/svg11.dtd">
<svg width="100%" height="100%" viewBox="0 0 512 512" version="1.1" xmlns="http://www.w3.org/2000/svg" xmlns:xlink="http://www.w3.org/1999/xlink" xml:space="preserve" xmlns:serif="http://www.serif.com/" style="fill-rule:evenodd;clip-rule:evenodd;stroke-linejoin:round;stroke-miterlimit:2;">
    <g transform="matrix(0.100812,0,0,-0.100812,-2.14275,506.892)">
        <path d="M2190,4520C2105,4506 1845,4450 1750,4426C1698,4412 1617,4392 1570,4381C1463,4356 1322,4317 1100,4250C1042,4233 975,4212 950,4205C901,4190 634,4096 530,4057C391,4004 276,3952 246,3928L215,3903L248,3866C292,3816 288,3808 242,3853C198,3896 186,3898 165,3866C138,3825 129,3779 120,3635C115,3558 104,3416 96,3320C88,3224 74,3053 66,2940C57,2827 43,2681 34,2615C20,2512 19,2409 24,1875C32,1084 57,543 86,533C92,531 120,512 149,490L202,450L634,450C871,450 1144,455 1240,460C1336,466 1525,474 1660,480C1795,485 1919,491 1935,494C2033,512 3402,544 3820,538C3911,537 4012,537 4045,538C4407,547 4799,550 4855,543C4894,538 4940,537 4958,541C4995,548 5040,592 5040,619C5040,629 5054,667 5070,702L5100,766L5080,949C5055,1175 5040,1408 5040,1559C5040,1622 5036,1724 5030,1784C5025,1845 5013,2003 5005,2135C4984,2442 4955,2706 4903,3060C4873,3263 4860,3366 4846,3502L4832,3638L4786,3695C4761,3725 4740,3756 4740,3761C4740,3789 4697,3830 4657,3841C4634,3847 4588,3863 4555,3877C4479,3910 4396,3940 4245,3991C4179,4014 4091,4046 4050,4062C4009,4079 3935,4105 3885,4121C3836,4138 3768,4162 3735,4175C3702,4188 3635,4209 3585,4223C3536,4236 3421,4268 3330,4293C3180,4334 3075,4360 2935,4392C2908,4398 2827,4418 2755,4436C2477,4508 2411,4522 2396,4517C2388,4514 2376,4492 2369,4468C2351,4406 2345,4404 2326,4455C2296,4531 2287,4536 2190,4520ZM2572,4244C2651,4224 2787,4186 2874,4159C2962,4132 3042,4110 3052,4110C3062,4110 3105,4099 3148,4085C3321,4030 3447,3992 3480,3985C3519,3977 4032,3807 4235,3735C4307,3709 4405,3675 4454,3659C4503,3643 4544,3629 4546,3627C4552,3621 4444,3506 4045,3095C3884,2930 3721,2759 3682,2715C3612,2636 3593,2618 3473,2517C3350,2414 3220,2319 3209,2325C3181,2343 2524,2350 2239,2336C2076,2328 2062,2328 2034,2346C2009,2362 2007,2363 2019,2347C2031,2332 2030,2330 2011,2330C1994,2330 1990,2336 1990,2360C1990,2377 1986,2390 1981,2390C1977,2390 1962,2401 1949,2414C1936,2427 1907,2449 1886,2464C1865,2478 1766,2568 1666,2663C1566,2759 1442,2874 1390,2921C1338,2967 1252,3048 1199,3100C1068,3230 975,3311 845,3411C693,3526 480,3701 480,3710C480,3728 812,3849 1095,3936C1194,3966 1325,4006 1385,4025C1515,4065 1644,4100 1795,4135C1856,4149 1921,4165 1940,4170C1981,4181 2068,4200 2240,4235C2309,4249 2374,4265 2385,4270C2415,4283 2418,4283 2572,4244ZM393,3633C416,3618 453,3591 474,3573C496,3555 517,3540 522,3540C530,3540 678,3426 690,3411C693,3408 719,3385 749,3360C826,3297 835,3289 926,3213C970,3176 1026,3129 1050,3110C1074,3091 1105,3064 1120,3050C1135,3036 1164,3012 1184,2995C1264,2929 1333,2865 1580,2627C1758,2454 1878,2350 1899,2350C1905,2350 1910,2343 1910,2335C1910,2306 1887,2274 1842,2239C1816,2219 1710,2119 1605,2018C1501,1917 1379,1801 1335,1761C1291,1720 1232,1666 1205,1639C1177,1612 1151,1590 1147,1590C1137,1590 979,1438 740,1201C613,1074 491,963 419,908C354,860 300,820 299,820C288,820 297,2350 308,2555C329,2950 340,3237 340,3453C340,3567 342,3660 345,3660C348,3660 369,3648 393,3633ZM4614,3433C4617,3401 4622,3321 4625,3255C4631,3130 4642,3028 4665,2875C4679,2787 4684,2745 4714,2490C4751,2176 4755,2136 4770,1810C4776,1692 4784,1548 4790,1490C4800,1373 4828,1077 4839,958C4843,911 4842,880 4837,880C4832,880 4759,949 4676,1033C4593,1116 4514,1194 4500,1205C4486,1217 4448,1255 4416,1290C4266,1454 4000,1716 3850,1850C3759,1930 3631,2049 3565,2114C3499,2179 3433,2239 3418,2248C3402,2257 3390,2270 3390,2278C3390,2285 3416,2314 3448,2343C3509,2398 3814,2704 3908,2805C4027,2932 4106,3013 4345,3248C4480,3381 4595,3490 4600,3490C4604,3490 4611,3464 4614,3433ZM2037,2175L2074,2130L3267,2130L3293,2160C3308,2177 3330,2190 3341,2190C3353,2190 3390,2161 3433,2118C3473,2079 3531,2025 3563,1999C3618,1955 3731,1849 3757,1819C3763,1811 3807,1769 3855,1725C3953,1635 4273,1313 4371,1205C4405,1167 4522,1046 4629,938C4737,829 4826,736 4828,731C4834,712 4734,708 4679,724C4639,736 4604,739 4545,735C4501,732 4269,722 4030,714C3791,706 3532,695 3455,690C3173,671 2844,662 2380,661C2119,660 1829,655 1735,649C1558,639 370,637 344,647C337,650 330,656 330,660C330,672 446,788 545,875C595,919 748,1067 885,1205C1023,1342 1156,1471 1180,1492C1205,1512 1261,1563 1306,1607C1389,1687 1544,1830 1660,1935C1696,1967 1759,2025 1800,2064C1899,2159 1972,2219 1987,2220C1994,2220 2016,2200 2037,2175ZM158,812C164,789 164,770 160,770C149,770 140,797 140,832C140,872 146,865 158,812Z" style="fill-rule:nonzero;"/>
    </g>
    <g transform="matrix(0.100812,0,0,-0.100812,-2.14275,506.892)">
        <path d="M2205,3933C2139,3928 2048,3908 2005,3889C1983,3880 1942,3850 1914,3822C1872,3782 1860,3763 1851,3722C1838,3661 1847,2755 1861,2698C1866,2678 1891,2639 1916,2611C2001,2516 2092,2501 2565,2500C2938,2500 3077,2512 3145,2548C3217,2587 3225,2610 3224,2760C3224,2829 3220,2935 3215,2995C3209,3085 3210,3116 3224,3162C3244,3232 3245,3290 3226,3290C3212,3290 3210,3313 3191,3641C3181,3808 3171,3836 3107,3877C3013,3936 2982,3940 2597,3938C2403,3937 2227,3935 2205,3933ZM2866,3860C2921,3855 2988,3843 3016,3832C3096,3801 3097,3797 3110,3425C3116,3249 3125,3040 3130,2960C3145,2746 3144,2718 3117,2679C3075,2615 3036,2604 2814,2595C2457,2580 2091,2590 2039,2616C2006,2632 1964,2694 1952,2745C1946,2768 1940,2990 1938,3255L1935,3725L1958,3755C1990,3796 2045,3830 2109,3851C2157,3866 2208,3868 2465,3869C2630,3869 2810,3865 2866,3860Z" style="fill-rule:nonzero;"/>
    </g>
    <g transform="matrix(0.100812,0,0,-0.100812,-2.14275,506.892)">
        <path d="M2100,3742C2064,3737 2040,3711 2040,3679C2040,3639 2068,3628 2153,3633C2502,3656 2602,3658 2705,3648C2766,3642 2856,3637 2905,3636L2995,3635L2995,3675C2995,3745 2995,3745 2530,3745C2307,3745 2114,3743 2100,3742Z" style="fill-rule:nonzero;"/>
    </g>
    <g transform="matrix(0.100812,0,0,-0.100812,-2.14275,506.892)">
        <path d="M2693,3464C2686,3461 2680,3447 2680,3432C2680,3410 2673,3366 2653,3261C2649,3240 2645,3244 2624,3291C2578,3390 2502,3449 2411,3457C2378,3460 2341,3456 2319,3448C2238,3418 2136,3303 2094,3194C2047,3072 2083,2886 2170,2801C2235,2738 2284,2719 2385,2718C2461,2717 2475,2721 2548,2755L2627,2792L2670,2768C2693,2756 2722,2739 2734,2733C2778,2707 2881,2727 2943,2774C3028,2839 3060,2935 3060,3128C3060,3248 3047,3322 3023,3341C3011,3351 3002,3347 2973,3318L2937,3282L2931,3128C2926,3000 2922,2969 2905,2940C2866,2875 2795,2854 2770,2901C2757,2924 2769,3039 2804,3239C2835,3412 2836,3447 2813,3454C2781,3463 2705,3469 2693,3464ZM2481,3287C2553,3239 2598,3093 2571,2994C2559,2948 2501,2876 2459,2855C2420,2834 2334,2837 2283,2859C2223,2887 2205,2920 2206,3000C2206,3116 2249,3223 2318,3280C2365,3319 2430,3321 2481,3287Z" style="fill-rule:nonzero;"/>
    </g>
    <g transform="matrix(0.100812,0,0,-0.100812,-2.14275,506.892)">
        <path d="M2788,673C2795,670 2804,671 2807,674C2811,677 2805,680 2794,679C2783,679 2780,676 2788,673Z" style="fill-rule:nonzero;"/>
    </g>
</svg>
