<?xml version="1.0" encoding="UTF-8" standalone="no"?>
<!DOCTYPE svg PUBLIC "-//W3C//DTD SVG 1.1//EN" "http://www.w3.org/Graphics/SVG/1.1/DTD/svg11.dtd">
<svg width="100%" height="100%" viewBox="0 0 512 512" version="1.1" xmlns="http://www.w3.org/2000/svg" xmlns:xlink="http://www.w3.org/1999/xlink" xml:space="preserve" xmlns:serif="http://www.serif.com/" style="fill-rule:evenodd;clip-rule:evenodd;stroke-linejoin:round;stroke-miterlimit:2;">
    <g transform="matrix(0.100138,0,0,-0.100138,-0.32727,512.318)">
        <path d="M2965,5104C2619,5096 1881,5088 1325,5087L315,5084L272,5055C194,5003 200,5100 193,3827C184,2046 214,1267 326,360C359,91 360,89 418,46C444,27 477,9 491,5C505,1 725,4 980,10C1337,18 1448,24 1469,35C1519,61 1568,122 1579,172C1592,226 1593,1715 1581,1824C1575,1884 1570,1897 1542,1921C1497,1961 1455,1970 1257,1977C1159,1980 1078,1986 1076,1989C1074,1992 1070,2027 1066,2066C1060,2128 1061,2138 1076,2144C1086,2148 1153,2155 1224,2161C1501,2182 1519,2185 1550,2215C1565,2230 1580,2252 1583,2265C1585,2278 1578,2380 1568,2492C1547,2714 1541,3262 1558,3497C1565,3605 1570,3625 1599,3683C1757,3995 2107,4180 2534,4180C2723,4180 2710,4189 2710,4060L2710,3952L2638,3945C2276,3911 2016,3700 1906,3351C1863,3214 1847,3101 1846,2920C1845,2609 1909,2321 1992,2270C2022,2252 2042,2250 2218,2250L2410,2250L2410,2022L2370,2006C2333,1991 2283,1984 2057,1961C1914,1947 1895,1917 1910,1723C1924,1537 1938,1259 1960,703C1971,433 1984,201 1989,187C2002,154 2053,113 2098,100C2122,94 2447,90 3035,90C3959,90 4707,103 4772,121C4816,132 4894,203 4910,245C4928,294 4934,1611 4921,2715C4915,3260 4907,4004 4905,4369C4899,5100 4903,5062 4837,5097C4808,5113 4752,5114 4200,5116C3867,5117 3312,5112 2965,5104ZM4623,4318C4642,2707 4652,1120 4645,779L4638,392L4521,386C4457,383 3922,377 3333,374C2426,368 2260,370 2256,381C2253,389 2244,600 2235,850C2225,1100 2213,1394 2206,1504C2199,1636 2198,1703 2205,1705C2210,1706 2276,1719 2351,1733C2506,1763 2586,1790 2632,1828C2687,1874 2690,1894 2690,2172C2690,2532 2699,2521 2375,2530L2166,2535L2158,2570C2101,2838 2110,3131 2180,3307C2232,3437 2317,3535 2428,3593C2519,3641 2602,3661 2745,3669C2814,3674 2874,3682 2886,3690C2904,3701 2935,3742 2977,3814C2986,3829 2990,3905 2990,4085C2990,4411 2989,4413 2805,4441C2658,4464 2369,4459 2232,4432C1877,4361 1595,4181 1414,3909C1378,3856 1334,3777 1316,3734L1282,3655L1270,3340C1259,3042 1266,2677 1286,2504L1292,2452L1229,2446C1116,2434 977,2408 910,2388C838,2366 776,2314 764,2266C760,2249 772,2145 793,2008C840,1698 830,1708 1112,1702L1300,1698L1300,302L1187,296C1126,293 972,289 845,288L615,285L608,340C560,719 521,1192 494,1700C475,2082 464,3429 475,4230L482,4805L1409,4807C1918,4808 2634,4816 3000,4823C3366,4831 3879,4838 4141,4839L4617,4840L4623,4318Z" style="fill-rule:nonzero;"/>
    </g>
</svg>
