<?xml version="1.0" encoding="UTF-8" standalone="no"?>
<!DOCTYPE svg PUBLIC "-//W3C//DTD SVG 1.1//EN" "http://www.w3.org/Graphics/SVG/1.1/DTD/svg11.dtd">
<svg width="100%" height="100%" viewBox="0 0 512 512" version="1.1" xmlns="http://www.w3.org/2000/svg" xmlns:xlink="http://www.w3.org/1999/xlink" xml:space="preserve" xmlns:serif="http://www.serif.com/" style="fill-rule:evenodd;clip-rule:evenodd;stroke-linejoin:round;stroke-miterlimit:2;">
    <g transform="matrix(0.100062,0,0,-0.100062,0.00132978,512.246)">
        <path d="M140,5102C121,5092 94,5068 81,5049L58,5015L64,4715C86,3601 83,3274 39,1950C28,1623 17,1099 13,785C8,273 9,209 23,159C47,78 88,44 172,36C494,8 1935,-7 2835,9C3941,28 4883,50 4915,56C4964,66 4997,97 5024,156L5050,212L5050,1029C5050,1478 5055,2214 5061,2665C5071,3351 5075,3490 5087,3514C5104,3548 5106,3630 5090,3660C5081,3676 5083,3833 5095,4283C5108,4747 5110,4895 5101,4928C5084,4989 5044,5030 4990,5041C4965,5045 4690,5049 4379,5050C3847,5050 3329,5059 1865,5095C1530,5103 1012,5112 715,5116C193,5122 174,5121 140,5102ZM703,4814L748,4808L744,4541C740,4283 722,3862 715,3851C713,3848 638,3850 548,3855L385,3865L378,4135C374,4284 367,4479 362,4570C357,4661 356,4754 358,4778L362,4820L510,4820C591,4820 678,4817 703,4814ZM1346,4804L1405,4798L1392,4306C1384,4036 1377,3814 1375,3812C1369,3806 1042,3823 1030,3830C1021,3836 1021,3882 1029,4027C1035,4131 1040,4308 1040,4421C1040,4534 1043,4668 1046,4718L1053,4810L1170,4810C1234,4810 1314,4807 1346,4804ZM1940,4790L2017,4790L2024,4388C2028,4166 2034,3939 2038,3882L2045,3780L1865,3786C1766,3790 1683,3794 1681,3796C1677,3800 1701,4771 1706,4789C1710,4800 1726,4802 1787,4796C1829,4793 1898,4790 1940,4790ZM3425,4760C3645,4755 4044,4750 4312,4750C4580,4750 4801,4747 4803,4743C4809,4733 4781,3748 4775,3742C4769,3736 2784,3758 2522,3767C2357,3773 2349,3774 2345,3794C2335,3843 2320,4266 2320,4514L2320,4783L2673,4776C2866,4772 3205,4765 3425,4760ZM1035,3526C1898,3478 3411,3440 4489,3440L4773,3440L4766,3108C4763,2925 4757,2230 4753,1563L4747,352L4636,346C4519,340 4402,338 3140,315C2014,294 988,299 443,326L310,333L310,639C310,807 317,1179 325,1465C333,1751 346,2226 355,2520C363,2814 373,3170 376,3310L382,3565L569,3553C671,3547 881,3534 1035,3526Z" style="fill-rule:nonzero;"/>
    </g>
    <g transform="matrix(0.100062,0,0,-0.100062,0.00132978,512.246)">
        <path d="M3537,4621C3516,4617 3487,4602 3472,4588C3457,4575 3433,4556 3418,4547C3361,4512 3356,4487 3364,4261C3372,4027 3386,3967 3444,3913C3488,3873 3539,3867 3817,3871L4027,3875L4075,3905C4101,3922 4132,3947 4143,3962C4166,3993 4166,3987 4152,4326C4143,4533 4136,4560 4077,4604C4050,4624 4035,4625 3812,4627C3682,4628 3558,4625 3537,4621ZM3850,4288C3850,4270 3853,4238 3856,4218L3863,4180L3673,4180L3666,4218C3663,4238 3660,4270 3660,4288L3660,4320L3850,4320L3850,4288Z" style="fill-rule:nonzero;"/>
    </g>
    <g transform="matrix(0.100062,0,0,-0.100062,0.00132978,512.246)">
        <path d="M4415,4609C4379,4598 4360,4583 4337,4550C4322,4529 4320,4494 4320,4267C4320,4045 4322,4004 4336,3980C4373,3919 4460,3896 4533,3928C4612,3963 4615,3975 4615,4265C4615,4552 4612,4567 4537,4601C4491,4621 4461,4623 4415,4609Z" style="fill-rule:nonzero;"/>
    </g>
    <g transform="matrix(0.100062,0,0,-0.100062,0.00132978,512.246)">
        <path d="M2390,3320C2248,3312 2221,3308 2091,3273C1622,3148 1226,2762 1072,2278C1015,2099 1005,2033 1005,1810C1005,1620 1007,1597 1032,1498C1098,1237 1209,1045 1393,874C1677,610 2054,470 2480,470C2763,470 3000,525 3243,646C3402,725 3521,810 3646,935C4043,1328 4135,1833 3913,2395C3828,2613 3721,2778 3576,2918C3382,3106 3123,3233 2800,3300C2677,3325 2563,3331 2390,3320ZM2649,3014C2829,3006 3062,2912 3256,2769C3342,2706 3467,2576 3528,2487C3599,2384 3663,2246 3697,2124C3723,2032 3725,2012 3724,1845C3724,1684 3721,1655 3698,1569C3653,1403 3576,1273 3446,1145C3109,815 2511,676 2057,825C1684,946 1409,1233 1313,1598C1292,1679 1288,1718 1288,1835C1287,1988 1299,2061 1348,2202C1472,2559 1770,2856 2121,2974C2186,2996 2243,3008 2355,3024C2372,3026 2426,3026 2475,3023C2525,3020 2603,3016 2649,3014Z" style="fill-rule:nonzero;"/>
    </g>
    <g transform="matrix(0.100062,0,0,-0.100062,0.00132978,512.246)">
        <path d="M2470,2783C2214,2766 2019,2679 1856,2512C1734,2388 1656,2248 1608,2072C1578,1962 1578,1747 1608,1639C1686,1353 1917,1129 2216,1050C2747,910 3300,1196 3426,1675C3451,1768 3451,1937 3426,2044C3345,2398 3137,2631 2812,2734C2732,2759 2562,2792 2530,2788C2522,2787 2495,2785 2470,2783ZM2670,2413C2841,2367 2998,2227 3067,2058C3102,1973 3110,1830 3085,1744C3036,1574 2903,1455 2686,1388C2583,1356 2394,1356 2295,1387C2062,1460 1903,1683 1923,1906C1946,2154 2154,2386 2389,2426C2469,2439 2595,2434 2670,2413Z" style="fill-rule:nonzero;"/>
    </g>
    <g transform="matrix(0.100062,0,0,-0.100062,0.00132978,512.246)">
        <path d="M2523,2309C2478,2287 2440,2227 2440,2179C2441,2127 2476,2074 2531,2042C2617,1993 2647,1955 2663,1878C2687,1763 2727,1725 2820,1725C2917,1725 2964,1773 2963,1869C2961,2026 2870,2183 2728,2273C2632,2334 2589,2342 2523,2309Z" style="fill-rule:nonzero;"/>
    </g>
</svg>
