<?xml version="1.0" encoding="UTF-8" standalone="no"?>
<!DOCTYPE svg PUBLIC "-//W3C//DTD SVG 1.1//EN" "http://www.w3.org/Graphics/SVG/1.1/DTD/svg11.dtd">
<svg width="100%" height="100%" viewBox="0 0 512 512" version="1.1" xmlns="http://www.w3.org/2000/svg" xmlns:xlink="http://www.w3.org/1999/xlink" xml:space="preserve" xmlns:serif="http://www.serif.com/" style="fill-rule:evenodd;clip-rule:evenodd;stroke-linejoin:round;stroke-miterlimit:2;">
    <g transform="matrix(0.100998,0,0,-0.100998,4.14915,514.626)">
        <path d="M1830,5093C1797,5088 1749,5069 1730,5055C1722,5048 1692,5043 1663,5043C1603,5042 1508,4995 1382,4903C1311,4851 1272,4819 1165,4722C1143,4702 1091,4659 1050,4626C1009,4594 962,4555 945,4539C929,4524 859,4466 790,4411C721,4356 651,4294 634,4273C558,4178 490,4027 490,3953C490,3932 485,3909 480,3904C466,3890 465,3733 479,3673C489,3631 524,3471 566,3281C574,3246 582,3214 585,3210C588,3205 603,3157 620,3103C649,3005 699,2874 747,2770C801,2653 942,2369 1009,2240C1048,2166 1089,2081 1100,2051C1119,2003 1167,1911 1254,1762C1271,1732 1299,1684 1315,1655C1332,1626 1350,1596 1356,1589C1362,1581 1379,1546 1394,1510C1410,1474 1432,1429 1444,1410C1455,1391 1473,1358 1482,1337C1498,1302 1632,1072 1670,1016C1718,943 1747,903 1764,885C1774,874 1794,849 1809,830C1823,811 1852,777 1872,755C1892,733 1922,698 1938,678C1988,615 2008,593 2220,381C2393,207 2436,170 2493,141C2530,123 2560,103 2560,99C2560,94 2567,90 2575,90C2584,90 2621,76 2658,58C2723,28 2730,27 2860,26C2962,26 3010,30 3055,44C3128,65 3290,129 3307,142C3314,147 3324,149 3331,145C3337,141 3345,142 3349,147C3352,153 3398,178 3450,202C3552,251 3566,251 3602,204C3633,166 3749,89 3808,68C3903,35 3956,34 4067,64C4121,79 4179,98 4195,105C4212,112 4242,126 4262,135C4314,157 4352,191 4403,263C4464,348 4484,393 4504,479C4525,577 4525,587 4489,742C4465,846 4453,881 4432,902C4418,918 4399,930 4390,930C4369,930 4320,889 4320,872C4320,865 4334,813 4351,757C4409,562 4389,417 4291,329C4204,250 4165,222 4117,206C4055,185 3937,184 3920,205C3913,213 3898,220 3885,220C3873,220 3855,229 3845,240C3835,251 3803,276 3773,296C3744,315 3720,337 3720,344C3720,351 3750,383 3788,416C3825,448 3878,499 3905,528C3933,558 3980,607 4010,638C4041,670 4077,711 4092,730C4124,772 4170,905 4170,955C4170,978 4174,989 4181,985C4192,978 4189,1003 4171,1070C4148,1157 4081,1305 3932,1600C3789,1882 3665,2019 3536,2036C3488,2043 3466,2038 3338,1995C3283,1976 3087,1870 3005,1813C2994,1806 2968,1788 2948,1774C2913,1750 2908,1749 2878,1761C2823,1784 2709,1910 2641,2025C2606,2084 2563,2151 2545,2174C2480,2260 2430,2340 2355,2480C2229,2715 2169,2821 2122,2893C2098,2931 2053,3011 2022,3071C1971,3169 1965,3187 1962,3252C1960,3292 1962,3341 1967,3360C1975,3390 1983,3397 2021,3411C2091,3435 2226,3499 2325,3555C2389,3591 2512,3692 2544,3735C2567,3765 2585,3804 2611,3885C2616,3902 2618,3956 2614,4011C2610,4074 2611,4114 2619,4127C2628,4145 2627,4147 2612,4144C2598,4140 2592,4153 2577,4217C2544,4359 2447,4583 2372,4694C2325,4762 2213,4890 2131,4968C2035,5059 1921,5107 1830,5093ZM1863,4970C1859,4954 1854,4952 1838,4961C1821,4970 1820,4974 1831,4981C1855,4996 1868,4991 1863,4970ZM1773,4819C1783,4806 1811,4774 1834,4748C1856,4722 1886,4686 1900,4668C1914,4651 1934,4627 1946,4615C2006,4551 2075,4435 2120,4320C2138,4273 2211,4118 2267,4005C2280,3978 2294,3934 2297,3909L2302,3862L2249,3823C2164,3762 2138,3748 2130,3757C2125,3761 2105,3797 2085,3835C2013,3969 1900,4155 1832,4249C1823,4262 1804,4289 1790,4310C1726,4406 1615,4562 1565,4625C1535,4663 1510,4705 1510,4717C1510,4732 1529,4752 1576,4785C1673,4854 1735,4865 1773,4819ZM1998,4816C2075,4768 2176,4635 2109,4670C2092,4679 2086,4678 2074,4663C2061,4646 2059,4647 2031,4679C2016,4698 1996,4727 1988,4744C1969,4783 1950,4840 1956,4840C1958,4840 1977,4829 1998,4816ZM1435,4618C1444,4594 1455,4573 1458,4570C1466,4565 1542,4463 1576,4415C1669,4279 1694,4241 1717,4196C1731,4168 1755,4127 1770,4104C1786,4082 1830,4008 1868,3939C1906,3871 1953,3787 1973,3753C2013,3684 2026,3650 2013,3650C2008,3650 1995,3642 1984,3632C1974,3622 1940,3596 1910,3573C1799,3491 1725,3389 1715,3305C1706,3240 1721,3130 1749,3045C1778,2957 1819,2859 1841,2828C1851,2814 1860,2798 1860,2793C1860,2788 1876,2757 1896,2724C1916,2692 2006,2519 2096,2340C2270,1996 2340,1869 2407,1780C2468,1697 2623,1540 2643,1540C2653,1540 2663,1533 2667,1525C2683,1481 2873,1449 2932,1481C2949,1490 2955,1489 2962,1476C2967,1467 2984,1446 3000,1430C3016,1414 3031,1391 3035,1378C3039,1365 3104,1228 3181,1073C3257,918 3320,788 3320,784C3320,780 3329,766 3341,754C3359,735 3371,707 3426,552C3434,528 3442,492 3443,470C3444,428 3425,405 3360,374C3341,365 3316,349 3305,340C3287,323 3183,286 3083,260C3046,251 2924,246 2791,249C2758,250 2726,262 2663,297C2590,338 2556,368 2391,539C2092,850 1921,1052 1804,1236C1763,1299 1730,1353 1730,1356C1730,1359 1711,1394 1687,1433C1663,1473 1615,1564 1579,1635C1544,1707 1509,1771 1502,1779C1495,1786 1491,1798 1494,1805C1496,1812 1487,1829 1474,1843C1460,1858 1440,1891 1429,1917C1418,1944 1398,1979 1384,1997C1371,2014 1360,2035 1360,2042C1360,2049 1350,2071 1337,2090C1324,2109 1302,2154 1288,2190C1274,2226 1246,2293 1226,2340C1206,2386 1190,2428 1190,2432C1190,2437 1178,2464 1164,2493C1150,2521 1124,2581 1105,2625C1087,2669 1046,2756 1015,2819C902,3046 825,3269 774,3508C766,3548 751,3600 741,3623C731,3647 720,3693 717,3726C714,3758 706,3820 700,3863C686,3951 695,4020 733,4113C758,4174 799,4215 915,4295C954,4322 1000,4356 1018,4372C1036,4387 1055,4400 1059,4400C1064,4400 1097,4426 1132,4458C1231,4546 1259,4570 1265,4570C1268,4570 1297,4590 1331,4615C1365,4640 1398,4660 1405,4660C1412,4660 1425,4641 1435,4618ZM2269,4452C2286,4406 2300,4363 2300,4358C2300,4347 2271,4321 2259,4320C2255,4320 2228,4369 2197,4428L2141,4537L2195,4591L2217,4564C2229,4549 2252,4498 2269,4452ZM2374,4174C2383,4166 2390,4148 2390,4135C2390,4122 2393,4105 2396,4096C2414,4049 2345,4106 2325,4154C2310,4190 2310,4190 2334,4190C2348,4190 2366,4183 2374,4174ZM3528,1793C3576,1761 3599,1727 3600,1687C3600,1655 3595,1647 3568,1630C3550,1619 3530,1610 3524,1610C3512,1610 3380,1734 3380,1744C3380,1748 3390,1764 3402,1780C3420,1804 3431,1810 3462,1810C3483,1810 3513,1802 3528,1793ZM3282,1643C3359,1561 3451,1394 3496,1251C3509,1210 3524,1172 3529,1166C3534,1160 3552,1120 3569,1078C3620,950 3661,872 3702,828C3723,805 3745,768 3752,746C3758,723 3767,701 3771,696C3776,691 3767,664 3752,637C3725,587 3678,549 3627,536C3604,531 3598,534 3587,557C3581,572 3567,593 3558,602C3548,612 3540,629 3540,641C3540,652 3527,684 3511,713C3495,742 3457,825 3425,898C3394,972 3343,1080 3313,1138C3207,1342 3171,1408 3146,1449C3132,1471 3120,1492 3120,1496C3120,1499 3111,1513 3100,1527C3089,1541 3083,1556 3085,1561C3092,1571 3239,1670 3249,1670C3253,1670 3268,1658 3282,1643ZM3716,1525C3731,1495 3741,1469 3739,1467C3737,1465 3709,1445 3678,1422C3647,1399 3618,1380 3615,1380C3608,1380 3563,1479 3556,1513C3550,1539 3551,1541 3570,1535C3585,1530 3599,1535 3613,1548C3636,1568 3656,1578 3677,1579C3684,1580 3702,1555 3716,1525ZM3829,1326C3846,1297 3860,1266 3860,1257C3860,1234 3796,1182 3750,1169C3702,1154 3691,1164 3671,1237C3658,1289 3662,1297 3719,1332C3739,1344 3761,1360 3768,1367C3790,1388 3797,1383 3829,1326ZM3940,1061C3940,1014 3898,878 3882,872C3877,871 3860,891 3844,917C3828,943 3809,974 3802,985C3756,1062 3751,1090 3785,1090C3807,1090 3887,1127 3896,1142C3910,1165 3940,1110 3940,1061Z" style="fill-rule:nonzero;"/>
    </g>
</svg>
