<?xml version="1.0" encoding="UTF-8" standalone="no"?>
<!DOCTYPE svg PUBLIC "-//W3C//DTD SVG 1.1//EN" "http://www.w3.org/Graphics/SVG/1.1/DTD/svg11.dtd">
<svg width="100%" height="100%" viewBox="0 0 512 512" version="1.1" xmlns="http://www.w3.org/2000/svg" xmlns:xlink="http://www.w3.org/1999/xlink" xml:space="preserve" xmlns:serif="http://www.serif.com/" style="fill-rule:evenodd;clip-rule:evenodd;stroke-linejoin:round;stroke-miterlimit:2;">
    <g transform="matrix(0.0516154,-4.06805e-34,-4.06805e-34,-0.0516154,-6.58947,516.426)">
        <g transform="matrix(19.3741,-1.52696e-31,-1.52696e-31,-19.3741,127.665,10005.3)">
            <path d="M288.042,20.866C297.382,21.641 303.078,22.518 303.761,23.292C304.217,23.808 304.787,23.912 305.698,23.602C306.438,23.344 308.318,23.344 309.913,23.602C311.507,23.808 315.152,23.963 317.943,23.912C325.006,23.808 334.688,24.376 335.486,24.944C335.884,25.254 337.479,25.615 339.017,25.821C340.612,26.028 342.776,26.596 343.858,27.112C344.94,27.576 348.187,28.609 350.977,29.434C354.566,30.415 356.559,31.293 357.641,32.325C358.495,33.151 359.464,33.822 359.805,33.822C360.147,33.822 362.255,34.751 364.419,35.938C366.583,37.074 369.602,38.364 371.14,38.777C373.304,39.345 375.24,40.635 380.082,44.713C383.499,47.551 387.6,50.7 389.137,51.681C390.732,52.61 393.352,54.571 395.004,55.965C396.655,57.358 400.471,60.3 403.49,62.572C406.566,64.791 411.976,69.127 415.565,72.275C422.741,78.521 422.456,78.263 426.443,82.598C427.981,84.302 429.746,86.16 430.373,86.728C431,87.347 431.797,88.431 432.196,89.205C432.594,89.979 433.107,90.599 433.335,90.599C433.563,90.599 433.904,91.166 434.075,91.889C434.303,92.612 435.1,93.799 435.841,94.625C437.549,96.328 440.112,99.786 440.112,100.354C440.112,100.612 441.707,102.574 443.701,104.793C445.637,107.012 447.744,109.438 448.371,110.213C448.997,111.038 451.617,114.187 454.18,117.284C456.8,120.329 458.908,123.271 458.908,123.839C458.908,124.355 459.42,125.594 460.104,126.523C460.73,127.504 461.072,128.484 460.901,128.794C460.673,129.104 460.787,129.672 461.186,130.085C461.755,130.704 463.122,133.852 466.027,141.44C466.597,142.834 467.223,144.485 467.508,145.053C467.736,145.621 468.305,147.221 468.761,148.666C469.217,150.06 469.9,151.918 470.185,152.795C472.976,160.073 476.735,177.726 477.646,188.152C478.045,191.971 478.557,197.339 478.842,200.023C479.184,202.707 479.696,213.289 479.981,223.508C480.323,233.728 480.778,243.742 481.063,245.755C481.291,247.768 481.348,252.413 481.063,256.078C480.835,259.742 480.608,267.382 480.551,273.059C480.551,278.737 480.266,286.17 479.924,289.576C479.639,292.983 479.127,298.919 478.842,302.738C478.557,306.558 477.931,311.203 477.418,313.061C476.905,314.919 476.393,317.139 476.279,318.068C476.165,318.945 475.823,320.081 475.539,320.649C475.254,321.165 475.14,321.887 475.254,322.197C475.425,322.558 475.254,322.868 474.855,322.868C474.513,322.868 474.286,323.281 474.342,323.746C474.456,324.262 474.286,325.191 474.058,325.81C473.83,326.481 473.545,327.875 473.431,328.959C473.146,332.159 472.463,334.74 471.95,335.049C471.666,335.204 471.438,335.978 471.438,336.804C471.438,337.63 471.21,338.404 470.925,338.559C470.697,338.714 470.583,339.488 470.754,340.211C470.925,341.088 470.754,341.811 470.185,342.172C469.729,342.482 469.16,343.876 468.932,345.321C468.647,346.714 468.305,348.108 468.02,348.418C467.793,348.676 467.394,349.76 467.166,350.74C466.938,351.721 466.426,353.012 466.084,353.579C465.685,354.147 465.002,355.489 464.66,356.573C464.261,357.657 462.951,360.083 461.698,361.993C460.502,363.902 459.477,365.606 459.477,365.812C459.477,366.019 458.623,367.877 457.541,369.941C454.294,376.239 452.643,379.645 452.643,380.058C452.643,380.265 452.016,382.381 451.162,384.807C449.111,390.691 447.63,393.53 445.637,395.336C445.124,395.852 444.669,396.575 444.669,396.936C444.669,397.349 444.156,397.969 443.473,398.382C442.732,398.898 442.504,399.259 442.96,399.517C443.416,399.775 443.416,400.085 442.903,400.601C442.334,401.22 442.106,401.22 441.764,400.704C441.138,399.775 439.543,401.685 439.714,403.13C439.771,403.853 439.429,404.214 438.575,404.317C437.777,404.421 437.265,404.833 437.265,405.401C437.265,405.917 436.239,407.311 434.986,408.55C433.733,409.789 432.708,411.182 432.708,411.698C432.708,412.163 430.715,414.434 428.323,416.757C419.95,424.654 416.248,428.473 415.736,429.764C414.881,431.777 412.432,434.048 404.344,440.5C394.377,448.345 391.814,450.203 389.422,451.339C388.055,452.01 386.916,453.197 385.891,455.055C384.296,457.894 381.278,460.63 373.475,466.307C371.14,468.011 368.349,470.075 367.38,470.85C366.355,471.624 365.159,472.398 364.817,472.553C364.419,472.708 362.938,473.482 361.514,474.308C357.185,476.889 337.023,485.921 333.948,486.696C332.353,487.108 330.303,487.676 329.334,487.986C322.215,490.257 313.786,491.805 300.572,493.251C286.732,494.748 281.264,494.902 265.544,494.231C258.026,493.87 244.186,493.509 234.789,493.406C223.739,493.251 215.595,492.941 211.722,492.425C201.925,491.134 195.774,490.205 193.895,489.638C192.87,489.38 190.136,488.863 187.801,488.554C185.465,488.244 180.909,487.16 177.662,486.179C174.473,485.199 171.113,484.424 170.258,484.424C168.948,484.424 161.316,482.515 157.899,481.276C157.272,481.069 154.823,480.398 152.488,479.779C146.166,478.127 134.376,472.708 129.364,469.146C126.574,467.185 120.422,463.727 117.461,462.436C114.841,461.301 108.917,457.739 105.215,455.055C100.659,451.752 94.622,445.919 87.274,437.661C86.363,436.629 84.882,435.183 84.085,434.409C83.231,433.686 82.433,432.448 82.205,431.673C82.035,430.951 81.237,429.66 80.554,428.835C77.991,426.099 75.2,422.176 74.061,419.854C73.434,418.563 72.238,416.911 71.384,416.137C70.587,415.415 69.903,414.486 69.903,414.073C69.903,413.66 69.049,412.318 68.024,411.079C66.941,409.84 65.575,407.724 64.948,406.434C64.265,405.092 63.467,403.853 63.125,403.646C62.727,403.44 61.815,402.098 61.018,400.653C60.278,399.156 59.196,397.246 58.683,396.42C58.227,395.543 57.43,394.149 56.917,393.323C56.462,392.446 54.924,389.659 53.443,387.129C51.962,384.549 50.14,381.039 49.399,379.284C48.602,377.477 47.804,376.032 47.577,376.032C47.292,376.032 47.121,375.464 47.121,374.742C47.121,374.019 46.608,372.522 45.982,371.387C45.355,370.251 44.843,368.806 44.843,368.187C44.843,367.516 44.33,366.122 43.704,365.038C43.077,364.006 42.565,362.664 42.565,362.096C42.565,361.528 42.109,360.083 41.539,358.844C39.831,355.334 39.09,353.27 38.236,349.708C37.78,347.85 37.04,346.095 36.584,345.785C36.129,345.476 35.73,344.856 35.73,344.443C35.73,343.979 35.388,342.74 34.933,341.605C34.078,339.488 31.515,325.81 30.889,320.545C30.718,318.842 30.319,316.261 30.034,314.868C29.75,313.423 29.237,309.603 28.895,306.351C28.554,303.099 28.041,299.022 27.756,297.319C27.471,295.615 26.959,291.796 26.674,288.802C26.332,285.808 25.82,281.524 25.478,279.253C24.396,271.304 24.054,261.033 24.624,254.22C25.706,242.09 26.731,233.109 27.187,232.128C27.528,231.457 27.756,230.322 27.756,229.547C27.756,228.773 28.269,226.038 28.952,223.508C29.579,220.928 30.319,217.882 30.604,216.644C30.889,215.456 31.401,214.011 31.743,213.392C32.085,212.824 32.768,210.605 33.224,208.385C33.623,206.217 34.363,203.585 34.762,202.604C35.217,201.624 36.015,199.611 36.527,198.217C40.571,187.739 47.406,173.751 51.393,167.764C53.044,165.286 55.152,161.725 57.772,157.183C58.854,155.324 60.733,152.331 61.929,150.524C63.182,148.769 64.208,147.066 64.208,146.756C64.208,146.498 64.834,145.518 65.631,144.588C66.429,143.659 67.055,142.627 67.055,142.317C67.055,142.059 68.024,140.666 69.277,139.272C70.473,137.878 71.897,136.02 72.409,135.194C72.922,134.369 74.232,132.665 75.314,131.375C78.219,128.02 86.534,116.613 89.951,111.348C93.54,105.825 99.463,98.599 103.791,94.47C105.557,92.767 107.38,90.702 107.892,89.876C108.917,88.121 111.993,85.127 122.872,75.372C125.776,72.791 128.282,70.211 128.567,69.591C128.852,68.972 129.82,68.043 130.674,67.578C131.529,67.062 133.693,65.462 135.402,64.068C142.863,57.875 149.242,53.332 152.773,51.629C154.88,50.648 157.272,49.358 158.127,48.842C158.924,48.326 160.177,47.706 160.918,47.5C162.228,47.139 170.03,43.525 176.694,40.17C178.46,39.241 180.51,38.364 181.194,38.157C181.82,37.951 183.871,37.022 185.693,36.093C187.516,35.112 189.395,34.338 189.851,34.338C190.307,34.338 190.819,34.028 190.99,33.615C191.161,33.254 192.243,32.789 193.382,32.583C194.521,32.428 196.401,31.86 197.54,31.293C199.932,30.105 202.438,29.434 208.589,28.144C211.095,27.628 214.228,26.854 215.538,26.389C216.848,25.925 219.809,25.254 222.088,24.841C233.308,22.828 235.757,22.415 240.769,21.899C243.731,21.589 247.604,21.124 249.312,20.918C253.755,20.402 281.549,20.35 288.042,20.866Z" style="fill:white;"/>
        </g>
        <g transform="matrix(1.10345,-1.26695e-17,-1.26695e-17,1,-526.316,1.84653e-16)">
            <path d="M5393,9995C5376,9983 5326,9979 5153,9974C4990,9970 4917,9964 4865,9950C4827,9940 4773,9929 4745,9925C4696,9919 4627,9905 4430,9860C4378,9848 4306,9832 4270,9824C4234,9816 4158,9794 4100,9776C4042,9757 3943,9726 3880,9705C3765,9669 3667,9626 3642,9603C3635,9596 3617,9587 3602,9584C3587,9580 3537,9558 3490,9534C3368,9472 3233,9410 3220,9410C3215,9410 3202,9406 3192,9401C3183,9397 3155,9383 3130,9371C3105,9359 3072,9341 3055,9330C3039,9319 3016,9306 3005,9301C2993,9296 2978,9285 2970,9275C2963,9266 2944,9252 2928,9244C2912,9236 2864,9202 2820,9170C2777,9137 2737,9110 2733,9110C2721,9110 2614,9005 2541,8922C2506,8882 2461,8838 2441,8824C2421,8811 2388,8789 2368,8775C2347,8761 2330,8745 2330,8738C2330,8726 2256,8638 2151,8525C2141,8514 2116,8484 2097,8458C2077,8432 2044,8391 2022,8368C2000,8344 1970,8312 1955,8295C1940,8279 1917,8249 1904,8230C1891,8211 1863,8170 1841,8140C1818,8110 1792,8072 1783,8056C1773,8041 1746,8000 1723,7966C1643,7849 1565,7730 1515,7649C1438,7524 1421,7494 1313,7290C1291,7249 1254,7184 1230,7145C1206,7107 1181,7062 1173,7045C1165,7029 1152,7004 1144,6990C1136,6976 1120,6946 1110,6923C1099,6899 1087,6880 1081,6880C1076,6880 1069,6868 1065,6853C1062,6838 1041,6796 1019,6759C998,6722 980,6687 980,6682C980,6676 974,6659 966,6643C958,6628 938,6581 920,6540C902,6499 872,6435 854,6399C835,6362 820,6326 820,6319C820,6312 809,6276 797,6240C732,6060 693,5896 687,5784C684,5739 679,5696 674,5689C669,5681 665,5669 663,5661C662,5654 657,5627 651,5601C646,5576 642,5548 642,5540C642,5532 636,5482 627,5430C618,5377 611,5294 613,5242C615,5170 612,5150 601,5150C591,5150 590,5146 598,5138C604,5131 608,5085 609,5035C610,4885 619,4731 635,4615C643,4555 654,4462 659,4410C713,3906 721,3844 756,3650C797,3432 830,3292 870,3175C891,3115 916,3038 925,3005C965,2871 994,2792 1026,2726C1045,2687 1060,2650 1060,2642C1060,2634 1067,2616 1075,2602C1082,2587 1100,2541 1114,2500C1128,2459 1151,2401 1165,2373C1179,2344 1190,2313 1190,2305C1190,2297 1196,2290 1204,2290C1217,2290 1226,2277 1228,2257C1229,2253 1238,2238 1250,2223C1261,2209 1270,2190 1270,2180C1270,2171 1279,2155 1290,2145C1301,2135 1310,2121 1310,2114C1310,2108 1328,2078 1350,2049C1372,2019 1390,1988 1390,1978C1390,1969 1406,1945 1425,1924C1444,1904 1460,1883 1460,1878C1460,1873 1486,1839 1517,1802C1585,1721 1583,1725 1621,1675C1638,1653 1695,1588 1748,1531C1801,1473 1862,1408 1883,1386C1903,1363 1920,1342 1920,1338C1920,1335 1958,1295 2005,1249C2052,1203 2093,1158 2096,1148C2099,1138 2118,1121 2138,1111C2158,1100 2193,1074 2215,1053C2384,889 2493,790 2505,790C2512,790 2527,774 2538,756C2564,712 2636,659 2657,667C2667,671 2671,669 2667,663C2663,657 2688,635 2725,611C2761,589 2790,566 2790,560C2790,555 2796,550 2803,550C2811,550 2852,532 2895,509C2938,487 2996,463 3024,456C3052,448 3100,431 3131,417C3162,403 3203,389 3221,385C3240,381 3266,371 3279,363C3292,355 3339,345 3384,341C3475,332 3482,330 3537,280C3592,230 3622,216 3669,223C3690,225 3713,223 3718,218C3729,207 3814,212 3843,224C3855,230 3860,228 3860,217C3860,196 3879,191 3994,179C4109,168 4327,125 4345,110C4352,104 4368,100 4381,100C4394,100 4491,96 4595,92C4700,87 4875,85 4985,86C5547,92 5772,97 5845,104C5889,108 5934,112 5945,112C5956,112 5987,119 6014,126C6041,134 6086,140 6112,140C6191,140 6407,200 6416,224C6419,231 6437,236 6456,236C6481,236 6497,243 6508,257C6526,280 6644,325 6660,315C6666,311 6683,316 6700,324C6716,333 6743,347 6759,355C6775,363 6800,370 6814,370C6828,370 6840,375 6840,380C6840,386 6846,390 6853,390C6861,390 6877,401 6890,415C6913,440 6950,449 6950,430C6950,425 6957,423 6966,427C6975,430 6986,427 6990,419C6997,409 7001,412 7008,430C7019,457 7071,500 7093,500C7101,500 7113,507 7120,515C7127,523 7138,530 7145,530C7152,530 7180,552 7207,578C7234,604 7274,635 7295,647C7317,658 7334,672 7333,676C7332,681 7351,685 7374,685C7435,686 7550,746 7632,820C7668,853 7702,880 7707,880C7712,880 7729,893 7745,910C7761,926 7779,940 7784,940C7795,941 7972,1097 7978,1112C7980,1116 8025,1165 8078,1219C8132,1274 8207,1353 8245,1395C8284,1437 8342,1499 8374,1533C8462,1625 8526,1711 8610,1850C8628,1880 8660,1925 8680,1950C8700,1975 8743,2040 8775,2095C8833,2193 8864,2239 8986,2403C9044,2481 9064,2522 9096,2634C9104,2662 9125,2716 9144,2754C9179,2826 9205,2930 9235,3120C9268,3322 9279,3376 9303,3445C9317,3485 9333,3562 9339,3625C9345,3686 9354,3755 9359,3780C9364,3805 9373,3852 9380,3885C9386,3918 9396,3963 9402,3985C9408,4007 9418,4063 9426,4110C9433,4157 9444,4227 9450,4266C9456,4305 9469,4354 9480,4376C9491,4397 9500,4420 9500,4428C9500,4436 9507,4456 9515,4473C9523,4491 9534,4534 9540,4570C9546,4606 9558,4678 9567,4730C9580,4808 9583,4906 9582,5275C9582,5564 9577,5757 9570,5815C9563,5865 9556,5919 9555,5935C9553,5952 9549,5973 9545,5982C9541,5991 9540,6003 9543,6007C9548,6016 9536,6125 9521,6210C9516,6240 9506,6306 9500,6355C9494,6405 9485,6454 9480,6465C9475,6476 9462,6528 9450,6580C9430,6672 9409,6747 9369,6877C9340,6973 9204,7293 9170,7346C9154,7372 9140,7404 9140,7416C9140,7429 9136,7441 9131,7444C9126,7448 9108,7479 9091,7515C9075,7551 9050,7595 9036,7613C9021,7632 9010,7652 9010,7658C9010,7664 8995,7685 8978,7703C8930,7753 8765,8019 8740,8085C8734,8101 8726,8117 8722,8120C8718,8123 8709,8136 8702,8150C8637,8282 8509,8448 8333,8628C8309,8651 8290,8679 8290,8690C8290,8700 8265,8734 8234,8767C8203,8799 8158,8851 8135,8883C8077,8961 7994,9050 7977,9050C7969,9050 7955,9059 7946,9069C7936,9080 7914,9094 7897,9101C7879,9108 7844,9130 7818,9149C7792,9169 7736,9211 7693,9243C7650,9275 7586,9328 7550,9361C7489,9417 7423,9449 7400,9435C7389,9428 7314,9465 7303,9483C7293,9498 7194,9550 7175,9550C7167,9550 7157,9556 7153,9564C7149,9572 7125,9580 7100,9583C7075,9586 7026,9594 6991,9603C6926,9617 6917,9624 6855,9701C6832,9731 6762,9775 6753,9766C6750,9763 6741,9769 6733,9779C6726,9790 6696,9806 6667,9816C6639,9825 6611,9836 6605,9840C6600,9844 6575,9852 6550,9858C6525,9863 6497,9871 6488,9875C6477,9879 6470,9878 6470,9871C6470,9865 6478,9860 6488,9860C6502,9860 6503,9858 6490,9850C6464,9833 6432,9839 6413,9864C6397,9886 6383,9890 6285,9900C6225,9906 6125,9912 6063,9913C6002,9914 5959,9918 5968,9921C5994,9930 5850,9948 5685,9956C5554,9962 5437,9980 5426,9996C5416,10009 5412,10008 5393,9995ZM5650,9601C5814,9586 5914,9569 5926,9554C5934,9544 5944,9542 5960,9548C5973,9553 6006,9553 6034,9548C6062,9544 6126,9541 6175,9542C6299,9544 6469,9533 6483,9522C6490,9516 6518,9509 6545,9505C6573,9501 6611,9490 6630,9480C6649,9471 6706,9451 6755,9435C6818,9416 6853,9399 6872,9379C6887,9363 6904,9350 6910,9350C6916,9350 6953,9332 6991,9309C7029,9287 7082,9262 7109,9254C7147,9243 7181,9218 7266,9139C7326,9084 7398,9023 7425,9004C7453,8986 7499,8948 7528,8921C7557,8894 7624,8837 7677,8793C7731,8750 7826,8666 7889,8605C8015,8484 8010,8489 8080,8405C8107,8372 8138,8336 8149,8325C8160,8313 8174,8292 8181,8277C8188,8262 8197,8250 8201,8250C8205,8250 8211,8239 8214,8225C8218,8211 8232,8188 8245,8172C8275,8139 8320,8072 8320,8061C8320,8056 8348,8018 8383,7975C8417,7932 8454,7885 8465,7870C8476,7854 8522,7793 8567,7733C8613,7674 8650,7617 8650,7606C8650,7596 8659,7572 8671,7554C8682,7535 8688,7516 8685,7510C8681,7504 8683,7493 8690,7485C8700,7473 8724,7412 8775,7265C8785,7238 8796,7206 8801,7195C8805,7184 8815,7153 8823,7125C8831,7098 8843,7062 8848,7045C8897,6904 8963,6562 8979,6360C8986,6286 8995,6182 9000,6130C9006,6078 9015,5873 9020,5675C9026,5477 9034,5283 9039,5244C9043,5205 9044,5115 9039,5044C9035,4973 9031,4825 9030,4715C9030,4605 9025,4461 9019,4395C9014,4329 9005,4214 9000,4140C8995,4066 8984,3976 8975,3940C8966,3904 8957,3861 8955,3843C8953,3826 8947,3804 8942,3793C8937,3783 8935,3769 8937,3763C8940,3756 8937,3750 8930,3750C8924,3750 8920,3742 8921,3733C8923,3723 8920,3705 8916,3693C8912,3680 8907,3653 8905,3632C8900,3570 8888,3520 8879,3514C8874,3511 8870,3496 8870,3480C8870,3464 8866,3449 8861,3446C8857,3443 8855,3428 8858,3414C8861,3397 8858,3383 8848,3376C8840,3370 8830,3343 8826,3315C8821,3288 8815,3261 8810,3255C8806,3250 8799,3229 8795,3210C8791,3191 8782,3166 8776,3155C8769,3144 8757,3118 8751,3097C8744,3076 8721,3029 8699,2992C8678,2955 8660,2922 8660,2918C8660,2914 8645,2878 8626,2838C8569,2716 8540,2650 8540,2642C8540,2638 8529,2597 8514,2550C8478,2436 8452,2381 8417,2346C8408,2336 8400,2322 8400,2315C8400,2307 8391,2295 8379,2287C8366,2277 8362,2270 8370,2265C8378,2260 8378,2254 8369,2244C8359,2232 8355,2232 8349,2242C8338,2260 8310,2223 8313,2195C8314,2181 8308,2174 8293,2172C8279,2170 8270,2162 8270,2151C8270,2141 8252,2114 8230,2090C8208,2066 8190,2039 8190,2029C8190,2020 8155,1976 8113,1931C7966,1778 7901,1704 7892,1679C7877,1640 7834,1596 7692,1471C7517,1319 7472,1283 7430,1261C7406,1248 7386,1225 7368,1189C7340,1134 7287,1081 7150,971C7109,938 7060,898 7043,883C7025,868 7004,853 6998,850C6991,847 6965,832 6940,816C6864,766 6510,591 6456,576C6428,568 6392,557 6375,551C6250,507 6102,477 5870,449C5627,420 5531,417 5255,430C5123,437 4880,444 4715,446C4521,449 4378,455 4310,465C4138,490 4030,508 3997,519C3979,524 3931,534 3890,540C3849,546 3769,567 3712,586C3656,605 3597,620 3582,620C3559,620 3425,657 3365,681C3354,685 3311,698 3270,710C3159,742 2952,847 2864,916C2815,954 2707,1021 2655,1046C2609,1068 2505,1137 2440,1189C2360,1253 2254,1366 2125,1526C2109,1546 2083,1574 2069,1589C2054,1603 2040,1627 2036,1642C2033,1656 2019,1681 2007,1697C1962,1750 1913,1826 1893,1871C1882,1896 1861,1928 1846,1943C1832,1957 1820,1975 1820,1983C1820,1991 1805,2017 1787,2041C1768,2065 1744,2106 1733,2131C1721,2157 1707,2181 1701,2185C1694,2189 1678,2215 1664,2243C1651,2272 1632,2309 1623,2325C1615,2342 1601,2369 1592,2385C1584,2402 1557,2456 1531,2505C1505,2555 1473,2623 1460,2657C1446,2692 1432,2720 1428,2720C1423,2720 1420,2731 1420,2745C1420,2759 1411,2788 1400,2810C1389,2832 1380,2860 1380,2872C1380,2885 1371,2912 1360,2933C1349,2953 1340,2979 1340,2990C1340,3001 1332,3029 1322,3053C1292,3121 1279,3161 1264,3230C1256,3266 1243,3300 1235,3306C1227,3312 1220,3324 1220,3332C1220,3341 1214,3365 1206,3387C1191,3428 1146,3693 1135,3795C1132,3828 1125,3878 1120,3905C1115,3933 1106,4007 1100,4070C1094,4133 1085,4212 1080,4245C1075,4278 1066,4352 1061,4410C1055,4468 1046,4551 1040,4595C1021,4749 1015,4948 1025,5080C1044,5315 1062,5489 1070,5508C1076,5521 1080,5543 1080,5558C1080,5573 1089,5626 1101,5675C1112,5725 1125,5784 1130,5808C1135,5831 1144,5859 1150,5871C1156,5882 1168,5925 1176,5968C1183,6010 1196,6061 1203,6080C1211,6099 1225,6138 1234,6165C1305,6368 1425,6639 1495,6755C1524,6803 1561,6872 1607,6960C1626,6996 1659,7054 1680,7089C1702,7123 1720,7156 1720,7162C1720,7167 1731,7186 1745,7204C1759,7222 1770,7242 1770,7248C1770,7253 1787,7280 1809,7307C1830,7334 1855,7370 1864,7386C1873,7402 1896,7435 1915,7460C1966,7525 2112,7746 2172,7848C2235,7955 2339,8095 2415,8175C2446,8208 2478,8248 2487,8264C2505,8298 2559,8356 2750,8545C2801,8595 2845,8645 2850,8657C2855,8669 2872,8687 2887,8696C2902,8706 2940,8737 2970,8764C3101,8884 3213,8972 3275,9005C3312,9024 3354,9049 3369,9059C3383,9069 3405,9081 3418,9085C3441,9092 3578,9162 3695,9227C3726,9245 3762,9262 3774,9266C3785,9270 3821,9288 3853,9306C3885,9325 3918,9340 3926,9340C3934,9340 3943,9346 3946,9354C3949,9361 3968,9370 3988,9374C4008,9377 4041,9388 4061,9399C4103,9422 4147,9435 4255,9460C4299,9470 4354,9485 4377,9494C4400,9503 4452,9516 4492,9524C4689,9563 4732,9571 4820,9581C4872,9587 4940,9596 4970,9600C5048,9610 5536,9611 5650,9601ZM2920,8790C2920,8785 2915,8780 2909,8780C2904,8780 2902,8785 2905,8790C2908,8796 2913,8800 2916,8800C2918,8800 2920,8796 2920,8790ZM2015,1650C2018,1645 2016,1640 2011,1640C2005,1640 2000,1645 2000,1650C2000,1656 2002,1660 2004,1660C2007,1660 2012,1656 2015,1650ZM8180,1653C8179,1639 8129,1588 8123,1594C8119,1597 8130,1613 8146,1630C8177,1662 8180,1664 8180,1653ZM8150,1508C8121,1473 8091,1440 8083,1434C8076,1428 8070,1419 8070,1415C8070,1406 7895,1230 7886,1230C7865,1230 7893,1264 8067,1447C8080,1460 8094,1479 8100,1491C8106,1502 8115,1508 8119,1505C8124,1503 8143,1517 8161,1538C8180,1559 8197,1575 8199,1573C8201,1572 8179,1542 8150,1508ZM8070,1565C8070,1543 7987,1450 7968,1450C7963,1450 7960,1446 7960,1440C7960,1435 7968,1434 7978,1437C7987,1441 7977,1425 7955,1402C7934,1379 7911,1360 7906,1360C7901,1360 7909,1373 7925,1390C7941,1406 7954,1428 7955,1439C7957,1468 8070,1592 8070,1565ZM7866,1316C7849,1298 7833,1284 7831,1286C7826,1291 7881,1350 7890,1350C7894,1350 7883,1335 7866,1316ZM5055,110C5052,105 5044,100 5039,100C5033,100 5032,105 5035,110C5038,116 5046,120 5051,120C5057,120 5058,116 5055,110Z" style="fill-rule:nonzero;"/>
        </g>
    </g>
    <g transform="matrix(0.0516154,-4.06805e-34,-4.06805e-34,-0.0516154,-6.58947,516.426)">
        <path d="M5015,8980C4927,8970 4830,8955 4800,8946C4770,8938 4702,8919 4650,8905C4598,8891 4547,8875 4538,8870C4528,8864 4508,8860 4492,8860C4477,8860 4460,8856 4454,8851C4449,8846 4414,8832 4375,8820C4337,8808 4301,8794 4295,8789C4290,8784 4279,8780 4270,8780C4232,8780 4044,8671 3922,8578C3899,8560 3874,8543 3867,8541C3861,8539 3847,8531 3838,8523C3829,8515 3809,8501 3793,8492C3766,8476 3570,8269 3570,8256C3570,8253 3547,8222 3519,8188C3491,8153 3465,8116 3460,8105C3456,8094 3436,8060 3415,8030C3381,7979 3290,7794 3290,7774C3290,7769 3283,7752 3275,7737C3253,7694 3218,7571 3225,7560C3228,7554 3227,7550 3222,7550C3208,7550 3177,7427 3182,7392C3185,7372 3182,7364 3174,7367C3168,7369 3160,7358 3156,7339C3147,7290 3149,7270 3164,7270C3171,7270 3180,7256 3184,7238C3187,7221 3201,7192 3215,7175C3228,7157 3236,7139 3232,7135C3228,7132 3230,7130 3235,7131C3241,7133 3265,7131 3289,7127C3316,7122 3344,7124 3365,7131C3394,7142 3401,7140 3429,7120C3485,7081 3544,7053 3609,7037C3737,7004 3901,6875 3996,6732C4056,6643 4123,6586 4199,6561C4251,6543 4271,6541 4292,6549C4329,6563 4345,6618 4333,6691C4318,6780 4354,6907 4418,6998C4431,7015 4438,7030 4433,7030C4429,7030 4436,7037 4448,7046C4460,7054 4470,7068 4470,7076C4470,7094 4479,7104 4621,7249C4704,7334 4745,7370 4768,7375C4786,7378 4800,7386 4800,7391C4800,7396 4816,7408 4835,7417C4854,7426 4872,7442 4876,7452C4882,7472 4900,7477 4900,7459C4900,7451 4905,7451 4915,7460C4923,7467 4930,7479 4930,7487C4930,7495 4933,7499 4938,7496C4942,7494 4968,7505 4995,7521C5023,7537 5056,7554 5069,7560C5082,7566 5106,7580 5122,7591C5149,7611 5214,7638 5285,7661C5302,7666 5385,7671 5471,7671C5593,7672 5633,7669 5657,7657C5694,7637 5845,7488 5885,7430C5935,7359 6001,7238 6021,7181C6037,7135 6038,7118 6030,7066C6017,6983 6007,6952 5976,6894C5962,6867 5950,6841 5950,6835C5950,6822 5882,6689 5865,6670C5858,6662 5850,6639 5847,6619C5844,6600 5823,6557 5800,6524C5777,6492 5750,6446 5740,6423C5730,6399 5717,6380 5713,6380C5708,6380 5696,6365 5686,6348C5675,6330 5659,6306 5650,6295C5640,6284 5625,6254 5615,6228C5606,6203 5587,6171 5574,6159C5561,6147 5550,6131 5550,6124C5550,6117 5543,6104 5534,6095C5525,6087 5505,6053 5490,6021C5458,5955 5390,5860 5375,5860C5369,5860 5360,5852 5355,5841C5349,5831 5324,5791 5298,5753C5271,5714 5250,5676 5250,5668C5250,5659 5236,5637 5219,5619C5203,5600 5179,5563 5166,5535C5153,5508 5125,5465 5103,5440C5082,5415 5052,5374 5037,5348C5021,5321 5005,5300 5001,5300C4996,5300 4987,5288 4981,5273C4975,5257 4945,5205 4915,5155C4885,5106 4854,5052 4846,5035C4838,5019 4823,4994 4812,4980C4791,4954 4716,4800 4695,4740C4688,4721 4654,4640 4620,4560C4586,4480 4552,4395 4544,4370C4536,4345 4525,4311 4519,4293C4514,4275 4494,4201 4475,4128C4456,4055 4433,3970 4424,3940C4349,3688 4330,3577 4330,3396C4330,3256 4339,3184 4367,3112L4383,3069L4407,3091C4430,3113 4430,3113 4445,3094C4453,3084 4460,3070 4460,3065C4460,3044 4551,2945 4587,2926C4608,2916 4638,2895 4653,2880C4668,2865 4706,2840 4737,2825C4783,2803 4800,2799 4837,2805C4873,2810 4880,2815 4875,2828C4872,2837 4869,2883 4869,2929C4869,2976 4865,3017 4859,3021C4842,3031 4861,3060 4886,3060C4903,3060 4910,3054 4910,3041C4910,3027 4915,3023 4930,3027C4941,3030 4950,3028 4950,3023C4950,3018 4966,3008 4985,3001C5007,2993 5052,2954 5107,2894C5177,2818 5200,2800 5218,2803C5231,2806 5240,2802 5240,2795C5240,2789 5249,2775 5260,2765C5278,2748 5285,2748 5346,2763C5366,2768 5390,2792 5384,2801C5381,2806 5386,2810 5394,2810C5403,2810 5410,2819 5410,2830C5410,2842 5420,2870 5431,2892C5450,2929 5453,2959 5461,3164C5466,3326 5474,3411 5485,3450C5526,3588 5549,3699 5548,3745C5548,3774 5545,3782 5543,3765C5537,3709 5483,3487 5469,3455C5462,3441 5463,3738 5470,3788C5470,3790 5475,3788 5480,3785C5486,3782 5490,3788 5490,3799C5490,3827 5539,3949 5562,3979C5572,3992 5580,4009 5580,4016C5580,4035 5668,4221 5686,4241C5694,4250 5700,4261 5698,4266C5695,4279 5777,4447 5810,4495C5825,4517 5896,4594 5967,4665C6038,4737 6131,4836 6174,4885C6217,4935 6291,5008 6339,5049C6461,5153 6509,5200 6536,5242C6563,5284 6633,5363 6695,5421C6717,5441 6767,5488 6805,5525C6844,5561 6898,5604 6926,5621C6961,5641 6982,5661 6991,5683C6998,5701 7006,5717 7009,5720C7025,5734 7071,5810 7085,5845C7094,5867 7105,5894 7109,5905C7130,5955 7164,6063 7186,6145C7200,6195 7227,6269 7247,6310C7288,6394 7292,6405 7314,6475C7323,6503 7340,6559 7354,6600C7367,6641 7383,6700 7390,6730C7396,6760 7408,6799 7415,6815C7422,6832 7432,6857 7435,6873C7439,6888 7446,6903 7451,6906C7456,6909 7460,6926 7460,6944C7460,6962 7463,6980 7467,6984C7471,6987 7475,7032 7476,7083C7477,7134 7485,7231 7494,7300C7511,7432 7514,7598 7501,7667C7497,7690 7481,7723 7466,7740C7442,7770 7370,7910 7366,7936C7365,7943 7359,7955 7352,7963C7341,7976 7311,8029 7268,8110C7258,8129 7233,8165 7213,8190C7153,8263 6967,8444 6935,8460C6918,8468 6864,8510 6814,8552C6763,8595 6716,8630 6709,8630C6701,8630 6670,8648 6640,8670C6583,8711 6351,8830 6328,8830C6321,8830 6303,8836 6289,8844C6275,8851 6232,8860 6194,8864C6156,8868 6096,8880 6060,8890C5700,8994 5385,9021 5015,8980ZM5724,8761C5734,8752 5745,8746 5749,8747C5755,8749 5767,8747 5823,8735C5858,8728 5912,8691 5905,8679C5900,8672 5893,8673 5882,8682C5844,8711 5819,8721 5806,8711C5797,8704 5790,8704 5782,8712C5765,8729 5634,8749 5531,8749C5479,8750 5439,8753 5442,8756C5445,8759 5467,8761 5491,8762C5515,8762 5540,8766 5545,8770C5572,8792 5696,8786 5724,8761ZM5360,8751C5360,8737 5322,8730 5215,8723C5133,8719 5117,8720 5127,8731C5135,8739 5178,8746 5242,8750C5299,8754 5348,8758 5353,8758C5357,8759 5360,8756 5360,8751ZM5408,8711C5432,8706 5453,8706 5456,8711C5459,8716 5467,8717 5473,8713C5493,8700 5514,8701 5523,8713C5528,8720 5533,8721 5536,8715C5538,8709 5575,8706 5626,8708C5679,8710 5717,8707 5723,8701C5731,8693 5721,8690 5690,8690C5665,8690 5638,8685 5630,8680C5620,8673 5639,8670 5692,8670C5734,8670 5771,8666 5774,8662C5777,8657 5792,8655 5808,8658C5829,8661 5837,8658 5837,8646C5837,8623 5756,8605 5755,8628C5755,8642 5751,8643 5728,8635C5713,8629 5713,8627 5731,8609C5746,8594 5755,8592 5774,8600C5788,8605 5802,8605 5805,8601C5812,8589 5772,8540 5755,8540C5748,8540 5739,8533 5736,8524C5731,8512 5734,8509 5746,8514C5754,8517 5765,8520 5770,8520C5775,8520 5786,8528 5796,8538C5806,8547 5816,8555 5819,8556C5822,8556 5838,8562 5853,8568C5869,8575 5886,8580 5891,8580C5896,8580 5900,8587 5900,8595C5900,8604 5906,8607 5915,8604C5923,8600 5937,8603 5945,8610C5953,8617 5971,8619 5989,8615C6012,8610 6024,8614 6039,8629C6063,8653 6078,8656 6086,8637C6088,8630 6100,8623 6113,8622C6125,8621 6173,8607 6220,8590C6267,8573 6324,8552 6348,8545C6371,8537 6396,8527 6403,8523C6410,8519 6420,8515 6425,8514C6431,8513 6461,8507 6492,8501C6524,8494 6554,8491 6558,8494C6572,8503 6702,8447 6743,8415C6764,8399 6810,8349 6845,8304C6880,8259 6931,8199 6958,8169C7013,8108 7077,7996 7110,7900C7123,7864 7137,7830 7142,7823C7147,7817 7148,7800 7144,7786C7140,7769 7144,7746 7156,7722C7171,7693 7175,7662 7175,7573C7175,7512 7172,7458 7167,7454C7163,7450 7129,7457 7091,7470C7037,7488 7011,7491 6971,7486C6921,7479 6920,7480 6932,7499C6953,7532 6930,7537 6902,7505C6888,7489 6869,7476 6860,7478C6851,7479 6830,7476 6814,7469C6787,7459 6787,7457 6805,7450C6816,7446 6830,7446 6835,7450C6841,7455 6864,7453 6887,7447C6920,7439 6934,7439 6954,7449C6982,7464 7084,7457 7106,7439C7112,7434 7122,7430 7126,7431C7149,7435 7152,7428 7135,7410C7119,7393 7104,7390 7018,7390C6938,7390 6918,7393 6913,7406C6909,7418 6905,7417 6896,7398C6888,7382 6875,7375 6855,7374C6838,7373 6807,7365 6785,7356L6745,7340L6785,7346C6807,7349 6885,7354 6958,7356C7127,7363 7158,7352 7154,7292C7153,7270 7145,7237 7136,7219L7120,7185L6983,7187C6821,7189 6789,7194 6766,7219C6756,7230 6732,7241 6712,7244C6636,7257 6620,7262 6620,7270C6620,7274 6636,7281 6655,7284C6674,7288 6690,7295 6690,7300C6690,7313 6673,7313 6665,7300C6662,7295 6648,7290 6635,7290C6623,7290 6610,7283 6606,7275C6600,7259 6585,7260 6465,7287C6427,7295 6379,7309 6360,7317C6341,7326 6310,7335 6291,7337C6232,7344 6030,7497 6030,7535C6030,7546 6043,7550 6083,7550C6147,7551 6251,7564 6350,7585C6391,7594 6452,7605 6485,7610C6518,7615 6579,7631 6620,7645C6661,7659 6716,7678 6741,7687C6777,7699 6792,7711 6804,7737C6824,7779 6824,7800 6805,7801C6780,7803 6750,7802 6748,7800C6746,7799 6734,7796 6720,7795C6706,7793 6673,7789 6645,7786C6618,7782 6579,7778 6560,7776C6512,7771 6428,7753 6399,7741C6386,7736 6321,7724 6255,7715C6189,7705 6119,7694 6100,7689C6081,7685 6037,7681 6003,7682C5949,7683 5938,7686 5925,7706C5911,7728 5912,7730 5950,7762C5971,7780 6029,7815 6077,7840C6125,7865 6170,7892 6177,7900C6184,7908 6190,7911 6190,7907C6190,7903 6209,7910 6233,7923C6256,7936 6291,7952 6310,7960C6329,7968 6362,7984 6382,7997C6403,8010 6439,8027 6462,8036C6526,8061 6536,8074 6508,8092C6495,8100 6464,8115 6438,8126C6395,8143 6390,8148 6390,8178C6390,8208 6388,8210 6356,8210C6337,8210 6319,8214 6315,8219C6312,8225 6288,8232 6262,8236C6236,8240 6213,8246 6210,8250C6198,8267 5932,8211 5857,8175C5827,8161 5797,8150 5789,8150C5781,8150 5764,8141 5750,8130C5736,8119 5721,8110 5715,8110C5710,8110 5672,8094 5630,8074C5589,8054 5544,8033 5530,8027C5516,8021 5498,8011 5490,8004C5482,7998 5457,7987 5435,7980C5413,7973 5391,7964 5385,7960C5374,7952 5284,7963 5273,7973C5270,7977 5273,7988 5281,7997C5293,8013 5293,8014 5280,8004C5272,7998 5252,7993 5236,7992C5200,7990 5193,7983 5209,7967C5218,7958 5222,7958 5228,7967C5234,7976 5239,7974 5247,7961C5258,7944 5254,7941 5212,7929C5186,7922 5157,7917 5148,7918C5138,7919 5130,7915 5130,7910C5130,7904 5121,7900 5111,7900C5100,7900 5088,7895 5085,7890C5081,7884 5070,7882 5060,7885C5048,7889 5038,7884 5031,7873C5024,7861 5018,7859 5013,7866C5004,7879 4960,7866 4960,7850C4960,7845 4951,7840 4940,7840C4929,7840 4920,7844 4920,7849C4920,7854 4917,7865 4914,7874C4910,7885 4914,7890 4925,7890C4943,7890 5010,7954 5010,7971C5010,7976 5014,7980 5019,7980C5031,7980 5087,8036 5101,8062C5107,8072 5117,8079 5123,8077C5130,8075 5154,8084 5178,8097C5201,8111 5220,8117 5220,8111C5220,8091 5235,8100 5253,8130C5277,8170 5262,8170 5168,8128C5091,8094 5007,8043 5048,8055C5060,8058 5070,8058 5070,8055C5070,8045 4970,7950 4959,7950C4954,7950 4950,7945 4950,7940C4950,7934 4936,7917 4919,7902C4888,7874 4888,7873 4904,7848C4915,7831 4917,7820 4911,7815C4894,7805 4880,7819 4887,7838C4893,7853 4891,7853 4872,7836C4855,7822 4850,7820 4850,7831C4849,7843 4847,7842 4837,7830C4819,7808 4765,7780 4739,7780C4727,7780 4720,7777 4723,7774C4732,7765 4622,7700 4587,7693C4572,7690 4557,7683 4554,7678C4551,7673 4543,7673 4536,7679C4528,7686 4515,7684 4494,7674C4478,7665 4449,7656 4430,7654C4390,7649 4364,7630 4397,7630C4409,7630 4420,7636 4423,7643C4426,7650 4431,7646 4437,7632L4446,7609L4468,7630C4483,7644 4497,7649 4511,7645C4530,7639 4529,7635 4491,7597C4466,7573 4452,7550 4455,7542C4459,7532 4455,7530 4444,7534C4420,7543 4390,7531 4390,7512C4389,7490 4362,7454 4353,7464C4349,7468 4352,7475 4360,7480C4368,7485 4371,7492 4367,7496C4354,7509 4317,7458 4316,7426C4315,7408 4308,7386 4298,7377C4289,7368 4273,7345 4261,7327C4250,7309 4223,7285 4201,7274C4169,7259 4162,7251 4166,7234C4169,7222 4165,7208 4156,7201C4147,7193 4140,7183 4140,7177C4140,7159 4108,7130 4088,7130C4076,7130 4070,7124 4072,7113C4074,7103 4068,7095 4060,7094C4052,7094 4037,7092 4027,7092C4017,7091 4011,7086 4014,7081C4022,7068 4070,7061 4076,7072C4079,7077 4089,7079 4097,7076C4105,7073 4126,7080 4143,7092C4172,7113 4173,7113 4165,7094C4161,7084 4158,7068 4158,7059C4158,7050 4145,7038 4126,7032C4074,7013 4072,7014 4014,7067C4001,7078 3976,7091 3958,7095C3928,7102 3877,7125 3840,7150C3832,7156 3809,7167 3790,7176C3771,7184 3739,7200 3720,7210C3701,7221 3675,7229 3663,7230C3650,7230 3640,7235 3640,7240C3640,7257 3570,7403 3554,7421C3541,7436 3543,7447 3571,7521C3588,7567 3616,7623 3631,7644C3647,7666 3660,7689 3660,7695C3660,7717 3748,7777 3793,7785C3813,7789 3831,7798 3834,7806C3837,7814 3847,7820 3856,7820C3876,7820 3999,7867 4017,7882C4024,7887 4033,7889 4038,7886C4042,7883 4059,7893 4075,7908C4105,7935 4129,7951 4213,7995C4239,8009 4260,8025 4260,8031C4260,8036 4264,8039 4268,8036C4273,8033 4296,8049 4321,8070C4349,8096 4371,8108 4382,8104C4394,8100 4403,8106 4411,8122C4421,8144 4490,8189 4521,8193C4529,8195 4546,8203 4560,8213C4573,8222 4592,8230 4602,8230C4611,8230 4633,8244 4650,8260C4684,8294 4740,8320 4777,8320C4790,8320 4803,8327 4807,8336C4811,8348 4814,8349 4821,8339C4825,8331 4831,8328 4834,8331C4846,8343 4821,8363 4804,8355C4793,8350 4780,8348 4774,8348C4768,8349 4742,8339 4716,8325C4690,8311 4664,8300 4658,8300C4634,8300 4703,8342 4765,8365C4802,8379 4850,8400 4873,8412C4896,8424 4918,8433 4923,8432C4927,8431 4930,8434 4930,8440C4930,8445 4947,8459 4968,8470C4993,8484 4997,8488 4980,8484C4966,8480 4935,8466 4912,8451C4888,8437 4856,8418 4842,8409C4827,8400 4800,8390 4781,8387C4762,8383 4725,8366 4698,8350C4672,8333 4645,8320 4639,8320C4634,8320 4630,8312 4632,8303C4635,8286 4631,8284 4594,8281C4581,8280 4580,8277 4589,8266C4602,8251 4581,8240 4504,8220C4481,8215 4457,8203 4450,8195C4443,8187 4434,8183 4429,8185C4425,8188 4418,8185 4413,8178C4402,8161 4247,8060 4232,8060C4225,8060 4220,8056 4220,8050C4220,8045 4211,8040 4201,8040C4191,8040 4180,8033 4176,8025C4173,8017 4163,8010 4153,8010C4138,8010 4138,8008 4149,8001C4160,7994 4156,7988 4129,7976C4110,7967 4073,7946 4045,7930C4018,7914 3979,7893 3960,7885C3941,7876 3917,7865 3907,7859C3879,7844 3868,7858 3884,7888C3916,7949 4018,8030 4063,8030C4071,8030 4089,8039 4103,8050C4117,8061 4135,8070 4143,8070C4151,8070 4173,8083 4191,8100C4210,8116 4233,8132 4243,8136C4252,8139 4260,8145 4260,8150C4260,8154 4270,8161 4283,8165C4303,8171 4303,8173 4286,8177C4276,8180 4265,8178 4261,8173C4258,8168 4228,8151 4195,8135C4162,8119 4115,8094 4091,8078C4066,8063 4037,8050 4027,8050C4016,8050 3990,8032 3968,8010C3946,7988 3923,7970 3917,7970C3903,7970 3870,7939 3870,7926C3870,7920 3858,7904 3845,7891C3831,7878 3820,7862 3820,7854C3820,7846 3809,7835 3795,7830C3781,7825 3770,7815 3770,7808C3770,7800 3767,7799 3760,7806C3754,7812 3757,7834 3770,7868C3781,7897 3787,7919 3782,7919C3760,7915 3761,7924 3789,7955C3806,7975 3820,7995 3820,8000C3820,8006 3826,8010 3833,8010C3839,8010 3851,8022 3858,8038C3868,8061 3919,8118 3990,8184C4001,8195 4010,8198 4010,8192C4010,8185 4015,8180 4020,8180C4026,8180 4030,8187 4030,8196C4030,8205 4044,8217 4060,8223C4077,8229 4090,8238 4090,8242C4090,8246 4105,8257 4123,8266C4140,8275 4159,8289 4163,8296C4167,8304 4178,8310 4185,8310C4193,8310 4208,8318 4218,8328C4246,8354 4358,8430 4370,8430C4375,8430 4380,8435 4380,8440C4380,8446 4385,8450 4391,8450C4398,8450 4424,8463 4451,8480C4500,8510 4621,8557 4675,8567C4692,8570 4712,8578 4720,8585C4743,8605 4841,8642 4856,8636C4863,8633 4872,8635 4875,8640C4879,8646 4893,8650 4908,8650C4923,8650 4969,8659 5010,8671C5071,8688 5101,8691 5170,8686C5217,8683 5269,8677 5285,8673C5311,8668 5313,8669 5302,8682C5293,8693 5292,8700 5300,8705C5305,8708 5310,8706 5310,8701C5310,8695 5315,8690 5320,8690C5326,8690 5329,8693 5329,8698C5325,8723 5336,8725 5408,8711ZM6000,8664C6000,8662 5993,8660 5985,8660C5977,8660 5970,8664 5970,8670C5970,8675 5977,8677 5985,8674C5993,8670 6000,8666 6000,8664ZM6284,8213C6304,8202 6307,8203 6095,8165C5987,8146 5867,8137 5874,8148C5883,8163 5961,8189 6051,8208C6144,8227 6255,8230 6284,8213ZM6381,8121C6392,8109 6408,8100 6417,8100C6460,8100 6348,8023 6152,7919C6050,7864 6030,7853 6012,7837C6003,7829 5959,7805 5915,7784L5835,7747L5775,7769C5742,7780 5707,7790 5698,7790C5688,7790 5680,7796 5680,7803C5680,7809 5664,7826 5644,7838C5613,7858 5610,7864 5621,7875C5629,7882 5664,7893 5699,7899C5734,7905 5765,7912 5768,7915C5782,7928 5756,7932 5711,7923C5679,7917 5657,7917 5651,7923C5639,7935 5580,7922 5574,7906C5569,7893 5500,7889 5500,7902C5500,7906 5491,7910 5480,7910C5469,7910 5460,7915 5460,7920C5460,7926 5467,7930 5476,7930C5485,7930 5509,7943 5529,7959C5549,7974 5570,7985 5577,7983C5583,7981 5594,7988 5600,8000C5608,8015 5615,8018 5624,8011C5632,8004 5639,8007 5648,8021C5655,8031 5668,8040 5678,8040C5687,8040 5706,8049 5720,8060C5734,8071 5751,8080 5759,8080C5767,8080 5779,8088 5786,8097C5795,8110 5813,8115 5852,8115C5881,8115 5907,8118 5910,8122C5913,8126 5975,8130 6048,8131C6121,8133 6186,8138 6193,8143C6199,8147 6240,8149 6283,8146C6346,8143 6366,8138 6381,8121ZM5540,7986C5540,7983 5536,7978 5530,7975C5525,7972 5520,7974 5520,7979C5520,7985 5525,7990 5530,7990C5536,7990 5540,7988 5540,7986ZM5452,7960C5416,7938 5400,7935 5400,7950C5400,7955 5415,7964 5433,7969C5483,7983 5488,7982 5452,7960ZM5350,7926C5350,7923 5346,7918 5340,7915C5335,7912 5330,7914 5330,7919C5330,7925 5335,7930 5340,7930C5346,7930 5350,7928 5350,7926ZM5324,7896C5353,7880 5372,7875 5382,7881C5412,7898 5477,7901 5489,7886C5499,7874 5495,7871 5472,7865C5456,7862 5439,7860 5434,7861C5429,7862 5423,7861 5420,7860C5417,7859 5393,7857 5365,7855C5309,7852 5268,7866 5291,7881C5301,7887 5293,7890 5268,7890C5232,7890 5221,7898 5237,7913C5249,7926 5281,7920 5324,7896ZM6701,7749C6714,7738 6719,7731 6712,7735C6704,7739 6682,7725 6658,7700C6625,7667 6605,7657 6562,7649C6532,7643 6502,7641 6494,7644C6486,7647 6463,7641 6442,7630C6422,7619 6391,7610 6373,7610C6355,7610 6319,7602 6293,7591C6267,7581 6206,7570 6159,7566C6079,7561 6070,7562 6039,7584C6020,7596 6006,7612 6007,7618C6008,7623 5996,7633 5980,7639C5930,7656 5945,7670 6014,7670C6049,7670 6113,7677 6156,7685C6200,7693 6271,7704 6315,7709C6359,7715 6412,7723 6433,7729C6465,7737 6470,7736 6466,7724C6457,7701 6498,7707 6533,7734C6584,7772 6667,7780 6701,7749ZM6127,7409C6148,7397 6181,7377 6200,7364C6219,7352 6267,7329 6305,7314C6344,7298 6386,7280 6399,7274C6413,7267 6427,7263 6431,7265C6435,7268 6440,7261 6443,7250C6447,7233 6452,7232 6484,7241C6504,7247 6525,7248 6532,7244C6538,7240 6580,7238 6625,7239C6696,7240 6710,7238 6731,7219C6763,7191 6825,7164 6878,7155C6901,7151 6920,7144 6920,7139C6920,7134 6931,7132 6944,7136C6980,7145 7012,7124 7004,7097C6998,7076 6999,7076 7016,7093C7031,7107 7032,7114 7023,7129C7006,7156 7025,7170 7082,7170L7130,7170L7130,7130C7130,7108 7126,7090 7121,7090C7117,7090 7110,7058 7106,7019C7103,6980 7091,6931 7080,6910C7069,6888 7060,6858 7060,6843C7060,6827 7051,6782 7040,6742C7029,6703 7020,6658 7020,6642C7020,6627 7011,6590 6999,6560C6987,6530 6972,6489 6964,6470C6957,6451 6951,6422 6950,6407C6950,6387 6946,6381 6938,6386C6919,6398 6886,6398 6878,6387C6867,6369 6746,6371 6637,6391C6493,6417 6345,6449 6315,6460C6300,6466 6273,6470 6254,6470C6231,6470 6211,6478 6195,6494L6171,6518L6195,6586C6217,6650 6221,6655 6251,6658C6272,6660 6286,6656 6292,6647C6297,6637 6325,6629 6372,6624C6412,6620 6448,6617 6452,6618C6525,6635 6592,6645 6602,6639C6609,6635 6627,6634 6642,6637C6657,6640 6677,6639 6687,6635C6697,6631 6737,6628 6777,6629C6867,6632 6910,6624 6910,6602C6910,6589 6913,6589 6925,6606C6939,6624 6941,6624 6954,6607C6962,6597 6974,6592 6984,6596C7008,6605 7004,6620 6977,6620C6964,6620 6949,6625 6943,6631C6937,6637 6878,6643 6804,6646C6733,6648 6653,6652 6625,6655C6559,6663 6553,6663 6498,6652C6469,6646 6450,6646 6450,6652C6450,6657 6434,6658 6415,6654C6392,6650 6380,6652 6380,6659C6380,6665 6371,6670 6359,6670C6348,6670 6341,6674 6345,6679C6351,6690 6314,6704 6300,6695C6295,6692 6282,6695 6270,6702C6252,6713 6250,6725 6250,6807C6250,6929 6253,6936 6294,6905C6311,6892 6353,6869 6385,6854C6418,6840 6460,6821 6478,6813C6502,6803 6531,6800 6578,6804C6615,6807 6661,6810 6680,6810C6712,6812 6713,6812 6690,6819C6676,6824 6637,6830 6604,6833C6571,6836 6532,6844 6517,6849C6501,6855 6472,6860 6452,6860C6431,6860 6404,6869 6390,6880C6376,6891 6359,6900 6351,6900C6327,6900 6270,6949 6276,6964C6279,6972 6275,6992 6266,7008C6250,7039 6220,7119 6220,7133C6220,7150 6281,7107 6315,7066C6354,7018 6385,7001 6403,7019C6414,7030 6387,7070 6366,7070C6355,7071 6280,7162 6280,7175C6280,7183 6238,7219 6228,7220C6225,7220 6224,7211 6227,7200C6230,7189 6228,7180 6223,7180C6205,7180 6172,7225 6133,7300C6060,7444 6060,7446 6127,7409ZM3180,7315C3180,7307 3176,7300 3170,7300C3165,7300 3160,7307 3160,7315C3160,7323 3165,7330 3170,7330C3176,7330 3180,7323 3180,7315ZM3586,7268C3575,7212 3539,7193 3528,7238C3519,7271 3537,7300 3566,7300C3591,7300 3592,7298 3586,7268ZM3450,7150C3450,7145 3448,7140 3446,7140C3443,7140 3438,7145 3435,7150C3432,7156 3434,7160 3439,7160C3445,7160 3450,7156 3450,7150ZM7157,7098C7154,7090 7151,7093 7151,7104C7150,7115 7153,7121 7156,7117C7159,7114 7160,7105 7157,7098ZM6210,6445C6218,6435 6241,6430 6274,6430C6349,6430 6445,6414 6481,6396C6499,6387 6523,6380 6536,6380C6549,6380 6562,6375 6566,6369C6570,6363 6585,6360 6602,6364C6637,6371 6670,6356 6671,6332C6671,6319 6674,6321 6680,6338C6685,6350 6697,6360 6706,6360C6720,6360 6720,6358 6709,6344C6697,6329 6699,6328 6737,6334L6778,6341L6785,6260C6789,6215 6789,6176 6786,6172C6782,6169 6771,6171 6761,6177C6751,6184 6732,6186 6719,6182C6698,6177 6701,6175 6740,6165C6810,6148 6805,6128 6708,6028C6620,5938 6603,5926 6548,5922C6538,5921 6530,5913 6530,5904C6530,5896 6535,5892 6540,5895C6546,5898 6550,5891 6551,5878C6551,5862 6553,5859 6558,5870C6568,5892 6590,5893 6590,5872C6590,5856 6542,5800 6529,5800C6526,5800 6523,5807 6523,5815C6523,5823 6527,5830 6532,5830C6536,5830 6540,5837 6540,5845C6540,5870 6519,5862 6508,5833C6502,5817 6481,5792 6461,5777C6428,5751 6420,5749 6371,5754C6342,5758 6310,5765 6300,5770C6290,5776 6272,5780 6260,5780C6248,5780 6222,5787 6202,5796C6181,5805 6156,5816 6145,5820C6084,5844 5893,5943 5878,5958C5865,5971 5927,6080 5947,6080C5955,6080 5959,6083 5957,6088C5954,6092 5958,6101 5966,6107C5975,6116 5981,6117 5986,6109C5989,6103 5987,6094 5980,6090C5971,6085 5972,6081 5984,6077C5992,6074 6000,6076 6002,6081C6004,6087 6022,6092 6042,6093C6076,6094 6077,6095 6059,6108C6049,6115 6036,6118 6030,6115C6025,6112 6009,6117 5995,6126C5972,6141 5971,6144 5985,6160C5993,6169 6000,6182 6000,6188C6000,6194 6011,6212 6025,6229C6053,6261 6082,6264 6166,6241C6188,6235 6240,6226 6280,6221C6429,6202 6517,6180 6623,6135C6635,6130 6640,6132 6640,6143C6640,6151 6630,6160 6619,6163C6605,6167 6599,6174 6603,6183C6609,6199 6579,6208 6500,6214C6364,6223 6157,6265 6139,6286C6133,6294 6115,6300 6099,6300C6067,6300 6064,6306 6085,6334C6093,6345 6100,6364 6100,6377C6100,6392 6109,6404 6125,6412C6139,6418 6150,6431 6150,6442C6150,6465 6192,6467 6210,6445ZM6886,6335C6895,6312 6859,6220 6841,6220C6825,6220 6800,6262 6800,6289C6800,6310 6840,6350 6862,6350C6872,6350 6883,6343 6886,6335ZM5885,5920C5888,5915 5901,5910 5912,5910C5923,5910 5955,5894 5981,5875C6008,5856 6033,5840 6036,5840C6048,5840 6115,5806 6128,5793C6135,5786 6153,5780 6166,5780C6180,5780 6203,5774 6218,5766C6233,5759 6268,5749 6295,5746C6345,5738 6390,5717 6390,5701C6390,5677 6306,5627 6233,5609C6070,5567 6067,5567 5987,5595C5960,5604 5936,5609 5932,5606C5929,5603 5931,5600 5936,5600C5941,5600 5958,5589 5974,5575C5990,5561 6014,5550 6027,5550C6040,5550 6053,5543 6056,5535C6062,5521 6084,5519 6105,5531C6111,5535 6127,5540 6143,5544C6174,5551 6182,5531 6150,5523C6128,5517 6123,5500 6143,5500C6150,5500 6165,5507 6176,5515C6188,5523 6200,5526 6204,5522C6208,5519 6215,5522 6220,5530C6228,5542 6230,5542 6230,5531C6230,5524 6213,5502 6193,5484C6166,5459 6147,5450 6121,5450C6101,5450 6078,5445 6070,5440C6058,5432 6058,5430 6069,5430C6077,5430 6061,5410 6034,5385C6008,5360 5983,5340 5979,5340C5963,5340 5958,5317 5971,5308C5982,5300 5981,5299 5968,5304C5956,5307 5931,5288 5885,5238C5849,5199 5820,5162 5820,5155C5820,5148 5807,5130 5790,5117C5774,5103 5760,5087 5760,5081C5760,5064 5699,5010 5680,5010C5669,5010 5645,4997 5627,4980C5608,4964 5587,4950 5581,4950C5575,4950 5562,4946 5552,4940C5484,4903 5411,4882 5320,4874C5257,4869 5242,4870 5231,4884C5221,4896 5214,4898 5204,4889C5193,4880 5190,4881 5190,4893C5190,4917 5232,5023 5250,5045C5259,5056 5278,5084 5293,5107C5318,5146 5321,5148 5355,5140C5388,5133 5394,5135 5391,5153C5390,5157 5397,5177 5406,5198C5416,5218 5422,5240 5421,5246C5421,5252 5440,5258 5467,5259C5494,5261 5521,5262 5528,5263C5534,5263 5540,5267 5540,5271C5540,5275 5555,5282 5573,5285C5590,5289 5610,5296 5615,5300C5621,5304 5648,5313 5675,5320C5703,5327 5731,5337 5737,5343C5744,5348 5756,5350 5764,5347C5771,5344 5783,5347 5789,5353C5795,5359 5800,5360 5800,5354C5800,5349 5804,5351 5809,5359C5819,5375 5899,5399 5944,5400C5981,5400 6050,5421 6050,5432C6050,5443 6006,5442 5995,5431C5989,5425 5963,5420 5935,5419C5908,5418 5881,5414 5875,5410C5870,5406 5847,5399 5825,5395C5803,5391 5731,5370 5665,5348C5599,5327 5532,5307 5515,5305C5499,5304 5473,5299 5459,5295C5395,5279 5417,5334 5542,5503C5614,5601 5612,5600 5685,5600C5729,5600 5761,5606 5784,5618L5817,5636L5786,5656C5769,5667 5740,5682 5723,5689C5684,5705 5679,5734 5712,5751C5725,5758 5740,5769 5747,5776C5754,5783 5763,5790 5768,5792C5772,5793 5790,5825 5808,5863C5831,5912 5845,5930 5859,5930C5870,5930 5882,5926 5885,5920ZM5627,4930C5626,4919 5623,4910 5619,4910C5613,4910 5560,4835 5560,4826C5560,4823 5568,4823 5578,4827C5588,4830 5582,4821 5565,4804C5548,4788 5519,4751 5501,4723C5483,4694 5465,4670 5461,4670C5457,4670 5446,4655 5436,4638C5408,4590 5358,4540 5338,4540C5328,4540 5320,4536 5320,4530C5320,4525 5331,4520 5345,4520C5377,4520 5377,4508 5342,4468C5292,4409 5232,4306 5227,4268C5224,4247 5206,4210 5186,4185C5167,4160 5148,4126 5145,4110C5136,4067 5090,4037 5045,4046C5014,4051 5012,4054 5021,4072C5027,4083 5029,4094 5026,4098C5018,4105 4991,4069 4994,4055C4996,4050 4995,4048 4993,4052C4991,4055 4955,4056 4913,4053L4838,4047L4845,4071C4855,4104 4881,4129 4887,4113C4893,4095 4910,4097 4910,4114C4910,4122 4901,4132 4890,4135C4879,4138 4870,4147 4870,4154C4870,4206 4985,4454 5003,4443C5018,4433 5100,4433 5100,4442C5100,4445 5116,4454 5135,4460C5154,4466 5168,4475 5165,4480C5162,4484 5170,4486 5182,4483C5201,4479 5202,4480 5190,4490C5178,4499 5181,4501 5208,4497C5225,4495 5240,4497 5240,4501C5240,4505 5256,4511 5275,4514C5294,4518 5310,4526 5310,4531C5310,4537 5302,4539 5293,4536C5283,4533 5240,4526 5197,4521C5154,4515 5101,4501 5079,4489C5047,4473 5035,4471 5024,4481C5000,4500 5008,4552 5044,4611C5062,4641 5085,4688 5094,4716C5103,4743 5123,4780 5139,4799C5166,4832 5171,4833 5246,4837C5289,4840 5367,4842 5419,4842C5511,4843 5513,4844 5492,4860C5465,4882 5474,4891 5557,4925C5630,4954 5629,4954 5627,4930ZM5110,4011C5110,4002 5103,3986 5095,3976C5087,3965 5080,3947 5080,3935C5080,3923 5074,3908 5068,3901C5059,3893 5055,3845 5055,3737C5055,3617 5051,3580 5039,3560C5026,3539 5025,3517 5031,3430C5042,3272 5041,3218 5030,3225C5025,3228 5020,3240 5020,3250C5020,3275 4979,3305 4968,3287C4962,3279 4958,3282 4954,3298C4948,3320 4920,3330 4920,3310C4920,3305 4926,3300 4932,3300C4939,3300 4934,3293 4922,3284C4903,3271 4896,3271 4884,3281C4872,3291 4868,3290 4863,3272C4852,3228 4816,3253 4781,3330C4770,3355 4760,3391 4760,3410C4759,3439 4758,3442 4749,3428C4733,3400 4717,3406 4724,3438C4728,3453 4732,3495 4735,3533C4737,3570 4742,3605 4746,3611C4757,3630 4779,3734 4780,3771C4780,3791 4789,3836 4800,3870C4811,3904 4820,3945 4820,3960C4820,4001 4841,4012 4933,4019C5070,4030 5110,4028 5110,4011ZM4400,3210C4400,3205 4396,3200 4390,3200C4385,3200 4380,3205 4380,3210C4380,3216 4385,3220 4390,3220C4396,3220 4400,3216 4400,3210ZM4916,3148C4947,3100 4939,3073 4897,3078C4883,3080 4862,3076 4850,3070C4834,3061 4829,3062 4824,3075C4821,3083 4812,3090 4806,3090C4799,3090 4788,3106 4781,3125C4764,3174 4778,3190 4841,3190C4887,3190 4891,3188 4916,3148Z" style="fill-rule:nonzero;"/>
    </g>
    <g transform="matrix(0.0516154,-4.06805e-34,-4.06805e-34,-0.0516154,-6.58947,516.426)">
        <path d="M5588,8683C5595,8680 5604,8681 5607,8684C5611,8687 5605,8690 5594,8689C5583,8689 5580,8686 5588,8683Z" style="fill-rule:nonzero;"/>
    </g>
    <g transform="matrix(0.0516154,-4.06805e-34,-4.06805e-34,-0.0516154,-6.58947,516.426)">
        <path d="M5598,8653C5605,8650 5614,8651 5617,8654C5621,8657 5615,8660 5604,8659C5593,8659 5590,8656 5598,8653Z" style="fill-rule:nonzero;"/>
    </g>
    <g transform="matrix(0.0516154,-4.06805e-34,-4.06805e-34,-0.0516154,-6.58947,516.426)">
        <path d="M5085,8629C5038,8621 4998,8613 4997,8613C4995,8613 4954,8595 4868,8556C4837,8542 4807,8530 4801,8530C4796,8530 4790,8526 4788,8520C4785,8511 4740,8486 4592,8409C4510,8367 4520,8359 4606,8400C4643,8417 4698,8441 4729,8452C4760,8464 4789,8479 4793,8486C4797,8494 4806,8500 4812,8500C4819,8500 4833,8508 4844,8518C4881,8552 5085,8620 5149,8620C5169,8621 5212,8627 5245,8635L5305,8649L5237,8647C5200,8646 5131,8638 5085,8629Z" style="fill-rule:nonzero;"/>
    </g>
    <g transform="matrix(0.0516154,-4.06805e-34,-4.06805e-34,-0.0516154,-6.58947,516.426)">
        <path d="M5400,8636C5400,8634 5407,8629 5416,8626C5424,8623 5428,8624 5425,8630C5419,8640 5400,8644 5400,8636Z" style="fill-rule:nonzero;"/>
    </g>
    <g transform="matrix(0.0516154,-4.06805e-34,-4.06805e-34,-0.0516154,-6.58947,516.426)">
        <path d="M5610,8623C5610,8618 5615,8608 5620,8600C5627,8589 5632,8588 5641,8597C5647,8603 5649,8613 5646,8619C5638,8631 5610,8634 5610,8623Z" style="fill-rule:nonzero;"/>
    </g>
    <g transform="matrix(0.0516154,-4.06805e-34,-4.06805e-34,-0.0516154,-6.58947,516.426)">
        <path d="M5670,8620C5670,8615 5677,8610 5685,8610C5693,8610 5700,8615 5700,8620C5700,8626 5693,8630 5685,8630C5677,8630 5670,8626 5670,8620Z" style="fill-rule:nonzero;"/>
    </g>
    <g transform="matrix(0.0516154,-4.06805e-34,-4.06805e-34,-0.0516154,-6.58947,516.426)">
        <path d="M5547,8605C5543,8597 5545,8588 5550,8585C5556,8581 5560,8588 5560,8599C5560,8624 5554,8626 5547,8605Z" style="fill-rule:nonzero;"/>
    </g>
    <g transform="matrix(0.0516154,-4.06805e-34,-4.06805e-34,-0.0516154,-6.58947,516.426)">
        <path d="M5430,8560C5405,8544 5390,8530 5397,8530C5403,8530 5417,8527 5427,8524C5441,8520 5442,8520 5431,8528C5421,8536 5426,8543 5456,8564C5477,8578 5490,8590 5485,8590C5479,8590 5455,8576 5430,8560Z" style="fill-rule:nonzero;"/>
    </g>
    <g transform="matrix(0.0516154,-4.06805e-34,-4.06805e-34,-0.0516154,-6.58947,516.426)">
        <path d="M5698,8557C5684,8544 5669,8525 5666,8514C5657,8487 5592,8448 5569,8455C5558,8459 5550,8457 5550,8451C5550,8445 5557,8440 5565,8440C5573,8440 5580,8437 5580,8434C5580,8427 5484,8336 5432,8292C5356,8229 5329,8200 5335,8191C5339,8184 5349,8185 5364,8195C5376,8203 5390,8207 5393,8203C5397,8200 5400,8202 5400,8208C5400,8222 5421,8243 5480,8290C5505,8309 5551,8350 5583,8380C5615,8410 5650,8439 5660,8444C5681,8454 5705,8500 5689,8500C5683,8500 5692,8516 5709,8535C5726,8555 5740,8573 5740,8575C5740,8587 5721,8578 5698,8557Z" style="fill-rule:nonzero;"/>
    </g>
    <g transform="matrix(0.0516154,-4.06805e-34,-4.06805e-34,-0.0516154,-6.58947,516.426)">
        <path d="M5313,8453C5299,8450 5293,8444 5297,8434C5304,8415 5330,8416 5330,8435C5330,8456 5360,8454 5376,8433C5383,8423 5392,8418 5396,8422C5400,8426 5397,8436 5390,8445C5378,8460 5358,8462 5313,8453Z" style="fill-rule:nonzero;"/>
    </g>
    <g transform="matrix(0.0516154,-4.06805e-34,-4.06805e-34,-0.0516154,-6.58947,516.426)">
        <path d="M5265,8440C5261,8434 5255,8432 5250,8435C5246,8438 5231,8436 5218,8431C5197,8422 5199,8421 5231,8421C5255,8420 5270,8425 5274,8435C5280,8452 5274,8455 5265,8440Z" style="fill-rule:nonzero;"/>
    </g>
    <g transform="matrix(0.0516154,-4.06805e-34,-4.06805e-34,-0.0516154,-6.58947,516.426)">
        <path d="M5156,8411C5152,8406 5159,8404 5170,8407C5193,8413 5196,8420 5176,8420C5168,8420 5159,8416 5156,8411Z" style="fill-rule:nonzero;"/>
    </g>
    <g transform="matrix(0.0516154,-4.06805e-34,-4.06805e-34,-0.0516154,-6.58947,516.426)">
        <path d="M4995,8389C4931,8372 4929,8370 4975,8376C5003,8379 5040,8383 5058,8383C5075,8384 5090,8388 5090,8393C5090,8397 5094,8398 5100,8395C5105,8392 5118,8394 5127,8399C5157,8417 5074,8410 4995,8389Z" style="fill-rule:nonzero;"/>
    </g>
    <g transform="matrix(0.0516154,-4.06805e-34,-4.06805e-34,-0.0516154,-6.58947,516.426)">
        <path d="M4870,8360C4846,8352 4846,8352 4877,8351C4894,8350 4912,8355 4915,8360C4922,8371 4906,8371 4870,8360Z" style="fill-rule:nonzero;"/>
    </g>
    <g transform="matrix(0.0516154,-4.06805e-34,-4.06805e-34,-0.0516154,-6.58947,516.426)">
        <path d="M5815,8330C5812,8325 5813,8320 5819,8320C5824,8320 5832,8325 5835,8330C5838,8336 5837,8340 5831,8340C5826,8340 5818,8336 5815,8330Z" style="fill-rule:nonzero;"/>
    </g>
    <g transform="matrix(0.0516154,-4.06805e-34,-4.06805e-34,-0.0516154,-6.58947,516.426)">
        <path d="M6243,8263C6252,8261 6266,8261 6273,8263C6279,8266 6272,8268 6255,8268C6239,8268 6233,8266 6243,8263Z" style="fill-rule:nonzero;"/>
    </g>
    <g transform="matrix(0.0516154,-4.06805e-34,-4.06805e-34,-0.0516154,-6.58947,516.426)">
        <path d="M4370,8205L4345,8191L4377,8193C4396,8194 4410,8200 4410,8208C4410,8223 4401,8223 4370,8205Z" style="fill-rule:nonzero;"/>
    </g>
    <g transform="matrix(0.0516154,-4.06805e-34,-4.06805e-34,-0.0516154,-6.58947,516.426)">
        <path d="M4318,8183C4325,8180 4334,8181 4337,8184C4341,8187 4335,8190 4324,8189C4313,8189 4310,8186 4318,8183Z" style="fill-rule:nonzero;"/>
    </g>
    <g transform="matrix(0.0516154,-4.06805e-34,-4.06805e-34,-0.0516154,-6.58947,516.426)">
        <path d="M5285,8180C5282,8175 5288,8170 5299,8170C5311,8170 5320,8175 5320,8180C5320,8186 5314,8190 5306,8190C5298,8190 5288,8186 5285,8180Z" style="fill-rule:nonzero;"/>
    </g>
    <g transform="matrix(0.0516154,-4.06805e-34,-4.06805e-34,-0.0516154,-6.58947,516.426)">
        <path d="M5014,8119C5007,8107 5009,8104 5037,8096C5055,8090 5059,8092 5054,8104C5047,8123 5022,8132 5014,8119Z" style="fill-rule:nonzero;"/>
    </g>
    <g transform="matrix(0.0516154,-4.06805e-34,-4.06805e-34,-0.0516154,-6.58947,516.426)">
        <path d="M4965,8066C4949,8053 4932,8042 4928,8041C4923,8041 4920,8038 4920,8035C4920,8017 4987,8045 5000,8069C5014,8096 5002,8095 4965,8066Z" style="fill-rule:nonzero;"/>
    </g>
    <g transform="matrix(0.0516154,-4.06805e-34,-4.06805e-34,-0.0516154,-6.58947,516.426)">
        <path d="M5381,8054C5364,8037 5361,8030 5372,8030C5380,8030 5397,8041 5410,8055C5441,8088 5414,8087 5381,8054Z" style="fill-rule:nonzero;"/>
    </g>
    <g transform="matrix(0.0516154,-4.06805e-34,-4.06805e-34,-0.0516154,-6.58947,516.426)">
        <path d="M4850,8000C4850,7987 4861,7987 4880,8000C4892,8008 4891,8010 4873,8010C4860,8010 4850,8006 4850,8000Z" style="fill-rule:nonzero;"/>
    </g>
    <g transform="matrix(0.0516154,-4.06805e-34,-4.06805e-34,-0.0516154,-6.58947,516.426)">
        <path d="M3820,7975C3813,7966 3809,7957 3812,7955C3815,7952 3823,7956 3830,7965C3837,7974 3841,7983 3838,7985C3835,7988 3827,7984 3820,7975Z" style="fill-rule:nonzero;"/>
    </g>
    <g transform="matrix(0.0516154,-4.06805e-34,-4.06805e-34,-0.0516154,-6.58947,516.426)">
        <path d="M4602,7949C4579,7932 4560,7916 4560,7914C4560,7911 4565,7912 4570,7915C4576,7918 4580,7916 4580,7910C4580,7904 4572,7900 4563,7901C4530,7904 4520,7900 4520,7885C4520,7867 4521,7867 4556,7884C4571,7892 4588,7896 4593,7893C4599,7889 4601,7893 4597,7902C4589,7923 4617,7960 4641,7960C4663,7960 4665,7949 4648,7932C4634,7918 4646,7917 4675,7930C4686,7935 4690,7939 4684,7939C4677,7940 4670,7949 4667,7960C4660,7987 4651,7985 4602,7949Z" style="fill-rule:nonzero;"/>
    </g>
    <g transform="matrix(0.0516154,-4.06805e-34,-4.06805e-34,-0.0516154,-6.58947,516.426)">
        <path d="M4794,7956C4780,7940 4780,7938 4793,7943C4802,7946 4811,7946 4813,7942C4815,7938 4815,7941 4814,7948C4812,7954 4817,7960 4825,7960C4832,7960 4841,7964 4845,7969C4856,7987 4811,7976 4794,7956Z" style="fill-rule:nonzero;"/>
    </g>
    <g transform="matrix(0.0516154,-4.06805e-34,-4.06805e-34,-0.0516154,-6.58947,516.426)">
        <path d="M4490,7871C4490,7866 4477,7860 4460,7857C4444,7853 4430,7845 4430,7839C4430,7833 4437,7831 4446,7834C4455,7837 4467,7840 4473,7840C4480,7840 4491,7849 4498,7860C4505,7872 4506,7880 4500,7880C4495,7880 4490,7876 4490,7871Z" style="fill-rule:nonzero;"/>
    </g>
    <g transform="matrix(0.0516154,-4.06805e-34,-4.06805e-34,-0.0516154,-6.58947,516.426)">
        <path d="M4390,7820C4382,7816 4353,7802 4325,7789C4298,7776 4264,7755 4251,7743C4237,7731 4213,7716 4198,7709C4183,7703 4170,7694 4170,7690C4170,7686 4159,7679 4145,7676C4131,7672 4122,7665 4125,7660C4134,7645 4148,7648 4168,7668C4178,7677 4209,7696 4236,7710C4263,7723 4287,7737 4290,7741C4298,7752 4358,7780 4372,7780C4388,7780 4422,7817 4412,7823C4408,7826 4398,7824 4390,7820Z" style="fill-rule:nonzero;"/>
    </g>
    <g transform="matrix(0.0516154,-4.06805e-34,-4.06805e-34,-0.0516154,-6.58947,516.426)">
        <path d="M4037,7624C4012,7607 4001,7593 4004,7583C4007,7575 4010,7565 4010,7561C4010,7553 4054,7530 4070,7530C4074,7530 4073,7541 4067,7554C4060,7567 4052,7576 4047,7573C4042,7570 4040,7578 4042,7590C4044,7604 4059,7620 4080,7631C4105,7645 4109,7650 4095,7650C4084,7650 4058,7638 4037,7624Z" style="fill-rule:nonzero;"/>
    </g>
    <g transform="matrix(0.0516154,-4.06805e-34,-4.06805e-34,-0.0516154,-6.58947,516.426)">
        <path d="M4340,7640C4332,7635 4328,7629 4331,7626C4334,7623 4345,7627 4356,7635C4377,7651 4364,7655 4340,7640Z" style="fill-rule:nonzero;"/>
    </g>
    <g transform="matrix(0.0516154,-4.06805e-34,-4.06805e-34,-0.0516154,-6.58947,516.426)">
        <path d="M4495,7630C4492,7625 4494,7620 4499,7620C4505,7620 4510,7625 4510,7630C4510,7636 4508,7640 4506,7640C4503,7640 4498,7636 4495,7630Z" style="fill-rule:nonzero;"/>
    </g>
    <g transform="matrix(0.0516154,-4.06805e-34,-4.06805e-34,-0.0516154,-6.58947,516.426)">
        <path d="M4220,7609C4207,7601 4209,7597 4228,7583C4240,7575 4250,7562 4250,7555C4250,7547 4255,7540 4261,7538C4269,7535 4267,7523 4255,7500C4239,7467 4239,7466 4255,7482C4277,7502 4284,7580 4264,7580C4256,7580 4250,7586 4250,7594C4250,7614 4237,7621 4220,7609Z" style="fill-rule:nonzero;"/>
    </g>
    <g transform="matrix(0.0516154,-4.06805e-34,-4.06805e-34,-0.0516154,-6.58947,516.426)">
        <path d="M4150,7600C4150,7595 4155,7590 4161,7590C4166,7590 4168,7595 4165,7600C4162,7606 4157,7610 4154,7610C4152,7610 4150,7606 4150,7600Z" style="fill-rule:nonzero;"/>
    </g>
    <g transform="matrix(0.0516154,-4.06805e-34,-4.06805e-34,-0.0516154,-6.58947,516.426)">
        <path d="M4000,7532C4000,7526 3986,7523 3969,7524C3953,7525 3937,7523 3934,7518C3931,7514 3920,7510 3909,7510C3899,7510 3889,7506 3889,7500C3884,7471 3886,7465 3900,7465C3911,7465 3914,7454 3913,7425C3911,7403 3906,7384 3900,7382C3895,7380 3890,7373 3890,7367C3890,7360 3878,7344 3865,7331C3851,7318 3840,7303 3840,7296C3840,7290 3845,7292 3850,7300C3858,7313 3860,7312 3860,7296C3860,7285 3852,7268 3843,7257C3826,7238 3826,7237 3848,7249C3860,7255 3870,7267 3870,7275C3870,7282 3881,7297 3895,7308C3908,7319 3917,7330 3914,7333C3905,7341 3934,7380 3948,7380C3957,7380 3960,7386 3956,7396C3953,7405 3950,7416 3950,7421C3950,7427 3946,7429 3941,7426C3932,7420 3934,7463 3945,7480C3948,7485 3956,7488 3961,7485C3966,7481 3970,7483 3970,7489C3970,7494 3982,7500 3998,7502C4025,7505 4036,7530 4013,7538C4006,7540 4000,7537 4000,7532Z" style="fill-rule:nonzero;"/>
    </g>
    <g transform="matrix(0.0516154,-4.06805e-34,-4.06805e-34,-0.0516154,-6.58947,516.426)">
        <path d="M4075,7487C4068,7475 4056,7452 4049,7435C4042,7419 4028,7396 4019,7385C4009,7374 3999,7352 3995,7335L3989,7305L4015,7335C4029,7352 4044,7364 4049,7363C4068,7358 4112,7419 4113,7452C4114,7470 4119,7488 4123,7491C4128,7494 4122,7500 4111,7503C4096,7507 4085,7502 4075,7487ZM4110,7466C4110,7463 4106,7458 4100,7455C4095,7452 4090,7454 4090,7459C4090,7465 4095,7470 4100,7470C4106,7470 4110,7468 4110,7466Z" style="fill-rule:nonzero;"/>
    </g>
    <g transform="matrix(0.0516154,-4.06805e-34,-4.06805e-34,-0.0516154,-6.58947,516.426)">
        <path d="M4175,7470C4172,7465 4174,7460 4179,7460C4185,7460 4190,7465 4190,7470C4190,7476 4188,7480 4186,7480C4183,7480 4178,7476 4175,7470Z" style="fill-rule:nonzero;"/>
    </g>
    <g transform="matrix(0.0516154,-4.06805e-34,-4.06805e-34,-0.0516154,-6.58947,516.426)">
        <path d="M6570,7450C6507,7447 6467,7443 6482,7442C6496,7441 6510,7436 6512,7431C6517,7417 6763,7432 6767,7447C6771,7459 6768,7459 6570,7450Z" style="fill-rule:nonzero;"/>
    </g>
    <g transform="matrix(0.0516154,-4.06805e-34,-4.06805e-34,-0.0516154,-6.58947,516.426)">
        <path d="M6386,7415C6391,7403 6470,7408 6470,7421C6470,7425 6450,7428 6426,7427C6400,7426 6384,7421 6386,7415Z" style="fill-rule:nonzero;"/>
    </g>
    <g transform="matrix(0.0516154,-4.06805e-34,-4.06805e-34,-0.0516154,-6.58947,516.426)">
        <path d="M3970,7400C3970,7395 3975,7390 3981,7390C3986,7390 3988,7395 3985,7400C3982,7406 3977,7410 3974,7410C3972,7410 3970,7406 3970,7400Z" style="fill-rule:nonzero;"/>
    </g>
    <g transform="matrix(0.0516154,-4.06805e-34,-4.06805e-34,-0.0516154,-6.58947,516.426)">
        <path d="M3905,7299C3901,7293 3900,7287 3903,7284C3905,7281 3910,7286 3913,7295C3920,7312 3914,7315 3905,7299Z" style="fill-rule:nonzero;"/>
    </g>
    <g transform="matrix(0.0516154,-4.06805e-34,-4.06805e-34,-0.0516154,-6.58947,516.426)">
        <path d="M3988,7113C3995,7110 4004,7111 4007,7114C4011,7117 4005,7120 3994,7119C3983,7119 3980,7116 3988,7113Z" style="fill-rule:nonzero;"/>
    </g>
    <g transform="matrix(0.0516154,-4.06805e-34,-4.06805e-34,-0.0516154,-6.58947,516.426)">
        <path d="M6019,8063C6006,8048 6007,8048 6028,8059C6051,8071 6056,8080 6041,8080C6036,8080 6026,8073 6019,8063Z" style="fill-rule:nonzero;"/>
    </g>
    <g transform="matrix(0.0516154,-4.06805e-34,-4.06805e-34,-0.0516154,-6.58947,516.426)">
        <path d="M6940,7050C6912,7034 6909,7031 6926,7030C6938,7030 6958,7039 6971,7050C7001,7075 6985,7075 6940,7050Z" style="fill-rule:nonzero;"/>
    </g>
    <g transform="matrix(0.0516154,-4.06805e-34,-4.06805e-34,-0.0516154,-6.58947,516.426)">
        <path d="M6570,7011L6525,7003L6570,7001C6595,6999 6641,6999 6672,7000C6721,7001 6729,6999 6724,6986C6719,6973 6723,6971 6749,6976C6779,6982 6794,6967 6768,6957C6761,6954 6765,6951 6777,6951C6789,6950 6802,6955 6805,6960C6808,6966 6820,6970 6831,6970C6842,6970 6848,6975 6845,6980C6842,6986 6844,6990 6849,6990C6855,6990 6860,6997 6860,7006C6860,7018 6855,7019 6838,7014C6811,7005 6802,7005 6695,7012C6651,7015 6595,7015 6570,7011Z" style="fill-rule:nonzero;"/>
    </g>
    <g transform="matrix(0.0516154,-4.06805e-34,-4.06805e-34,-0.0516154,-6.58947,516.426)">
        <path d="M6473,7003C6482,7001 6498,7001 6508,7003C6517,7006 6509,7008 6490,7008C6471,7008 6463,7006 6473,7003Z" style="fill-rule:nonzero;"/>
    </g>
    <g transform="matrix(0.0516154,-4.06805e-34,-4.06805e-34,-0.0516154,-6.58947,516.426)">
        <path d="M7013,6880C7015,6872 7025,6864 7036,6863C7049,6861 7051,6862 7040,6867C7032,6870 7021,6878 7017,6884C7011,6891 7010,6890 7013,6880Z" style="fill-rule:nonzero;"/>
    </g>
    <g transform="matrix(0.0516154,-4.06805e-34,-4.06805e-34,-0.0516154,-6.58947,516.426)">
        <path d="M6888,6867C6850,6856 6841,6847 6860,6835C6866,6832 6870,6834 6870,6840C6870,6846 6881,6848 6895,6846C6912,6843 6920,6846 6920,6855C6920,6862 6926,6871 6933,6873C6953,6882 6927,6878 6888,6867Z" style="fill-rule:nonzero;"/>
    </g>
    <g transform="matrix(0.0516154,-4.06805e-34,-4.06805e-34,-0.0516154,-6.58947,516.426)">
        <path d="M6795,6840C6787,6827 6810,6827 6830,6840C6842,6848 6841,6850 6823,6850C6811,6850 6798,6846 6795,6840Z" style="fill-rule:nonzero;"/>
    </g>
    <g transform="matrix(0.0516154,-4.06805e-34,-4.06805e-34,-0.0516154,-6.58947,516.426)">
        <path d="M6936,6839C6939,6834 6933,6830 6924,6830C6914,6830 6909,6827 6912,6824C6915,6821 6933,6823 6951,6828L6985,6836L6958,6842C6943,6845 6933,6843 6936,6839Z" style="fill-rule:nonzero;"/>
    </g>
    <g transform="matrix(0.0516154,-4.06805e-34,-4.06805e-34,-0.0516154,-6.58947,516.426)">
        <path d="M6901,6562C6900,6533 6917,6500 6933,6500C6941,6500 6942,6503 6934,6508C6929,6512 6919,6531 6913,6550C6904,6577 6902,6580 6901,6562Z" style="fill-rule:nonzero;"/>
    </g>
    <g transform="matrix(0.0516154,-4.06805e-34,-4.06805e-34,-0.0516154,-6.58947,516.426)">
        <path d="M6620,6192C6620,6187 6627,6179 6636,6176C6660,6167 6690,6169 6690,6180C6690,6186 6681,6190 6671,6190C6660,6190 6645,6193 6636,6196C6627,6199 6620,6198 6620,6192Z" style="fill-rule:nonzero;"/>
    </g>
    <g transform="matrix(0.0516154,-4.06805e-34,-4.06805e-34,-0.0516154,-6.58947,516.426)">
        <path d="M6690,6099C6690,6094 6695,6092 6700,6095C6706,6098 6710,6103 6710,6106C6710,6108 6706,6110 6700,6110C6695,6110 6690,6105 6690,6099Z" style="fill-rule:nonzero;"/>
    </g>
    <g transform="matrix(0.0516154,-4.06805e-34,-4.06805e-34,-0.0516154,-6.58947,516.426)">
        <path d="M6110,6045C6110,6036 6116,6030 6123,6031C6155,6035 6179,6028 6201,6009C6219,5993 6235,5989 6267,5992C6308,5995 6324,5987 6298,5977C6290,5974 6293,5971 6303,5971C6314,5970 6318,5965 6314,5958C6309,5950 6319,5949 6348,5953C6371,5956 6393,5954 6396,5949C6399,5944 6418,5940 6439,5941C6459,5943 6481,5940 6488,5936C6495,5932 6500,5933 6500,5938C6500,5968 6367,6012 6285,6009C6260,6008 6231,6015 6206,6029C6185,6041 6161,6049 6154,6046C6147,6043 6138,6045 6135,6050C6126,6065 6110,6062 6110,6045Z" style="fill-rule:nonzero;"/>
    </g>
    <g transform="matrix(0.0516154,-4.06805e-34,-4.06805e-34,-0.0516154,-6.58947,516.426)">
        <path d="M5895,5980C5898,5975 5903,5970 5906,5970C5908,5970 5910,5975 5910,5980C5910,5986 5905,5990 5899,5990C5894,5990 5892,5986 5895,5980Z" style="fill-rule:nonzero;"/>
    </g>
    <g transform="matrix(0.0516154,-4.06805e-34,-4.06805e-34,-0.0516154,-6.58947,516.426)">
        <path d="M5888,5623C5895,5620 5904,5621 5907,5624C5911,5627 5905,5630 5894,5629C5883,5629 5880,5626 5888,5623Z" style="fill-rule:nonzero;"/>
    </g>
    <g transform="matrix(0.0516154,-4.06805e-34,-4.06805e-34,-0.0516154,-6.58947,516.426)">
        <path d="M5176,4452C5174,4448 5175,4438 5179,4431C5185,4421 5189,4422 5193,4434C5199,4450 5185,4466 5176,4452Z" style="fill-rule:nonzero;"/>
    </g>
    <g transform="matrix(0.0516154,-4.06805e-34,-4.06805e-34,-0.0516154,-6.58947,516.426)">
        <path d="M4934,4085C4955,4069 4966,4072 4955,4089C4952,4095 4941,4100 4932,4100C4917,4099 4917,4098 4934,4085Z" style="fill-rule:nonzero;"/>
    </g>
    <g transform="matrix(0.0516154,-4.06805e-34,-4.06805e-34,-0.0516154,-6.58947,516.426)">
        <path d="M5530,3830C5530,3825 5535,3820 5541,3820C5546,3820 5548,3825 5545,3830C5542,3836 5537,3840 5534,3840C5532,3840 5530,3836 5530,3830Z" style="fill-rule:nonzero;"/>
    </g>
    <g transform="matrix(0.0516154,-4.06805e-34,-4.06805e-34,-0.0516154,-6.58947,516.426)">
        <path d="M5330,2735C5330,2727 5335,2720 5340,2720C5346,2720 5350,2727 5350,2735C5350,2743 5346,2750 5340,2750C5335,2750 5330,2743 5330,2735Z" style="fill-rule:nonzero;"/>
    </g>
    <g transform="matrix(0.0516154,-4.06805e-34,-4.06805e-34,-0.0516154,-6.58947,516.426)">
        <path d="M5074,2614C5028,2603 5000,2588 4959,2553C4929,2528 4906,2503 4908,2498C4909,2494 4905,2490 4899,2490C4893,2490 4886,2499 4883,2510C4880,2521 4874,2530 4869,2530C4856,2530 4787,2488 4764,2466C4752,2454 4731,2437 4716,2427C4682,2404 4607,2302 4615,2290C4618,2285 4612,2275 4600,2268C4589,2261 4580,2248 4580,2240C4580,2232 4562,2194 4542,2155C4521,2117 4496,2072 4487,2055C4393,1880 4393,1883 4385,1634C4384,1589 4380,1548 4376,1542C4373,1536 4375,1519 4381,1503C4387,1488 4394,1466 4396,1455C4398,1444 4402,1423 4406,1408C4411,1386 4409,1380 4396,1380C4360,1380 4395,1316 4436,1308C4445,1307 4456,1298 4460,1290C4464,1282 4474,1260 4483,1242C4492,1223 4500,1200 4500,1190C4500,1179 4519,1158 4545,1140C4569,1123 4604,1092 4621,1070C4645,1040 4662,1030 4694,1025C4716,1021 4744,1009 4755,999C4872,888 4894,873 5010,834C5053,819 5089,816 5176,818C5331,821 5432,851 5542,922C5588,953 5646,987 5671,1000C5697,1012 5735,1038 5756,1057C5778,1077 5808,1100 5823,1110C5857,1131 5954,1216 6022,1284C6067,1329 6069,1334 6053,1346C6040,1355 6038,1362 6046,1367C6066,1381 6100,1444 6100,1468C6100,1480 6107,1493 6115,1496C6123,1500 6130,1510 6130,1519C6130,1528 6138,1546 6147,1560C6181,1609 6199,1895 6170,1924C6164,1930 6160,1946 6160,1960C6160,1975 6157,1990 6153,1994C6149,1997 6145,2008 6144,2017C6139,2050 6105,2115 6080,2141C6066,2155 6043,2179 6029,2196C6014,2212 5996,2230 5989,2236C5981,2242 5955,2269 5930,2296C5905,2324 5865,2361 5840,2380C5815,2398 5789,2420 5782,2429C5775,2437 5752,2453 5730,2465C5708,2476 5643,2509 5585,2538C5527,2568 5448,2600 5408,2611C5320,2634 5164,2635 5074,2614ZM5438,2371C5509,2336 5534,2318 5600,2254C5671,2186 5790,2083 5814,2068C5820,2064 5832,2059 5841,2056C5850,2054 5865,2037 5874,2019C5889,1989 5889,1982 5876,1941C5867,1916 5856,1866 5851,1831C5845,1795 5836,1762 5830,1756C5825,1751 5820,1739 5820,1730C5820,1722 5812,1699 5801,1680C5791,1661 5778,1628 5771,1608C5764,1588 5742,1555 5722,1536C5702,1517 5657,1473 5622,1440C5588,1407 5556,1380 5551,1380C5547,1380 5523,1361 5499,1337C5474,1313 5434,1282 5409,1268C5385,1254 5325,1219 5275,1190C5160,1123 5104,1113 4975,1137C4906,1149 4878,1159 4855,1180C4839,1195 4804,1221 4779,1239C4689,1302 4687,1309 4692,1496C4696,1647 4698,1662 4718,1683C4730,1696 4740,1713 4740,1721C4740,1729 4745,1741 4752,1748C4758,1754 4765,1766 4766,1774C4767,1782 4785,1824 4806,1867C4826,1910 4850,1965 4859,1990C4880,2048 4964,2161 5010,2191C5029,2204 5062,2229 5082,2247C5130,2289 5200,2324 5270,2341C5300,2348 5334,2360 5345,2367C5367,2382 5412,2384 5438,2371ZM4430,1759C4430,1754 4426,1750 4420,1750C4415,1750 4410,1757 4410,1766C4410,1774 4415,1778 4420,1775C4426,1772 4430,1765 4430,1759ZM4417,1354C4414,1351 4405,1350 4398,1353C4390,1356 4393,1359 4404,1359C4415,1360 4421,1357 4417,1354Z" style="fill-rule:nonzero;"/>
    </g>
</svg>
