<?xml version="1.0" encoding="UTF-8" standalone="no"?>
<!DOCTYPE svg PUBLIC "-//W3C//DTD SVG 1.1//EN" "http://www.w3.org/Graphics/SVG/1.1/DTD/svg11.dtd">
<svg width="100%" height="100%" viewBox="0 0 512 64" version="1.1" xmlns="http://www.w3.org/2000/svg" xmlns:xlink="http://www.w3.org/1999/xlink" xml:space="preserve" xmlns:serif="http://www.serif.com/" style="fill-rule:evenodd;clip-rule:evenodd;stroke-linejoin:round;stroke-miterlimit:2;">
    <g transform="matrix(1.10264,0,0,0.832416,-25.9331,-43.0101)">
        <path d="M30.435,111.858C35.131,108.162 47.891,98.118 48.646,97.514C62.238,86.64 80.505,69.288 98.425,66.03C102.228,65.338 104.734,66.277 106.392,67.319C108.403,68.583 109.738,70.375 110.414,72.639C110.947,74.425 111.011,76.804 110.31,79.36C109.643,81.792 108.106,84.676 107.564,85.939C106.325,88.831 104.882,91.604 103.384,94.346C115.528,84.034 127.345,73.344 140.397,64.159C143.387,62.055 149.414,57.312 154.833,55.368C158.853,53.926 162.728,53.828 165.945,55.037C169.686,56.443 171.952,59.376 172.157,63.87C172.242,65.722 171.801,68.183 170.85,70.719C169.424,74.521 166.883,78.725 166.36,79.562C166.116,79.953 165.87,80.342 165.623,80.73C169.826,76.918 174.281,73.038 178.743,69.594C187.433,62.886 196.31,57.917 203.714,56.86C209.545,56.027 213.005,57.756 214.991,59.574C217.69,62.046 219.14,65.819 217.969,70.789C217.686,71.989 217.183,73.351 216.509,74.811C222.036,70.65 228.114,66.229 234.16,62.631C243.565,57.035 253.058,53.56 260.829,54.197C265.597,54.587 268.049,57.22 269.109,60.957C269.616,62.744 269.638,65.284 268.852,67.968C268.123,70.455 266.687,73.241 265.983,74.521C273.236,69.653 280.542,64.954 288.736,61.539C290.991,60.6 294.985,58.917 298.43,58.51C301.199,58.183 303.765,58.565 305.858,59.54C310.641,61.77 312.506,65.822 311.82,70.947C311.353,74.437 308.7,78.97 307.109,81.404C316.729,75.761 326.382,70.083 336.53,65.534C339.11,64.377 344.849,61.532 349.506,60.467C353.147,59.634 356.432,59.85 358.77,60.785C363.247,62.576 365.082,66.078 364.608,70.674C364.313,73.528 361.85,77.705 361.237,78.728C360.905,79.28 360.111,80.36 359.093,81.737C361.401,80.539 363.428,79.4 364.877,78.728C385.207,69.307 405.942,57.042 428.032,52.221C435.716,50.544 439.467,53.08 440.902,54.62C443.122,57.004 444.428,60.671 442.222,65.366C441.649,66.585 440.615,68.114 439.3,69.775C440.28,69.47 441.182,69.197 441.974,68.994C454.08,65.897 466.075,63.073 478.349,60.712C482.685,59.879 486.882,62.722 487.716,67.058C488.55,71.394 485.707,75.591 481.371,76.424C469.415,78.724 457.731,81.478 445.94,84.495C442.738,85.314 437.854,87.148 433.209,87.888C428.496,88.639 423.97,88.272 420.42,86.498C418.297,85.436 416.971,83.929 416.133,82.25C415.129,80.239 414.738,77.729 415.642,74.808C415.883,74.031 416.294,73.137 416.844,72.168C401.27,77.86 386.354,86.41 371.604,93.245C367.713,95.049 360.007,99.708 353.289,101.225C348.697,102.261 344.399,101.973 340.938,100.297C337.216,98.495 334.534,94.684 336.274,88.577C336.791,86.764 338.195,84.235 339.849,81.627C327.854,87.348 316.532,94.577 305.004,101.12C303.196,102.147 290.475,109.942 284.32,111.607C278.635,113.145 274.798,110.864 273.108,108.738C270.972,106.049 270.512,103.045 271.512,99.843C272.143,97.824 274.16,95.361 275.46,93.628C279.234,88.596 283.82,84.223 288.06,79.574C279.576,84.128 271.947,89.961 263.791,95.205C262.284,96.173 252.536,103.155 247.183,104.41C242.602,105.484 239.153,104.05 237.04,101.891C234.95,99.756 233.973,96.855 234.558,93.485C234.978,91.066 236.777,88.011 237.501,86.914C240.552,82.29 244.132,77.993 247.43,73.533C245.759,74.391 244.057,75.36 242.342,76.381C230.827,83.232 219.225,93.189 211.702,98.294C208.87,100.216 204.258,104.313 199.896,106.383C196.613,107.94 193.335,108.539 190.437,108.125C187.718,107.737 185.938,106.433 184.693,104.852C183.579,103.438 182.822,101.629 182.793,99.386C182.772,97.85 183.248,95.646 184.355,93.41C185.547,91.001 187.542,88.277 187.705,88.025C188.735,86.441 192.83,81.69 196.661,76.527C194.013,78.141 191.28,80.129 188.519,82.26C177.483,90.777 166.514,102.039 159.431,108.073C158.916,108.512 154.838,112.743 150.916,115.633C148.329,117.539 145.689,118.886 143.623,119.391C138.538,120.634 134.757,118.911 132.414,114.92C130.983,112.481 130.485,109.061 131.552,105.266C132.658,101.337 135.75,96.531 136.841,94.827C140.417,89.239 144.282,83.861 148.007,78.381C135.025,87.715 123.274,98.547 111.044,108.82C108.175,111.23 104.106,115.142 99.838,117.768C95.595,120.38 91.09,121.749 86.939,121.315C82.273,120.828 79.792,118.19 78.807,114.267C78.366,112.509 78.395,110.027 79.143,107.415C79.97,104.532 81.718,101.225 81.909,100.806C84.194,95.777 87.052,91.089 89.639,86.244C86.364,88.07 83.138,90.27 79.986,92.598C72.2,98.349 64.919,104.985 58.641,110.008C57.607,110.835 40.813,124.823 36.389,127.251C32.861,129.188 30.053,128.494 28.982,128.122C25.895,127.049 23.943,124.886 23.57,121.281C23.468,120.288 23.338,118.126 25.169,115.338C26.421,113.431 28.352,112.235 30.435,111.858Z"/>
    </g>
</svg>
