<?xml version="1.0" encoding="UTF-8" standalone="no"?>
<!DOCTYPE svg PUBLIC "-//W3C//DTD SVG 1.1//EN" "http://www.w3.org/Graphics/SVG/1.1/DTD/svg11.dtd">
<svg width="100%" height="100%" viewBox="0 0 512 64" version="1.1" xmlns="http://www.w3.org/2000/svg" xmlns:xlink="http://www.w3.org/1999/xlink" xml:space="preserve" xmlns:serif="http://www.serif.com/" style="fill-rule:evenodd;clip-rule:evenodd;stroke-linecap:round;stroke-linejoin:round;stroke-miterlimit:1.5;">
    <path d="M20.195,49.45C29.56,45.248 44.407,44.58 53.272,42.889C72.246,39.269 91.007,34.843 110.039,31.412C178.324,19.104 247.095,12.121 316.498,10.484C333.698,10.079 350.944,9.687 368.148,9.528C379.368,9.425 394.955,8.339 406.776,10.309C408.379,10.576 403.668,11.271 402.093,11.674C395.798,13.285 389.464,14.741 383.17,16.356C365.708,20.838 358.979,22.742 339.469,28.647C331.93,30.929 321.852,33.58 315.473,38.597C315.213,38.802 316.118,38.814 316.449,38.792C317.438,38.724 318.424,38.618 319.407,38.496C323.22,38.019 324.102,37.735 328.422,36.727C336.209,34.911 343.964,32.958 351.76,31.183C373.593,26.214 395.829,23.095 418.091,20.843C424.905,20.154 431.73,19.587 438.575,19.283C440.004,19.219 441.856,18.271 442.867,19.283C443.073,19.488 442.366,19.593 442.087,19.673C440.995,19.985 439.886,20.24 438.77,20.453C432.127,21.725 432.222,21.575 425.504,22.989C411.902,25.853 397.838,28.151 384.925,33.524C380.971,35.17 378.499,36.209 374.976,38.206C374.734,38.343 372.022,40.112 372.635,40.743C374.378,42.537 382.994,41.053 384.34,40.938C394.152,40.097 403.89,38.41 413.604,36.841C443.803,31.963 473.683,26.49 504.321,25.721" style="fill:none;stroke:black;stroke-width:13px;"/>
</svg>
