<?xml version="1.0" encoding="utf-8"?>
<!-- Generator: Adobe Illustrator 24.3.0, SVG Export Plug-In . SVG Version: 6.00 Build 0)  -->
<svg version="1.1" id="Layer_1" xmlns="http://www.w3.org/2000/svg" xmlns:xlink="http://www.w3.org/1999/xlink" x="0px" y="0px"
	 width="856.375px" height="995.551px" viewBox="0 0 856.375 995.551" enable-background="new 0 0 856.375 995.551"
	 xml:space="preserve">
<g>
	<path d="M777.182,219.044c0,8.52,0.164,16.983-0.036,25.437c-0.354,14.975-1.104,29.941-1.38,44.917
		c-0.831,45.121-2.025,90.243-2.094,135.367c-0.056,36.952,0.288,73.96,2.272,110.845c2.663,49.491,6.589,98.931,10.927,148.309
		c2.473,28.154,6.532,56.185,10.459,84.19c3.046,21.722,7.959,43.217,10.232,65.001c1.803,17.281,1.038,34.849,0.927,52.287
		c-0.015,2.352-2.381,5.328-4.485,6.925c-15.785,11.981-34.335,16.373-53.541,18.404c-18.012,1.905-36.053,4.183-54.127,4.698
		c-28.073,0.799-56.192-0.133-84.279,0.36c-31.283,0.549-62.562,1.656-93.827,2.918c-30.092,1.214-60.183,2.623-90.237,4.525
		c-29.534,1.868-59.023,4.467-88.532,6.737c-28.842,2.219-57.669,4.653-86.531,6.568c-23.06,1.53-46.154,2.647-69.25,3.499
		c-10.941,0.404-21.924-0.107-32.88-0.461c-6.25-0.202-11.694-2.741-15.833-7.482c-9.585-10.979-19.045-22.067-28.546-33.119
		c-7.22-8.398-14.781-16.535-21.529-25.297c-5.666-7.357-10.067-15.679-15.588-23.161c-7.06-9.566-10.164-20.886-14.275-31.648
		c-2.339-6.124-2.011-13.393-2.257-20.169c-1.303-35.92-2.856-71.84-3.477-107.775c-0.979-56.628-1.696-113.267-1.663-169.901
		c0.012-21.073,2.177-42.167,3.857-63.211c1.586-19.865,3.073-39.787,5.936-59.49C62.948,360.31,69.24,322.411,75.58,284.53
		c2.086-12.466,5.231-24.759,8.03-37.101c2.352-10.372,6.171-12.87,16.707-13.39c15.768-0.779,31.532-1.937,47.246-3.463
		c24.659-2.395,49.269-5.303,73.92-7.792c3.169-0.32,3.772-1.534,3.787-4.345c0.117-20.965,3.052-41.511,11.036-60.986
		c5.597-13.655,12.485-26.487,21.81-38.348c7.254-9.227,16.386-16.301,23.739-25.199c0.212-0.257,0.385-0.603,0.66-0.742
		c12.98-6.588,23.809-17.043,38.33-20.927c6.56-1.754,12.727-5.191,19.342-6.48c14.166-2.76,28.437-5.443,42.793-6.66
		c22.862-1.938,45.815-3.302,68.751-3.701c22.501-0.391,44.451,4.208,65.263,12.712c13.467,5.503,26.932,11.319,38.357,20.894
		c8.501,7.125,17.583,13.554,26.303,20.425c1.637,1.29,2.754,3.229,4.161,4.824c2.505,2.839,5.022,5.668,7.585,8.454
		c1.348,1.466,3.066,2.655,4.168,4.274c11.225,16.486,22.536,32.902,28.216,52.422c2.967,10.198,6.653,20.184,9.854,30.317
		c0.762,2.412,1.813,3.424,4.489,3.49c22.965,0.567,45.931,1.146,68.886,2.017c20.95,0.795,41.887,1.945,62.828,2.982
		C773.481,218.287,775.107,218.709,777.182,219.044z M568.241,270.157c-83.361,5.526-165.544,10.973-247.749,16.422
		c-0.113,1.48-0.246,2.134-0.199,2.775c1.598,22.065,3.197,44.13,4.831,66.192c0.702,9.475,1.278,18.872-8.664,24.587
		c-0.274,0.158-0.502,0.456-0.665,0.739c-3.462,5.998-9.165,7.425-15.426,7.221c-15.183-0.495-28.982-5.021-41.353-14.073
		c-4.254-3.112-6.82-6.783-7.166-11.911c-1.423-21.063-2.866-42.125-4.071-63.201c-0.413-7.228-0.104-7.217-7.488-7.266
		c-22.629-0.153-45.258-0.311-67.886-0.517c-3.723-0.034-7.444-0.319-11.245-0.491c1.045,19.976,2.05,39.071,3.042,58.166
		c1.681,32.367,3.461,64.73,4.995,97.105c1.204,25.413,2.144,50.839,3.123,76.262c1.339,34.765,3.22,69.523,3.754,104.301
		c0.8,52.115,0.312,104.226-2.734,156.304c-2.108,36.041-3.136,72.146-4.577,108.225c-0.209,5.234-0.029,10.484-0.029,16.096
		c2.511,0,4.826,0.118,7.125-0.019c18.756-1.114,37.51-2.263,56.264-3.426c29.874-1.853,59.747-3.716,89.62-5.59
		c33.869-2.125,67.727-4.456,101.609-6.353c38.537-2.159,77.086-4.154,115.647-5.815c31.909-1.374,63.837-2.683,95.768-3.073
		c41.268-0.504,82.547,0.166,123.697-4.067c15.639-1.609,16.015-1.473,14.061-17.452c-2.867-23.442-6.107-46.839-9.165-70.258
		c-4.393-33.635-8.933-67.251-13.063-100.918c-1.659-13.52-2.451-27.148-3.542-40.734c-2.063-25.691-4.412-51.367-5.967-77.09
		c-1.245-20.594-1.651-41.244-2.143-61.876c-0.71-29.798-1.926-59.612-1.547-89.401c0.607-47.764,2.367-95.512,3.579-143.269
		c0.18-7.104,0.025-14.217,0.025-20.415c-30.586,2.841-61.66,5.727-92.443,8.586c0,6.012,0.003,11.798,0,17.583
		c-0.011,18.636-0.331,37.28,0.108,55.905c0.187,7.924-0.322,14.562-9.261,17.235c-1.038,0.31-1.775,1.51-2.77,2.096
		c-11.505,6.775-23.58,10.233-36.495,4.556c-8.652-3.803-17.008-8.297-25.407-12.653c-4.46-2.313-6.657-5.801-6.481-11.279
		c0.424-13.152,0.249-26.324,0.286-39.487C568.262,290.402,568.241,280.924,568.241,270.157z M133.633,877.241
		c0.429-5.527,0.924-9.806,1.065-14.097c0.585-17.798,0.995-35.602,1.594-53.399c1.081-32.082,3.22-64.163,3.178-96.242
		c-0.08-62.107-1.002-124.219-2.284-186.314c-0.834-40.409-2.746-80.799-4.496-121.184c-1.634-37.714-3.783-75.406-5.427-113.12
		c-0.177-4.07-1.637-6.127-5.105-7.262c-6.573-2.15-12.544-5.21-17.231-10.493c-1.133-1.277-2.741-2.133-4.551-3.5
		c-0.468,2.162-0.894,3.749-1.149,5.363c-4.685,29.741-9.918,59.41-13.859,89.25c-3.896,29.502-6.899,59.141-9.504,88.789
		c-1.876,21.358-3.137,42.819-3.487,64.254c-1.034,63.27,1.128,126.485,4.271,189.677c1.529,30.748,2.388,61.53,3.649,92.292
		c0.086,2.086,0.535,4.442,1.628,6.153c4.363,6.832,8.995,13.494,13.626,20.151c4.835,6.948,9.751,13.841,14.693,20.714
		c5.591,7.776,11.166,15.566,16.94,23.205C128.641,873.403,130.826,874.774,133.633,877.241z M321.132,217.498
		c21.178,0,41.501,0.505,61.789-0.113c34.063-1.039,68.102-2.842,102.158-4.16c3.005-0.116,4-1.138,4.466-3.901
		c4.861-28.82,0.813-55.52-18.117-78.911c-2.346-2.898-4.95-4.129-8.458-4.265c-18.173-0.703-36.338-0.677-53.955,4.488
		c-12.707,3.726-25.486,7.508-36.867,14.655c-10.559,6.63-19.552,14.771-28.028,24.127
		C331.572,183.268,326.42,199.828,321.132,217.498z M612.234,345.976c0-3.412,0.016-5.229-0.003-7.046
		c-0.17-16.821,0.203-33.67-0.655-50.456c-1.147-22.435-3.374-44.838-9.112-66.645c-6.692-25.434-15.216-49.924-30.167-72.238
		c-10.178-15.19-22.805-27.451-36.03-39.458c-2.748-2.495-7.044-3.272-9.831-5.739c-12.681-11.224-28.317-16.33-44.129-19.636
		c-26.646-5.57-53.705-3.578-80.549-0.389c-12.214,1.451-24.35,3.691-36.444,5.983c-20.347,3.855-39.088,11.6-55.448,24.491
		c-5.298,4.174-10.347,8.718-15.124,13.48c-3.263,3.253-5.886,7.154-8.741,10.808c-1.524,1.951-3.198,3.851-4.344,6.018
		c-3.648,6.898-7.219,13.845-10.568,20.893c-7.9,16.623-10.575,34.385-11.591,52.288c8.06,0,15.615,0,22.521,0
		c2.358-8.031,4.165-15.274,6.628-22.287c2.801-7.975,5.029-16.503,9.573-23.436c8.248-12.588,17.561-24.406,29.286-34.375
		c11.843-10.069,25.12-17.226,39.154-23.204c6.37-2.713,13.332-4.009,19.969-6.124c15.21-4.847,30.922-6.447,46.715-6.245
		c14.784,0.189,29.542,1.861,44.329,2.443c19.461,0.766,38.063,3.492,55.303,14.02c13.031,7.958,23.779,17.887,31.421,30.614
		c11.999,19.983,19.714,41.756,22.906,65c5.43,39.549,6.536,79.258,4.698,119.094c-0.057,1.232,0.583,3.213,1.483,3.657
		C599.239,340.321,605.16,342.825,612.234,345.976z M566.201,248.879c-0.215-4.053-0.54-7.665-0.565-11.279
		c-0.031-4.42-1.56-6.238-6.469-6.072c-36.41,1.235-72.83,2.191-109.248,3.2c-41.747,1.156-83.496,2.278-125.244,3.405
		c-1.778,0.048-3.559,0.006-5.443,0.006c0,8.398,0.164,16.171-0.061,23.934c-0.137,4.717,1.68,5.904,6.255,5.455
		c13.891-1.362,27.822-2.321,41.74-3.396c29.663-2.292,59.333-4.507,88.992-6.852c27.166-2.148,54.318-4.474,81.484-6.621
		C547.039,249.916,556.461,249.477,566.201,248.879z M134.602,250.95c-0.213,0.438-0.427,0.876-0.64,1.315
		c5.736,4.394,11.497,8.757,17.193,13.203c1.524,1.19,3.848,2.475,4.09,3.99c0.933,5.845,4.828,5.789,9.229,5.662
		c30.119-0.869,60.242-1.587,90.358-2.534c8.574-0.27,17.129-1.136,25.394-1.708c0-10.749,0-20.97,0-31.766
		C230.973,239.754,182.822,245.776,134.602,250.95z M561.371,211.649c0.265-32.467-35.524-79.512-60.868-80.863
		c16.685,24.586,19.906,52.004,16.393,80.863C531.873,211.649,546.456,211.649,561.371,211.649z M282.466,288.705
		c-3.116,0.163-5.91,0.643-8.631,0.376c-4.759-0.468-6.067,1.588-5.659,6.004c1.59,17.184,3.08,34.379,4.488,51.579
		c0.824,10.071,4.52,13.482,15.575,13.349C286.328,336.403,284.42,312.833,282.466,288.705z M643.74,246.144
		c21.515-1.287,42.452-2.54,63.39-3.793c-0.009-0.298-0.017-0.595-0.026-0.893c-21.781-1.433-43.563-2.867-65.864-4.334
		C642.063,240.094,642.839,242.895,643.74,246.144z"/>
	<path fill="#FFFFFF" d="M568.241,270.157c0,10.767,0.021,20.245-0.005,29.722c-0.037,13.164,0.138,26.335-0.286,39.487
		c-0.177,5.478,2.02,8.966,6.481,11.279c8.4,4.356,16.755,8.849,25.407,12.653c12.915,5.677,24.989,2.219,36.495-4.556
		c0.995-0.586,1.733-1.786,2.77-2.096c8.939-2.672,9.448-9.311,9.261-17.235c-0.439-18.626-0.119-37.269-0.108-55.905
		c0.003-5.785,0-11.571,0-17.583c30.783-2.859,61.857-5.745,92.443-8.586c0,6.198,0.155,13.31-0.025,20.415
		c-1.211,47.757-2.971,95.505-3.579,143.269c-0.379,29.79,0.837,59.603,1.547,89.401c0.492,20.632,0.898,41.282,2.143,61.876
		c1.555,25.723,3.904,51.399,5.967,77.09c1.091,13.586,1.883,27.215,3.542,40.734c4.13,33.667,8.671,67.283,13.063,100.918
		c3.059,23.419,6.299,46.816,9.165,70.258c1.954,15.979,1.578,15.843-14.061,17.452c-41.15,4.233-82.429,3.563-123.697,4.067
		c-31.931,0.39-63.859,1.699-95.768,3.073c-38.561,1.661-77.11,3.656-115.647,5.815c-33.882,1.898-67.739,4.228-101.609,6.353
		c-29.873,1.875-59.746,3.738-89.62,5.59c-18.753,1.163-37.507,2.312-56.264,3.426c-2.299,0.137-4.614,0.019-7.125,0.019
		c0-5.612-0.18-10.862,0.029-16.096c1.441-36.079,2.469-72.184,4.577-108.225c3.046-52.079,3.534-104.189,2.734-156.304
		c-0.534-34.778-2.415-69.536-3.754-104.301c-0.979-25.423-1.918-50.849-3.123-76.262c-1.534-32.374-3.314-64.737-4.995-97.105
		c-0.992-19.096-1.997-38.19-3.042-58.166c3.801,0.172,7.522,0.457,11.245,0.491c22.628,0.206,45.257,0.364,67.886,0.517
		c7.384,0.05,7.075,0.038,7.488,7.266c1.204,21.076,2.648,42.138,4.071,63.201c0.346,5.128,2.912,8.798,7.166,11.911
		c12.372,9.052,26.17,13.578,41.353,14.073c6.26,0.204,11.964-1.223,15.426-7.221c0.163-0.283,0.391-0.581,0.665-0.739
		c9.942-5.716,9.366-15.113,8.664-24.587c-1.634-22.062-3.233-44.127-4.831-66.192c-0.046-0.641,0.087-1.294,0.199-2.775
		C402.697,281.13,484.879,275.683,568.241,270.157z M656.83,850.79c2.325-0.122,4.697,0.011,6.969-0.405
		c16.038-2.94,29.142-11.339,41.412-21.691c9.79-8.259,16.799-18.216,21.218-30.067c2.752-7.382-5.239-19.427-13.038-19.704
		c-1.528-0.054-3.6,0.957-4.579,2.162c-4.168,5.128-8.432,10.261-11.874,15.875c-3.694,6.025-8.227,10.78-14.512,13.995
		c-1.562,0.799-2.828,2.242-4.112,3.508c-6.522,6.43-14.045,10.503-23.492,9.637c-4.462-0.409-8.866-1.447-13.327-1.894
		c-4.115-0.412-7.716,0.57-8.983,5.229c-1.612,5.927-0.638,11.087,4.116,15.438C642.39,848.145,648.591,851.953,656.83,850.79z"/>
	<path fill="#FFFFFF" d="M133.633,877.241c-2.807-2.467-4.992-3.838-6.446-5.762c-5.774-7.639-11.349-15.43-16.94-23.205
		c-4.942-6.873-9.858-13.766-14.693-20.714c-4.632-6.656-9.264-13.319-13.626-20.151c-1.093-1.711-1.542-4.067-1.628-6.153
		c-1.262-30.762-2.12-61.544-3.649-92.292c-3.142-63.192-5.305-126.406-4.271-189.677c0.35-21.435,1.611-42.896,3.487-64.254
		c2.605-29.648,5.608-59.287,9.504-88.789c3.941-29.84,9.173-59.509,13.859-89.25c0.254-1.614,0.681-3.201,1.149-5.363
		c1.81,1.367,3.418,2.223,4.551,3.5c4.687,5.282,10.658,8.343,17.231,10.493c3.469,1.135,4.928,3.192,5.105,7.262
		c1.644,37.714,3.794,75.406,5.427,113.12c1.75,40.385,3.661,80.775,4.496,121.184c1.282,62.095,2.204,124.208,2.284,186.314
		c0.041,32.079-2.097,64.159-3.178,96.242c-0.6,17.797-1.01,35.601-1.594,53.399C134.558,867.434,134.062,871.714,133.633,877.241z"
		/>
	<path fill="#FFFFFF" d="M612.234,345.976c-7.074-3.151-12.994-5.655-18.75-8.491c-0.9-0.444-1.54-2.425-1.483-3.657
		c1.838-39.835,0.732-79.545-4.698-119.094c-3.192-23.244-10.907-45.017-22.906-65c-7.642-12.727-18.39-22.656-31.421-30.614
		c-17.24-10.528-35.842-13.254-55.303-14.02c-14.787-0.582-29.545-2.254-44.329-2.443c-15.792-0.202-31.505,1.398-46.715,6.245
		c-6.637,2.115-13.599,3.411-19.969,6.124c-14.034,5.978-27.31,13.135-39.154,23.204c-11.725,9.968-21.038,21.787-29.286,34.375
		c-4.543,6.934-6.772,15.462-9.573,23.436c-2.463,7.013-4.27,14.256-6.628,22.287c-6.906,0-14.461,0-22.521,0
		c1.016-17.903,3.691-35.665,11.591-52.288c3.349-7.048,6.92-13.994,10.568-20.893c1.146-2.167,2.82-4.067,4.344-6.018
		c2.855-3.654,5.478-7.555,8.741-10.808c4.777-4.762,9.827-9.306,15.124-13.48c16.359-12.89,35.101-20.635,55.448-24.491
		c12.094-2.291,24.23-4.532,36.444-5.983c26.844-3.188,53.903-5.18,80.549,0.389c15.813,3.305,31.449,8.412,44.129,19.636
		c2.787,2.467,7.083,3.244,9.831,5.739c13.224,12.007,25.852,24.268,36.03,39.458c14.95,22.313,23.474,46.803,30.167,72.238
		c5.738,21.807,7.965,44.21,9.112,66.645c0.858,16.786,0.485,33.635,0.655,50.456C612.249,340.747,612.234,342.564,612.234,345.976z
		"/>
	<path fill="#FFFFFF" d="M566.201,248.879c-9.74,0.598-19.161,1.037-28.559,1.78c-27.166,2.147-54.318,4.473-81.484,6.621
		c-29.659,2.345-59.328,4.56-88.992,6.852c-13.919,1.076-27.849,2.034-41.74,3.396c-4.575,0.449-6.392-0.739-6.255-5.455
		c0.226-7.762,0.061-15.536,0.061-23.934c1.884,0,3.664,0.042,5.443-0.006c41.748-1.128,83.497-2.249,125.244-3.405
		c36.418-1.009,72.838-1.965,109.248-3.2c4.91-0.166,6.439,1.652,6.469,6.072C565.661,241.214,565.986,244.826,566.201,248.879z"/>
	<path fill="#FFFFFF" d="M134.602,250.95c48.219-5.174,96.371-11.197,145.624-11.839c0,10.795,0,21.017,0,31.766
		c-8.265,0.572-16.82,1.439-25.394,1.708c-30.116,0.947-60.239,1.665-90.358,2.534c-4.401,0.127-8.296,0.183-9.229-5.662
		c-0.242-1.515-2.566-2.8-4.09-3.99c-5.696-4.446-11.457-8.809-17.193-13.203C134.175,251.827,134.389,251.389,134.602,250.95z"/>
	<path fill="#FFFFFF" d="M561.371,211.649c-14.915,0-29.498,0-44.475,0c3.512-28.858,0.292-56.276-16.393-80.863
		C525.847,132.138,561.636,179.182,561.371,211.649z"/>
	<path fill="#FFFFFF" d="M282.466,288.705c1.954,24.128,3.862,47.698,5.774,71.309c-11.055,0.132-14.751-3.279-15.575-13.349
		c-1.407-17.2-2.897-34.395-4.488-51.579c-0.409-4.416,0.899-6.472,5.659-6.004C276.556,289.348,279.35,288.868,282.466,288.705z"/>
	<path fill="#FFFFFF" d="M643.74,246.144c-0.9-3.249-1.677-6.05-2.5-9.02c22.301,1.468,44.082,2.901,65.864,4.334
		c0.009,0.298,0.017,0.595,0.026,0.893C686.192,243.604,665.254,244.857,643.74,246.144z"/>
	<path d="M656.83,850.79c-8.238,1.163-14.44-2.645-20.202-7.918c-4.754-4.351-5.728-9.511-4.116-15.438
		c1.267-4.659,4.869-5.642,8.983-5.229c4.461,0.447,8.864,1.485,13.327,1.894c9.447,0.866,16.97-3.207,23.492-9.637
		c1.284-1.266,2.55-2.71,4.112-3.508c6.285-3.215,10.818-7.97,14.512-13.995c3.442-5.614,7.706-10.746,11.874-15.875
		c0.979-1.205,3.051-2.216,4.579-2.162c7.799,0.277,15.79,12.322,13.038,19.704c-4.419,11.851-11.428,21.808-21.218,30.067
		c-12.27,10.352-25.374,18.751-41.412,21.691C661.527,850.801,659.155,850.668,656.83,850.79z"/>
</g>
</svg>
