<?xml version="1.0" standalone="no"?>
<!DOCTYPE svg PUBLIC "-//W3C//DTD SVG 20010904//EN"
 "http://www.w3.org/TR/2001/REC-SVG-20010904/DTD/svg10.dtd">
<svg version="1.0" xmlns="http://www.w3.org/2000/svg"
 width="128.000000pt" height="128.000000pt" viewBox="0 0 128.000000 128.000000"
 preserveAspectRatio="xMidYMid meet">
<metadata>
Created by potrace 1.14, written by Peter Selinger 2001-2017
</metadata>
<g transform="translate(0.000000,128.000000) scale(0.100000,-0.100000)"
fill="#000000" stroke="none">
<path d="M595 1131 c-56 -15 -94 -41 -116 -81 -13 -22 -25 -40 -28 -41 -41 -5
-245 -63 -311 -88 -40 -15 -62 -31 -80 -57 -23 -35 -24 -43 -22 -163 5 -234
13 -366 23 -403 16 -62 46 -71 239 -75 143 -2 168 -5 190 -22 43 -31 123 -68
165 -76 100 -18 223 4 292 53 20 14 53 21 113 26 137 10 152 37 176 326 16
182 5 263 -42 327 -13 17 -24 39 -24 47 0 29 -24 68 -51 82 -16 8 -53 14 -83
14 l-55 0 -23 48 c-35 69 -70 83 -216 88 -64 2 -130 0 -147 -5z m253 -57 c36
-5 45 -10 61 -42 l19 -37 -82 0 c-72 1 -143 -7 -283 -30 l-42 -7 16 50 c16 50
16 50 72 61 90 18 130 19 239 5z m-343 -117 c-19 -46 -19 -50 3 -39 86 45 464
40 468 -6 1 -6 2 -18 3 -25 0 -7 32 -21 72 -31 38 -10 82 -28 97 -41 l27 -23
-1 -159 c0 -139 -15 -309 -30 -346 -8 -20 -77 -64 -114 -72 l-34 -7 48 53 c69
76 97 144 104 250 7 131 -33 235 -124 319 -164 151 -427 141 -580 -22 -133
-142 -147 -366 -32 -518 22 -29 33 -50 25 -47 -9 3 -31 9 -49 12 -32 6 -34 10
-60 94 -36 116 -47 196 -43 326 3 88 7 111 22 124 10 10 36 45 58 79 31 50 45
63 71 68 18 3 42 17 55 30 29 31 33 26 14 -19z m593 -10 c13 -6 28 -19 33 -28
8 -16 4 -16 -57 1 -37 11 -68 21 -69 22 -1 2 -7 13 -14 25 l-11 22 47 -15 c27
-9 58 -21 71 -27z m-765 -71 l-38 -55 -116 -3 c-102 -3 -116 -1 -109 12 17 30
49 48 107 60 32 7 81 18 108 25 88 24 91 22 48 -39z m512 20 c75 -20 132 -52
184 -104 104 -104 132 -239 79 -380 -27 -73 -119 -167 -203 -208 -54 -26 -70
-29 -160 -29 -94 0 -104 2 -175 36 -146 69 -213 169 -217 321 -2 81 0 91 33
156 83 167 279 256 459 208z m-754 -111 c1 -5 1 -16 0 -22 -2 -13 4 -14 74
-15 68 0 74 1 77 24 2 11 11 22 21 24 16 2 18 -3 12 -39 -4 -23 -9 -51 -12
-62 -3 -11 -7 -76 -10 -145 -4 -102 -1 -138 15 -198 l19 -74 -81 7 c-106 8
-113 10 -120 47 -8 38 -23 214 -32 360 -6 104 -6 107 15 105 12 -1 22 -6 22
-12z"/>
<path d="M630 874 c-87 -31 -162 -101 -206 -191 -24 -49 -29 -70 -28 -138 0
-67 4 -89 29 -140 37 -76 104 -144 180 -180 51 -25 72 -29 145 -30 73 0 93 4
140 27 70 34 136 90 155 132 9 17 10 22 3 11 -26 -40 -99 -103 -145 -125 -99
-47 -212 -42 -306 13 -65 38 -101 75 -134 139 -24 46 -28 64 -28 138 0 71 4
94 26 140 32 69 96 132 168 167 75 36 202 38 273 6 44 -21 128 -95 156 -138 7
-11 6 -6 -2 10 -22 47 -90 109 -153 140 -73 36 -201 45 -273 19z"/>
<path d="M673 806 c-84 -27 -156 -91 -184 -162 -36 -94 -9 -222 63 -295 183
-184 488 -65 488 191 0 113 -61 205 -166 251 -57 26 -148 32 -201 15z m193
-44 c130 -68 180 -206 119 -328 -30 -61 -59 -89 -120 -118 -127 -62 -295 -4
-352 122 -27 58 -32 136 -13 188 26 67 100 131 180 154 44 13 144 3 186 -18z"/>
<path d="M710 763 c-107 -32 -180 -124 -180 -228 0 -40 16 -104 29 -115 4 -3
14 -17 24 -32 9 -15 38 -39 64 -55 38 -22 59 -27 112 -27 252 0 329 325 104
438 -32 16 -124 28 -153 19z m123 -48 c45 -19 105 -89 113 -132 17 -93 -25
-176 -110 -218 -43 -21 -64 -26 -100 -22 -141 15 -225 165 -160 287 10 19 18
40 19 45 0 6 8 9 18 7 20 -3 23 13 5 22 -7 3 -4 4 7 1 11 -2 31 2 45 10 33 19
118 19 163 0z"/>
<path d="M780 686 c0 -2 19 -14 43 -25 23 -11 50 -34 60 -50 25 -43 21 -59 -6
-20 -45 68 -123 80 -182 28 -19 -17 -35 -35 -35 -39 0 -4 16 8 35 27 33 33 39
35 81 30 53 -6 80 -27 95 -77 9 -28 8 -44 -4 -72 -29 -68 -105 -85 -171 -37
-29 21 -30 21 -13 2 43 -49 124 -54 171 -10 23 22 49 90 38 101 -3 3 0 6 7 6
8 0 10 -11 5 -37 -10 -57 -34 -91 -79 -113 -22 -11 -33 -20 -24 -20 28 0 83
44 101 80 30 60 17 141 -28 182 -20 17 -94 52 -94 44z"/>
<path d="M1070 675 c0 -5 5 -17 10 -25 5 -8 10 -10 10 -5 0 6 -5 17 -10 25 -5
8 -10 11 -10 5z"/>
<path d="M1091 614 c0 -11 3 -14 6 -6 3 7 2 16 -1 19 -3 4 -6 -2 -5 -13z"/>
<path d="M1095 520 c-3 -5 -1 -10 4 -10 6 0 11 5 11 10 0 6 -2 10 -4 10 -3 0
-8 -4 -11 -10z"/>
<path d="M1086 455 c-9 -26 -7 -32 5 -12 6 10 9 21 6 23 -2 3 -7 -2 -11 -11z"/>
<path d="M1066 403 c-6 -14 -5 -15 5 -6 7 7 10 15 7 18 -3 3 -9 -2 -12 -12z"/>
</g>
</svg>
